<svg width="326" height="140" viewBox="0 0 326 140" fill="none" xmlns="http://www.w3.org/2000/svg">
<path d="M6.9 94.5C4.36667 94.5 2.56667 93.1667 1.5 90.5C0.5 87.8333 7.45058e-08 83.5667 7.45058e-08 77.7C7.45058e-08 69.0333 1.23333 60.8 3.7 53C4.3 51.0667 5.26667 49.6667 6.6 48.8C8 47.8667 9.93333 47.4 12.4 47.4C13.7333 47.4 14.6667 47.5667 15.2 47.9C15.7333 48.2333 16 48.8667 16 49.8C16 50.8667 15.5 53.2667 14.5 57C13.8333 59.6667 13.3 62 12.9 64C12.5 65.9333 12.1667 68.3667 11.9 71.3C13.7 66.1 15.8333 61.7 18.3 58.1C20.8333 54.5 23.4 51.8333 26 50.1C28.6667 48.3 31.1667 47.4 33.5 47.4C35.8333 47.4 37.4667 47.9333 38.4 49C39.4 50.0667 39.9 51.7 39.9 53.9C39.9 56.0333 39.2667 59.9 38 65.5C37.4667 67.9 37.1 69.7 36.9 70.9C40.2333 62.7 43.9333 56.7333 48 53C52.0667 49.2667 55.8667 47.4 59.4 47.4C63.7333 47.4 65.9 49.5667 65.9 53.9C65.9 56.5 65.1667 61.2 63.7 68C62.4333 73.8 61.8 77.6333 61.8 79.5C61.8 82.1667 62.7667 83.5 64.7 83.5C66.0333 83.5 67.6 82.7 69.4 81.1C71.2667 79.4333 73.7333 76.7667 76.8 73.1C77.6 72.1667 78.5 71.7 79.5 71.7C80.3667 71.7 81.0333 72.1 81.5 72.9C82.0333 73.7 82.3 74.8 82.3 76.2C82.3 78.8667 81.6667 80.9333 80.4 82.4C77.5333 85.9333 74.4333 88.8333 71.1 91.1C67.8333 93.3667 64.1 94.5 59.9 94.5C56.5 94.5 53.9333 93.5333 52.2 91.6C50.4667 89.6 49.6 86.7333 49.6 83C49.6 81.1333 50.0667 77.8 51 73C51.8667 68.8 52.3 65.9 52.3 64.3C52.3 63.2333 51.9333 62.7 51.2 62.7C50.3333 62.7 49.1 63.8333 47.5 66.1C45.9 68.3 44.3 71.2333 42.7 74.9C41.1 78.5667 39.8 82.4333 38.8 86.5C38.0667 89.7 37.2 91.8333 36.2 92.9C35.2667 93.9667 33.7333 94.5 31.6 94.5C29.4 94.5 27.7333 93.4667 26.6 91.4C25.5333 89.2667 25 86.7 25 83.7C25 81.1667 25.3333 77.5 26 72.7C26.5333 68.4333 26.8 65.6333 26.8 64.3C26.8 63.2333 26.4333 62.7 25.7 62.7C24.7 62.7 23.4333 63.9 21.9 66.3C20.3667 68.7 18.8667 71.7667 17.4 75.5C16 79.2333 14.8667 82.9 14 86.5C13.2667 89.6333 12.4 91.7667 11.4 92.9C10.4667 93.9667 8.96667 94.5 6.9 94.5ZM86.5141 94.5C82.3807 94.5 79.0807 93 76.6141 90C74.1474 87 72.9141 83.0667 72.9141 78.2C72.9141 72.8667 74.1474 67.8333 76.6141 63.1C79.0807 58.3 82.3474 54.4667 86.4141 51.6C90.5474 48.6667 94.9141 47.2 99.5141 47.2C100.981 47.2 101.947 47.5 102.414 48.1C102.947 48.6333 103.381 49.6333 103.714 51.1C105.114 50.8333 106.581 50.7 108.114 50.7C111.381 50.7 113.014 51.8667 113.014 54.2C113.014 55.6 112.514 58.9333 111.514 64.2C109.981 71.8667 109.214 77.2 109.214 80.2C109.214 81.2 109.447 82 109.914 82.6C110.447 83.2 111.114 83.5 111.914 83.5C113.181 83.5 114.714 82.7 116.514 81.1C118.314 79.4333 120.747 76.7667 123.814 73.1C124.614 72.1667 125.514 71.7 126.514 71.7C127.381 71.7 128.047 72.1 128.514 72.9C129.047 73.7 129.314 74.8 129.314 76.2C129.314 78.8667 128.681 80.9333 127.414 82.4C124.681 85.8 121.781 88.6667 118.714 91C115.647 93.3333 112.681 94.5 109.814 94.5C107.614 94.5 105.581 93.7667 103.714 92.3C101.914 90.7667 100.547 88.7 99.6141 86.1C96.1474 91.7 91.7807 94.5 86.5141 94.5ZM90.1141 84.4C91.5807 84.4 92.9807 83.5333 94.3141 81.8C95.6474 80.0667 96.6141 77.7667 97.2141 74.9L100.914 56.5C98.1141 56.5667 95.5141 57.6333 93.1141 59.7C90.7807 61.7 88.9141 64.3667 87.5141 67.7C86.1141 71.0333 85.4141 74.5667 85.4141 78.3C85.4141 80.3667 85.8141 81.9 86.6141 82.9C87.4807 83.9 88.6474 84.4 90.1141 84.4ZM172.387 71.9C173.253 71.9 173.92 72.3333 174.387 73.2C174.92 74 175.187 75.0333 175.187 76.3C175.187 77.8333 174.953 79.0333 174.487 79.9C174.02 80.7667 173.287 81.5333 172.287 82.2C166.553 86.0667 162.353 88.9333 159.687 90.8L153.287 95.1C150.753 108.9 147.42 119.733 143.287 127.6C139.22 135.533 134.02 139.5 127.687 139.5C124.287 139.5 121.52 138.433 119.387 136.3C117.253 134.233 116.187 131.5 116.187 128.1C116.187 123.367 118.053 118.267 121.787 112.8C125.52 107.4 132.52 100.733 142.787 92.8L143.387 88.9C142.253 90.7 140.753 92.1 138.887 93.1C137.087 94.0333 135.287 94.5 133.487 94.5C129.353 94.5 126.053 93 123.587 90C121.12 87 119.887 83.0667 119.887 78.2C119.887 72.8667 121.12 67.8333 123.587 63.1C126.053 58.3 129.32 54.4667 133.387 51.6C137.52 48.6667 141.887 47.2 146.487 47.2C147.953 47.2 148.92 47.5 149.387 48.1C149.92 48.6333 150.353 49.6333 150.687 51.1C151.953 50.8333 153.42 50.7 155.087 50.7C156.753 50.7 157.92 50.9667 158.587 51.5C159.32 51.9667 159.687 52.9333 159.687 54.4C159.687 55.2 159.653 55.8333 159.587 56.3C159.32 58.3667 158.487 63.6 157.087 72C156.82 73.6 156.52 75.3667 156.187 77.3C155.92 79.1667 155.62 81.1667 155.287 83.3C160.42 79.3 165.353 75.7667 170.087 72.7C170.953 72.1667 171.72 71.9 172.387 71.9ZM137.087 84.4C138.62 84.4 140.087 83.4667 141.487 81.6C142.887 79.7333 143.887 77.0667 144.487 73.6L147.687 56.5C144.953 56.5667 142.42 57.6333 140.087 59.7C137.753 61.7 135.887 64.3667 134.487 67.7C133.087 71.0333 132.387 74.5667 132.387 78.3C132.387 80.3667 132.787 81.9 133.587 82.9C134.453 83.9 135.62 84.4 137.087 84.4ZM128.787 129.8C130.453 129.8 132.32 127.8 134.387 123.8C136.52 119.8 138.553 113.433 140.487 104.7C135.353 109.1 131.653 113.067 129.387 116.6C127.12 120.133 125.987 123.233 125.987 125.9C125.987 127.033 126.187 127.967 126.587 128.7C127.053 129.433 127.787 129.8 128.787 129.8ZM213.638 71.7C214.505 71.7 215.172 72.1 215.638 72.9C216.172 73.7 216.438 74.8 216.438 76.2C216.438 78.8667 215.805 80.9333 214.538 82.4C212.072 85.4 208.572 88.1667 204.038 90.7C199.572 93.2333 194.772 94.5 189.638 94.5C182.638 94.5 177.205 92.6 173.338 88.8C169.472 85 167.538 79.8 167.538 73.2C167.538 68.6 168.505 64.3333 170.438 60.4C172.372 56.4 175.038 53.2333 178.438 50.9C181.905 48.5667 185.805 47.4 190.138 47.4C194.005 47.4 197.105 48.5667 199.438 50.9C201.772 53.1667 202.938 56.2667 202.938 60.2C202.938 64.8 201.272 68.7667 197.938 72.1C194.672 75.3667 189.105 77.9667 181.238 79.9C182.905 82.9667 186.072 84.5 190.738 84.5C193.738 84.5 197.138 83.4667 200.938 81.4C204.805 79.2667 208.138 76.5 210.938 73.1C211.738 72.1667 212.638 71.7 213.638 71.7ZM188.438 57.2C185.972 57.2 183.872 58.6333 182.138 61.5C180.472 64.3667 179.638 67.8333 179.638 71.9V72.1C183.572 71.1667 186.672 69.7667 188.938 67.9C191.205 66.0333 192.338 63.8667 192.338 61.4C192.338 60.1333 191.972 59.1333 191.238 58.4C190.572 57.6 189.638 57.2 188.438 57.2ZM266.096 71.7C266.963 71.7 267.629 72.1 268.096 72.9C268.629 73.7 268.896 74.8 268.896 76.2C268.896 78.8667 268.263 80.9333 266.996 82.4C263.996 86.0667 260.963 89 257.896 91.2C254.829 93.4 251.196 94.5 246.996 94.5C241.863 94.5 237.729 93.0333 234.596 90.1C231.463 87.1667 229.896 83.2667 229.896 78.4C229.896 75.8 231.229 73.9333 233.896 72.8C236.829 71.5333 238.929 70.2 240.196 68.8C241.463 67.3333 242.096 65.5667 242.096 63.5C242.096 62.3 241.829 61.4 241.296 60.8C240.829 60.2 240.229 59.9 239.496 59.9C237.696 59.9 235.696 61.2 233.496 63.8C231.363 66.4 229.363 69.7667 227.496 73.9C225.629 77.9667 224.163 82.1667 223.096 86.5C222.363 89.6333 221.496 91.7667 220.496 92.9C219.563 93.9667 218.063 94.5 215.996 94.5C213.929 94.5 212.396 93.7667 211.396 92.3C210.463 90.7667 209.829 88.4333 209.496 85.3C209.163 82.1667 208.996 77.5667 208.996 71.5C208.996 61.2333 210.029 50.5333 212.096 39.4C214.229 28.2667 217.329 18.9333 221.396 11.4C225.529 3.8 230.463 -5.72205e-06 236.196 -5.72205e-06C239.263 -5.72205e-06 241.729 1.33333 243.596 4C245.529 6.59999 246.496 9.99999 246.496 14.2C246.496 20.9333 244.529 27.9333 240.596 35.2C236.663 42.4 230.263 50.8333 221.396 60.5C221.196 63.9667 221.096 67.5333 221.096 71.2C224.296 62.8667 227.963 56.8333 232.096 53.1C236.229 49.3 240.096 47.4 243.696 47.4C247.029 47.4 249.696 48.5333 251.696 50.8C253.763 53.0667 254.796 55.8667 254.796 59.2C254.796 62.8667 253.863 66.2333 251.996 69.3C250.129 72.3667 246.929 75.1 242.396 77.5C242.663 79.3 243.463 80.7667 244.796 81.9C246.196 82.9667 247.863 83.5 249.796 83.5C251.863 83.5 253.863 82.7 255.796 81.1C257.729 79.5 260.263 76.8333 263.396 73.1C264.196 72.1667 265.096 71.7 266.096 71.7ZM234.096 9.9C232.896 9.9 231.563 11.6333 230.096 15.1C228.629 18.5 227.196 23.1333 225.796 29C224.463 34.8 223.363 41.1333 222.496 48C226.629 43.1333 230.029 37.8333 232.696 32.1C235.429 26.3667 236.796 21.1667 236.796 16.5C236.796 14.3667 236.563 12.7333 236.096 11.6C235.629 10.4667 234.963 9.9 234.096 9.9ZM273.935 40.8C271.135 40.8 269.035 40.1667 267.635 38.9C266.235 37.5667 265.535 35.7333 265.535 33.4C265.535 31.0667 266.435 29.1333 268.235 27.6C270.102 26 272.402 25.2 275.135 25.2C277.602 25.2 279.602 25.8 281.135 27C282.668 28.2 283.435 29.9 283.435 32.1C283.435 34.7667 282.568 36.9 280.835 38.5C279.102 40.0333 276.802 40.8 273.935 40.8ZM273.135 94.5C268.802 94.5 265.635 92.9667 263.635 89.9C261.702 86.8333 260.735 82.7667 260.735 77.7C260.735 74.7 261.102 70.8667 261.835 66.2C262.635 61.4667 263.635 57.0667 264.835 53C265.435 50.8667 266.235 49.4 267.235 48.6C268.235 47.8 269.835 47.4 272.035 47.4C275.435 47.4 277.135 48.5333 277.135 50.8C277.135 52.4667 276.502 56.3333 275.235 62.4C273.635 69.7333 272.835 74.7 272.835 77.3C272.835 79.3 273.102 80.8333 273.635 81.9C274.168 82.9667 275.068 83.5 276.335 83.5C277.535 83.5 279.035 82.6667 280.835 81C282.635 79.3333 285.035 76.7 288.035 73.1C288.835 72.1667 289.735 71.7 290.735 71.7C291.602 71.7 292.268 72.1 292.735 72.9C293.268 73.7 293.535 74.8 293.535 76.2C293.535 78.8667 292.902 80.9333 291.635 82.4C285.035 90.4667 278.868 94.5 273.135 94.5ZM301.945 56.9C301.811 60.2333 301.745 62.8333 301.745 64.7C301.745 69.5 301.978 73.2667 302.445 76C302.978 78.6667 303.811 80.6 304.945 81.8C306.145 82.9333 307.778 83.5 309.845 83.5C310.911 83.5 312.178 83.1667 313.645 82.5C315.111 81.8333 316.445 80.9667 317.645 79.9C318.378 79.2333 319.111 78.9 319.845 78.9C320.645 78.9 321.278 79.3667 321.745 80.3C322.278 81.1667 322.545 82.2333 322.545 83.5C322.545 84.7667 322.278 86 321.745 87.2C321.278 88.4 320.545 89.4 319.545 90.2C316.078 93.0667 312.145 94.5 307.745 94.5C301.411 94.5 296.778 91.8667 293.845 86.6C290.911 81.2667 289.445 74.3333 289.445 65.8C289.445 62.8667 289.545 59.9 289.745 56.9H285.845C283.845 56.9 282.478 56.5333 281.745 55.8C281.078 55.0667 280.745 53.9 280.745 52.3C280.745 48.5667 282.245 46.7 285.245 46.7H290.945C292.078 39.3667 293.811 32.6667 296.145 26.6C298.478 20.5333 301.278 15.7 304.545 12.1C307.878 8.5 311.445 6.7 315.245 6.7C318.045 6.7 320.245 7.93333 321.845 10.4C323.445 12.8667 324.245 15.9667 324.245 19.7C324.245 30.0333 319.911 39.0333 311.245 46.7H322.445C323.511 46.7 324.278 46.9333 324.745 47.4C325.211 47.8667 325.445 48.7333 325.445 50C325.445 54.6 321.678 56.9 314.145 56.9H301.945ZM312.545 16.3C311.545 16.3 310.411 17.5667 309.145 20.1C307.945 22.5667 306.778 26.0333 305.645 30.5C304.578 34.9 303.678 39.8 302.945 45.2C306.878 41.8 309.811 38 311.745 33.8C313.745 29.5333 314.745 25.6667 314.745 22.2C314.745 18.2667 314.011 16.3 312.545 16.3Z" fill="white"/>
</svg>
