<svg width="435" height="434" viewBox="0 0 435 434" fill="none" xmlns="http://www.w3.org/2000/svg">
<g clip-path="url(#clip0_48_4018)">
<path d="M208.369 385.63C313.365 385.63 398.482 300.63 398.482 195.777C398.482 90.9241 313.365 5.92407 208.369 5.92407C103.373 5.92407 18.2568 90.9241 18.2568 195.777C18.2568 300.63 103.373 385.63 208.369 385.63Z" fill="#B2D2FB"/>
<path d="M434.998 218.115V221.055C433.594 221.485 433.899 222.612 433.793 223.676C433.226 229.494 431.487 238.958 427.933 243.688C425.303 247.189 422.587 248.828 421.027 243.533C418.766 235.868 422.998 228.87 423.739 221.273C424.083 217.728 422.499 205.822 428.742 206.503C430.228 206.668 433.332 210.121 433.681 211.494C434.238 213.666 432.964 216.495 434.998 218.115Z" fill="#0030FF"/>
<path d="M118.266 47.0353C118.668 49.3663 115.952 50.0772 115.186 51.9052C112.722 57.7907 113.356 55.3388 109.453 59.6864C104.533 65.1705 102.29 73.0097 95.6997 76.5255C91.1234 78.9628 89.1282 78.7984 84.702 82.5947C66.0336 98.6068 61.128 121.109 54.1304 143.616C53.1328 144.854 51.3023 144.747 50.1207 143.891C49.22 143.563 49.6752 135.854 47.6122 137.851C45.9125 139.5 43.5638 157.887 40.5759 160.813L38.8713 161.001C38.6388 160.242 38.0286 159.613 37.801 158.859C35.8543 152.374 42.9923 129.05 46.0481 122.178C50.0335 113.207 66.4017 85.3561 73.2492 79.3836C76.7891 76.2933 82.9054 74.1365 85.6076 71.7378C88.1984 69.4407 88.6343 65.3542 92.4067 62.6557C94.0241 61.4951 96.2178 61.1034 97.6997 59.7106C99.3607 58.1437 99.9031 55.5419 101.826 53.8396C102.683 53.0804 114.479 47.5431 115.782 47.1998C116.615 46.9821 117.424 46.9773 118.266 47.045V47.0353Z" fill="#0030FF"/>
<path d="M38.0528 218.279C40.2465 220.441 40.0721 230.248 40.6194 233.634C42.3191 244.128 45.031 252.784 48.5177 262.785C51.0165 269.952 57.6219 283.116 58.663 289.683C59.7526 296.546 54.8664 297.726 51.8155 291.826C50.7017 289.674 50.1594 286.835 49.0843 284.557C43.4814 272.67 32.5999 252.388 31.6992 239.596C31.5491 237.473 31.3554 227.497 31.8203 226.143C32.3433 224.619 34.9825 224.885 35.6024 224.01C35.8203 221.635 34.3239 219.425 36.721 217.563C37.0939 217.892 37.7283 217.96 38.0479 218.274L38.0528 218.279Z" fill="#0030FF"/>
<path d="M50.9784 219.701C46.2423 225.045 40.6878 218.158 41.2011 212.602C41.3609 210.861 42.2665 209.231 42.3536 207.253C42.4795 204.463 40.6248 196.28 44.4989 195.255C48.0486 194.317 48.5328 204.288 49.1914 206.262C49.85 208.235 51.3755 209.163 52.0631 211.62C52.775 214.168 52.8331 217.607 50.9784 219.696V219.701Z" fill="#0030FF"/>
<path d="M43.341 174.706C48.8422 173.086 52.2805 183.876 46.663 186.245C40.5613 186.439 37.9366 176.298 43.341 174.706Z" fill="#0030FF"/>
<path d="M404.574 59.2704C408.056 50.3383 413.571 30.2494 414.39 20.8675C414.787 16.3071 413.523 12.5882 411.426 8.67101C411.218 8.27929 410.38 8.29379 410.283 7.8247C409.988 6.40774 410.661 5.50824 409.717 3.79145C408.995 2.48088 406.942 1.24286 405.416 1.87638C401.842 3.82047 397.925 4.92308 394.254 6.63504C392.37 7.51519 388.147 10.707 386.883 11.031C384.661 11.6065 381.823 11.3018 379.087 12.0659C367.697 15.2674 357.019 21.6316 348.452 29.6836C343.774 34.0747 340.404 39.6023 335.3 43.4566C328.738 38.5674 323.019 32.3676 316.273 27.7298C300.941 17.1921 290.379 16.1669 273.566 11.002C261.178 7.19118 252.539 3.4094 239.105 1.32024C236.781 0.96237 232.965 1.68294 231.304 0H208.345C207.933 1.33958 206.824 1.14614 205.73 1.21384C192.979 1.98277 178.384 4.10095 166.088 7.47651C139.652 14.7306 115.381 22.3425 93.8552 39.994C67.1093 61.9302 46.5572 78.924 32.7992 111.886C22.1551 137.382 11.4674 175.161 13.4868 202.528C16.8088 247.513 30.2036 297.208 64.6929 328.357C67.7147 331.089 79.8164 341.395 82.7462 342.657C85.4968 343.842 91.555 343.735 89.7196 339.818L64.3974 315.716C52.993 302.494 45.6758 288.556 39.5838 272.298C30.7701 248.785 25.9275 224.793 24.6442 199.622C23.1139 169.58 38.7992 120.277 55.395 95.0619C67.4725 76.714 87.3516 60.9147 104.451 47.0449C122.335 32.5465 146.224 24.7363 168.185 18.9814C196.679 11.5146 228.805 8.14871 257.338 17.2163C266.539 20.1372 275.081 22.7825 284.413 25.4472C299.469 29.7464 310.612 37.634 321.958 47.9202C325.992 51.5763 329.711 50.7348 325.74 56.3881C320.961 63.1924 314.738 69.0924 309.624 75.563C301.614 85.6993 294.539 96.5997 285.953 106.301C283.634 107.65 281.391 103.225 280.186 101.987C264.311 85.7477 254.534 91.9378 239.541 104.932C229.987 113.212 218.544 123.822 210.098 133.146C208.524 134.882 207.062 136.69 205.648 138.523C202.534 142.557 199.638 146.72 196.287 150.512C191.289 156.16 183.154 162.549 178.911 168.439C176.916 171.21 176.408 172.811 178.911 175.495C181.594 177.158 186.117 170.364 188.035 168.734C198.916 159.463 221.091 148.05 234.214 140.772C236.427 139.544 239.687 139.723 240.655 136.599L239.749 135.298C238.471 134.901 234.582 135.757 233.188 136.217C227.929 137.948 220.171 144.66 214.287 147.325C213.386 147.731 212.853 147.881 213.062 146.691C219.192 142.029 225.057 136.985 231.59 132.855C234.873 130.776 240.214 126.336 243.89 128.242C245.503 129.079 257.057 144.549 257.212 146.13C257.406 148.05 250.481 156.673 249.067 159.13C247.58 161.727 244.486 167.496 244.297 170.286C244.113 173.033 245.27 174.416 246.713 176.568C251.919 184.35 272.055 201.532 280.762 204.878C285.692 206.774 288.859 205.57 288.713 199.897L301.532 186.207C302.68 185.776 313.324 189.21 314.297 190.206C315.009 190.941 315.29 192.189 315.435 193.18C316.239 198.596 315.76 202.407 314.007 207.519C308.641 223.168 302.031 238.528 295.483 253.693C292.912 259.651 289.348 265.227 287.314 271.461C287.072 273.139 289.672 275.567 291.517 275.059C293.542 274.498 296.999 265.9 298.316 263.573C305.992 250.008 315.721 237.846 324.583 225.132C334.907 210.324 355.731 185.694 346.806 166.558C343.711 159.928 336.389 155.918 329.619 154.023C328.84 152.94 338.268 143.577 339.614 141.967C346.05 134.263 351.571 125.722 358.167 118.164C359.828 116.253 365.402 109.85 366.995 108.758C367.494 108.414 367.576 107.935 368.467 108.177C371 115.523 375.247 122.197 378.176 129.349C383.121 141.401 390.985 161.262 392.569 173.773C396.39 203.984 388.327 239.582 377.314 267.805C372.874 279.194 365.14 289.504 358.956 300.027C350.636 314.173 349.077 319.792 335.784 330.973C315.183 348.306 284.408 370.029 257.362 374.357C235.067 377.921 212.912 385.669 189.885 384.29C186.316 384.078 181.25 382.714 177.439 382.728C172.35 382.748 165.764 384.697 160.95 384.532C157.822 384.421 150.514 382.641 147.1 381.868C142.945 380.925 134.993 375.9 133.579 382.724C140.238 383.908 145.294 388.058 152.035 389.871C158.674 391.661 162.911 390.882 169.134 391.612C193.861 394.514 208.592 398.779 234.403 393.174C260.747 387.448 290.636 380.151 313.082 364.743C326.055 355.84 344.903 340.969 355.832 329.832C363.334 322.186 367.687 311.078 373.082 301.788C380.559 288.934 387.3 279.542 392.293 265.121C396.69 252.426 403.993 230.147 404.966 217.225C406.448 197.644 407.295 175.872 401.247 156.876C396.351 141.522 388.879 123.711 381.934 109.14C380.046 105.179 377.605 101.344 376.109 97.3203C382.215 89.5295 388.666 82.0046 394.98 74.3878C400.031 68.2993 401.503 67.1435 404.574 59.2704ZM249.275 124.625C247.517 123.15 245.798 121.636 243.372 121.641C239.076 121.641 227.115 130.346 223.11 133.209C221.749 134.181 213.139 141.792 211.037 141.792C210.892 141.792 210.781 141.754 210.703 141.681C210.631 141.362 210.65 141.115 210.728 140.903C210.742 140.864 210.761 140.825 210.781 140.787C211.013 140.337 211.517 140.061 211.875 139.626C219.473 130.462 242.796 108.114 252.583 102.084C261.779 96.4111 265.798 97.7024 273.449 104.323C274.457 105.193 275.149 106.489 276.016 107.312C277.614 108.83 281.44 110.155 280.646 112.438L262.796 140.511C261.503 140.816 258.728 135.53 257.783 134.35C255.585 131.593 251.817 126.752 249.275 124.625ZM336.874 164.13C345.091 169.392 344.617 175.209 342.999 184.146C341.794 190.835 338.641 195.932 335.164 201.604C328.297 212.81 319.338 222.719 312.539 233.982C311.445 234.117 312.079 232.787 312.22 232.197C315.488 218.647 326.912 202.741 321.813 188.581C319.818 183.039 312.365 182.014 307.527 180.495C306.888 180.297 306.471 180.911 306.651 179.601C311.556 173.614 316.331 167.273 321.663 161.669C322.694 160.585 324.137 158.602 325.648 158.815C326.66 158.96 335.566 163.293 336.874 164.13ZM368.82 87.6482C362.825 95.1296 356.651 104.013 350.021 110.914C349.556 111.398 348.51 111.925 347.876 112.293C347.561 111.901 350.782 106.63 347.285 104.942C340.777 101.798 334.268 117.869 342.84 116.408C344.418 116.142 344.874 114.227 346.128 114.227C346.297 114.227 346.486 114.261 346.69 114.343L283.687 196.686C282.316 197.358 274.413 191.671 272.825 190.467C264.825 184.398 256.742 176.491 250.19 169.111C252.428 165.18 255.691 162.321 258.374 159.018C265.788 149.869 272.064 141.57 279.101 132.096C287.057 121.38 295.919 112.051 303.948 101.649C315.571 86.5988 326.627 71.2299 339.058 56.7508C355.285 37.8468 373.276 21.9459 397.876 14.953C401.678 15.0062 406.942 11.2728 407.305 17.4194C407.823 26.1484 401.552 39.7619 397.542 47.5479C389.808 62.5783 379.295 74.5813 368.82 87.6482Z" fill="#0030FF"/>
<path d="M342.999 184.147C341.793 190.835 338.641 195.932 335.164 201.605C328.297 212.81 319.338 222.719 312.539 233.982C311.444 234.117 312.079 232.787 312.219 232.197C315.488 218.647 326.912 202.741 321.813 188.581C319.817 183.039 312.365 182.014 307.527 180.495C306.887 180.297 306.471 180.911 306.65 179.601C311.556 173.614 316.331 167.274 321.662 161.669C322.694 160.585 324.137 158.603 325.648 158.815C326.66 158.96 335.566 163.294 336.873 164.13C345.091 169.392 344.617 175.21 342.999 184.147Z" fill="#0030FF"/>
<path d="M280.646 112.438L262.796 140.511C261.503 140.816 258.728 135.53 257.784 134.35C255.585 131.593 251.818 126.752 249.275 124.625C247.517 123.15 245.798 121.636 243.372 121.641C239.077 121.641 227.115 130.346 223.11 133.209C221.75 134.181 213.139 141.793 211.038 141.793C210.892 141.793 210.781 141.754 210.704 141.681C210.631 141.362 210.65 141.115 210.728 140.903C210.742 140.864 210.762 140.825 210.781 140.787C211.013 140.337 211.517 140.061 211.875 139.626C219.474 130.462 242.796 108.114 252.583 102.084C261.779 96.4112 265.798 97.7024 273.45 104.323C274.457 105.193 275.149 106.49 276.016 107.312C277.614 108.83 281.44 110.155 280.646 112.438Z" fill="#0030FF"/>
<path d="M407.305 17.4194C406.942 11.2728 401.678 15.0063 397.876 14.9531C373.276 21.946 355.285 37.8468 339.058 56.7509C326.627 71.23 315.571 86.5989 303.949 101.649C295.92 112.051 287.057 121.38 279.101 132.096C272.065 141.57 265.789 149.869 258.374 159.018C255.692 162.321 252.428 165.18 250.19 169.111C256.743 176.491 264.825 184.398 272.825 190.467C274.413 191.671 282.317 197.359 283.687 196.686L346.69 114.343C346.486 114.261 346.297 114.227 346.128 114.227C344.874 114.227 344.419 116.142 342.84 116.408C334.268 117.869 340.777 101.799 347.285 104.942C350.782 106.63 347.561 111.901 347.876 112.293C348.511 111.925 349.557 111.398 350.021 110.914C356.651 104.013 362.825 95.1296 368.821 87.6483C379.295 74.5813 389.809 62.5783 397.542 47.5479C401.552 39.7619 407.823 26.1485 407.305 17.4194ZM336.414 125.253C331.523 132.125 326.046 138.591 320.544 144.97C311.905 154.98 299.493 170.33 289.9 178.74C288.762 179.736 283.251 184.775 281.939 183.426C281.542 181.071 283.053 179.117 284.297 177.26C291.823 166.04 304.389 153.162 313.372 142.803C317.881 137.609 326.312 126.022 331.077 122.269C334.869 119.29 337.435 120.171 336.414 125.253ZM377.605 73.4932C365.097 87.7789 344.481 71.0897 352.351 55.9191C354.656 51.4699 362.099 44.6511 367.174 44.2111C369.847 43.9838 376.535 46.5807 378.777 48.2105C387.872 54.831 383.828 66.3891 377.605 73.4932Z" fill="#B2D2FB"/>
<path d="M384.365 173.43L387.363 204.298C386.845 221.34 379.014 237.396 375.237 253.379C372.859 263.443 372.273 267.017 366.016 275.92C365.542 276.597 363.15 280.408 362.002 279.252L369.629 258.965C368.448 257.514 366.767 258.505 365.193 257.543C360.946 254.931 367.3 248.591 368.757 245.738C371.058 241.236 372.089 236.08 373.75 231.336C372.903 230.277 372.835 230.345 371.992 231.336C370.791 232.753 368.893 240.041 365.803 236.941C364.966 235.79 364.883 234.47 364.883 233.106C364.883 230.601 365.169 224.363 365.663 222.075C366.52 218.086 369.581 213.762 370.656 210.014C371.484 207.127 371.019 204.579 371.479 202.02C372.293 197.479 373.673 193.093 374.477 188.552C379.198 183.963 377.15 190.689 378.162 192.266C378.743 193.03 379.431 193.098 379.963 192.266C381.881 189.282 374.481 173.807 384.36 173.435L384.365 173.43ZM378.477 219.29C378.966 218.946 380.075 209.366 377.9 208.709C378.196 212.539 372.293 218.414 378.477 219.29Z" fill="#0030FF"/>
<path d="M207.319 369.937C212.81 368.96 218.21 367.568 223.532 365.851C226.588 364.864 228.81 363.109 232.365 362.325C239.057 360.85 246.612 362.495 253.92 360.918C256.665 360.328 263.435 356.372 264.602 356.261C267.169 356.014 269.261 358.297 269.532 360.749C270.152 366.451 266.07 369.13 260.966 369.72C250.888 370.885 239.532 369.986 229.871 371.591C227.237 372.031 223.29 373.845 220.273 374.353C216.321 375.015 204.98 376.592 207.324 369.937H207.319Z" fill="#0030FF"/>
<path d="M331.183 298.277C332.249 299.268 335.367 304.075 335.498 305.478C336.326 314.313 326.466 318.83 319.004 316.61C306.399 312.867 321.261 289.064 331.183 298.277Z" fill="#0030FF"/>
<path d="M248.384 216.939C249.783 220.33 250.883 223.753 250.728 227.521C249.256 229.049 243.943 221.287 243.183 220.073C241.459 217.312 235.042 204.085 235.677 201.643C237.41 194.965 242.791 208.65 244.839 209.303C244.398 205.908 239.667 196.198 240.999 193.441C241.231 192.958 241.808 192.556 242.297 192.314C243.87 191.903 245.536 195.139 246.253 196.43C247.628 198.911 248.272 201.948 249.449 204.409C250.626 206.871 255.101 214.338 255.425 216.093C255.725 217.742 255.57 219.628 253.89 220.388L248.389 216.944L248.384 216.939Z" fill="#0030FF"/>
<path d="M296.515 325.218C302.53 324.435 309.343 332.264 303.445 338.068C297.14 344.263 286.714 336.317 291.677 328.671C292.612 327.23 294.777 325.45 296.515 325.223V325.218Z" fill="#0030FF"/>
<path d="M340.016 145.922C342.186 145.743 347.125 148.877 348.375 150.884C349.513 152.712 353.058 162.404 353.14 164.406C353.169 165.063 353.256 165.682 352.617 166.118C347.939 169.295 344.714 155.909 343.077 153.824C341.44 151.74 335.905 150.86 337.552 147.562C337.842 146.986 339.368 145.976 340.016 145.922Z" fill="#0030FF"/>
<path d="M245.856 181.748C250.394 180.481 250.815 188.765 246.224 189.771C241.6 189.48 242.389 182.715 245.856 181.748Z" fill="#0030FF"/>
<path d="M378.777 48.2104C376.535 46.5807 369.848 43.9837 367.174 44.211C362.099 44.6511 354.656 51.4699 352.351 55.919C344.482 71.0897 365.097 87.7788 377.605 73.4932C383.828 66.389 387.872 54.8309 378.777 48.2104ZM369.649 70.2434C369.213 75.1616 359.01 70.7366 357.557 65.8716C356.608 62.675 358.521 55.0195 361.823 54.1539C363.513 53.709 367.751 58.8738 368.201 60.5326C368.467 61.5143 369.712 69.5711 369.649 70.2434ZM376.463 62.3558C376.201 63.4246 375.775 64.9092 374.366 64.6674C374.516 62.2494 374.303 59.9136 373.465 57.631C372.603 55.2952 370.908 54.4731 370.245 52.3259C375.872 52.4371 377.673 57.3553 376.463 62.3558Z" fill="#0030FF"/>
<path d="M369.649 70.2432C369.213 75.1615 359.01 70.7365 357.557 65.8715C356.608 62.6749 358.52 55.0194 361.823 54.1538C363.513 53.7089 367.751 58.8737 368.201 60.5325C368.467 61.5142 369.712 69.571 369.649 70.2432Z" fill="#B2D2FB"/>
<path d="M336.414 125.253C331.523 132.125 326.045 138.591 320.544 144.97C311.905 154.98 299.493 170.33 289.9 178.74C288.762 179.736 283.251 184.775 281.939 183.426C281.542 181.071 283.053 179.117 284.297 177.26C291.823 166.04 304.389 153.162 313.372 142.803C317.881 137.609 326.312 126.022 331.077 122.269C334.869 119.29 337.435 120.171 336.414 125.253Z" fill="#0030FF"/>
<path d="M203.25 258.297C197.182 265.145 192.432 273.081 186.262 279.861C185.235 282.047 187.657 284.281 188.935 286.003C192.519 290.839 196.286 295.54 199.846 300.385C200.955 301.894 202.906 303.079 203.884 304.583C205.536 307.117 204.02 307.31 201.846 306.029C198.18 303.872 190.378 298.62 187.419 295.743C185.865 294.229 181.623 287.778 180.678 287.173C179.042 286.124 176.155 289.17 176.654 291.158C176.974 292.425 182.286 299.152 183.507 301.41C184.62 303.471 185.124 306.063 186.228 308.099C187.119 309.738 190.979 312.635 187.134 312.485C183.1 308.698 178.204 306.348 174.165 302.508C173.337 301.72 170.131 296.632 168.906 297.488C168.862 298.194 168.523 298.76 168.049 299.263C129.003 340.253 96.1017 386.916 51.438 422.698C44.6292 428.148 32.2369 432.83 23.801 433.898C16.14 434.87 4.84207 428.946 1.99944 421.533C-3.2064 407.953 2.81785 389.209 7.89778 376.272C9.99949 370.924 13.3797 362.335 16.3046 357.624C19.8107 351.986 25.8543 345.931 30.3822 341.071C37.9512 342.435 31.4669 347.57 29.4863 350.801C20.8083 364.966 9.24888 394.789 10.5419 411.237C11.2344 420.043 14.7356 423.264 23.8059 422.727C38.8035 421.837 56.392 402.933 67.0458 393.01C87.9466 373.545 107.351 351.845 125.908 330.098C133.782 320.871 141.056 310.517 149.172 301.589C152.814 297.585 158.814 293.151 161.831 288.958C162.456 288.092 163.167 287.367 162.911 286.162C162.47 284.112 153.439 273.835 159.807 272.786C163.778 272.133 166.969 277.811 169.211 280.432C169.807 280.582 173.061 277.448 173.322 276.887C174.31 274.754 172.494 273.671 171.826 271.925C169.87 266.804 167.134 259.574 166.528 254.288C166.417 253.316 166.494 248.732 168.315 249.549C170.097 251.851 177.448 270.45 179.201 270.426C184.373 264.744 188.31 258.012 193.323 252.204C199.221 245.375 207.807 236.463 214.509 230.442C217.473 227.782 225.884 219.299 229.565 224.252C231.72 227.158 230.069 230.456 228.257 233C222.461 241.144 210.281 250.356 203.25 258.292V258.297Z" fill="#0030FF"/>
<path d="M67.4376 417.209C71.8783 412.542 77.2876 406.875 81.1665 401.816C83.6411 398.586 86.9244 391.52 89.0407 389.402C92.0625 386.375 94.9051 389.591 94.0092 393.484C93.8107 394.349 91.1714 398.808 90.4886 399.959C86.4111 406.797 69.8396 425.522 63.0841 429.033C61.3843 429.918 58.8419 430.228 57.0986 431.287C55.1664 432.457 54.7596 435.291 52.9727 432.327L53.1906 431.543C57.2729 426.209 62.8129 422.074 67.4376 417.214V417.209Z" fill="#0030FF"/>
</g>
<defs>
<clipPath id="clip0_48_4018">
<rect width="435" height="434" fill="white"/>
</clipPath>
</defs>
</svg>
