<svg width="566" height="418" viewBox="0 0 566 418" fill="none" xmlns="http://www.w3.org/2000/svg">
<g clip-path="url(#clip0_48_4085)">
<path d="M441.506 204.976C439.294 196.103 435.022 187.35 428.279 181.047C424.344 177.37 419.809 174.721 414.756 172.892C409.187 170.877 403.224 170.011 397.373 169.252C386.113 167.788 374.646 168.006 363.497 170.257C353.456 172.285 343.647 176.217 335.227 182.098C327.154 187.739 320.116 194.922 315.211 203.526C309.697 213.196 307.314 224.269 307.475 235.355C307.646 247.003 310.334 258.525 313.747 269.602C314.546 272.2 315.391 274.789 316.26 277.364C316.698 278.665 317.525 279.985 318.781 280.652C320.047 281.323 321.603 281.675 323.007 281.208C323.626 280.999 324.259 280.851 324.901 280.726C325.718 280.666 326.536 280.67 327.358 280.74C328.392 280.93 329.408 281.217 330.397 281.583C331.542 282.12 332.632 282.764 333.662 283.505C334.641 284.32 335.542 285.218 336.359 286.195C337.264 287.464 338.026 288.826 338.664 290.243C339.43 292.253 339.961 294.337 340.303 296.462C340.548 298.565 340.636 300.686 340.576 302.802C340.516 304.919 340.211 307.021 340.169 309.138C340.178 309.063 340.188 308.985 340.202 308.911C340.151 309.434 340.137 309.957 340.16 310.485C340.035 310.527 339.906 310.573 339.786 310.624C338.858 311.018 337.957 311.689 337.472 312.611C336.83 313.829 336.761 314.996 336.982 316.348C337.361 318.636 338.119 320.794 338.839 322.994C339.564 325.221 340.345 327.43 341.111 329.644L343.365 336.178C344.095 338.29 344.778 340.55 346.095 342.379C347.12 343.801 348.187 344.945 349.692 345.88C350.408 346.325 351.23 346.645 352.011 346.941C352.431 347.098 352.865 347.223 353.309 347.307C356.07 347.816 358.86 347.663 361.52 346.705C363.862 345.862 366.069 344.704 368.245 343.514C370.397 342.333 372.466 340.981 374.276 339.309C376.105 337.619 377.689 335.637 379.343 333.775C381.305 331.561 383.3 329.398 385.019 326.986C385.476 326.342 385.711 325.342 385.725 324.406C387.277 322.943 388.81 321.456 390.316 319.942C395.53 314.699 400.435 309.161 405.026 303.363C405.053 303.33 405.076 303.298 405.104 303.265C405.552 303.265 405.995 303.201 406.43 303.062C407.769 302.626 409.039 301.802 409.722 300.524C411.833 296.583 413.939 292.642 416.04 288.701C418.424 286.098 420.668 283.366 422.793 280.531C426.931 275.011 430.459 269.046 433.23 262.725C434.944 258.821 436.357 254.806 437.534 250.707C437.761 249.92 437.756 249.026 437.553 248.193C439.474 244.261 441.151 240.195 442.097 235.92C444.328 225.848 443.996 214.979 441.506 204.98V204.976Z" fill="#FACDB6"/>
<path d="M283.714 288.353C283.367 287.279 282.772 286.348 281.926 285.565C280.85 284.491 279.576 283.75 278.112 283.338C277.317 283.106 276.537 282.828 275.765 282.532C273.304 281.37 270.999 279.92 268.81 278.299C267.965 277.623 267.134 276.928 266.316 276.22C266.552 276.174 266.787 276.113 267.027 276.039C268.297 275.683 269.41 275.057 270.376 274.178C270.745 273.937 271.124 273.71 271.512 273.506C271.794 273.413 272.08 273.325 272.366 273.251C273.747 272.862 274.948 272.163 275.969 271.149C276.763 270.408 277.326 269.528 277.654 268.514C278.167 267.537 278.398 266.485 278.356 265.36C278.352 263.883 277.982 262.507 277.243 261.229C272.814 252.926 268.381 244.622 263.952 236.323C259.712 228.376 255.38 220.466 251.334 212.413C249.279 208.324 247.321 204.188 245.519 199.983C242.845 193.491 240.578 186.803 239.165 179.912C238.827 178.277 238.541 176.629 238.296 174.98C238.084 173.211 237.931 171.433 237.853 169.65C237.807 168.622 237.747 167.594 237.724 166.566C237.71 166.051 237.705 165.537 237.705 165.019C237.705 164.745 237.705 164.468 237.71 164.194C237.714 163.963 237.71 163.736 237.696 163.504C237.664 162.078 237.677 160.652 237.742 159.23C237.779 158.211 237.567 157.262 237.105 156.377C236.809 155.46 236.296 154.668 235.581 153.997C235.082 153.612 234.583 153.223 234.089 152.839C233.244 152.297 232.329 152.005 231.346 151.959C231.087 151.89 230.828 151.853 230.565 151.839C230.366 151.061 230.062 150.315 229.646 149.597C229.323 148.879 229.013 148.152 228.699 147.43C226.736 142.618 225.06 137.691 223.688 132.675C223.393 131.976 223.097 131.277 222.806 130.577C222.617 130.23 222.4 129.915 222.164 129.61C221.989 129.128 221.772 128.651 221.504 128.192C220.723 126.873 219.675 125.821 218.359 125.039C215.648 123.446 212.221 123.46 209.51 125.039C208.327 125.729 207.177 126.562 206.161 127.521C197.871 128.947 189.729 131.041 181.776 133.884C170.969 137.751 160.513 142.674 150.625 148.504C140.617 154.404 131.205 161.263 122.236 168.64C113.641 175.712 105.54 183.367 97.8227 191.388C90.0869 199.428 82.739 207.828 75.622 216.419C74.7445 217.479 73.8716 218.54 72.9988 219.605C72.56 220.013 72.1905 220.462 71.8811 220.948C71.7656 221.004 71.6456 221.059 71.5301 221.119C70.454 221.471 69.5211 222.073 68.736 222.921C68.2834 223.509 67.8308 224.097 67.3782 224.685C66.7454 225.686 66.3991 226.765 66.3483 227.923C66.1404 228.696 66.1404 229.465 66.3483 230.238C66.3991 231.396 66.7454 232.475 67.3782 233.475L68.736 235.24C69.8213 236.319 71.096 237.064 72.5693 237.481C78.236 239.667 84.1014 241.32 90.073 242.441C90.7057 242.561 91.3431 242.668 91.9804 242.779C92.3037 242.909 92.6316 243.024 92.9826 243.108C93.9017 243.316 94.9085 243.432 95.9061 243.39C100.608 244.053 105.351 244.46 110.089 244.557C116.116 244.682 122.148 244.326 128.124 243.534C134.825 242.649 141.434 241.431 147.946 239.588C154.167 237.828 160.185 235.541 166.134 233.012C169.103 231.752 172.027 230.386 174.909 228.941C175.126 229.622 175.352 230.303 175.606 230.97C175.652 231.174 175.698 231.377 175.763 231.581C177.707 238.254 180.215 244.784 183.083 251.11C183.919 253.088 184.921 255.01 185.924 256.899C186.81 258.58 187.734 260.238 188.695 261.877C190.634 265.179 192.722 268.393 194.948 271.505C199.806 278.285 205.205 284.681 211.228 290.451C213.99 293.1 216.876 295.615 219.873 297.991C223.577 300.927 227.355 303.849 231.438 306.252C233.853 307.674 236.389 308.818 238.994 309.851C240.707 310.531 242.481 311.059 244.296 311.397C246.706 311.842 249.191 312.166 251.648 312.18C254.091 312.194 256.525 311.87 258.931 311.481C260.659 311.203 262.358 310.777 264.016 310.212C266.298 309.434 268.551 308.485 270.671 307.336C272.805 306.183 274.694 304.743 276.601 303.251C277.978 302.177 279.252 300.982 280.412 299.676C281.437 298.523 282.365 297.282 283.284 296.045C284.065 294.693 284.457 293.234 284.467 291.669C284.513 290.474 284.263 289.363 283.723 288.33L283.714 288.353Z" fill="#FACDB6"/>
<path d="M110.233 351.743L109.942 349.567C109.554 348.178 108.852 346.973 107.84 345.95C107.365 345.399 106.903 344.834 106.45 344.264C102.294 338.651 99.1208 332.376 96.3636 325.972C93.5972 319.344 91.0755 312.602 88.6093 305.859C85.9306 298.532 83.4505 291.123 81.5847 283.542C80.6056 279.568 79.8112 275.548 79.2339 271.496C78.398 264.494 78.2502 257.418 79.1277 250.411C79.3032 249.193 79.5018 247.975 79.7419 246.766C80.0237 245.363 80.2361 243.946 80.4301 242.524C80.4763 242.307 80.5132 242.084 80.5455 241.862C80.5779 241.686 80.6102 241.515 80.6425 241.339C80.952 240.343 80.9981 239.347 80.7764 238.347C80.7303 237.351 80.4347 236.421 79.8897 235.559C79.5018 235.054 79.1092 234.55 78.7213 234.04C78.0424 233.309 77.2434 232.794 76.3151 232.489C75.7332 232.151 75.105 231.979 74.4261 231.975C73.4332 231.753 72.4402 231.794 71.4426 232.109C70.8469 232.359 70.2511 232.614 69.6553 232.864C68.533 233.531 67.6371 234.429 66.972 235.555C66.8612 235.819 66.7503 236.083 66.6395 236.347C66.404 236.837 66.1869 237.347 65.9837 237.861C65.1431 239.848 64.4781 241.834 64.0301 243.965C63.4897 246.526 63.1203 249.11 62.8293 251.708C62.3906 255.589 62.2612 259.502 62.3859 263.401C62.663 272.001 64.0717 280.596 66.1823 288.928C68.1636 296.745 70.7776 304.382 73.5717 311.939C76.4259 319.664 79.3355 327.384 82.6238 334.933C84.0878 338.29 85.6673 341.601 87.4547 344.801C89.3898 348.27 91.5928 351.54 94.0174 354.68C94.7564 355.643 95.5046 356.597 96.2851 357.523C97.024 358.324 97.9015 358.889 98.9129 359.218C99.8874 359.732 100.936 359.968 102.063 359.922C103.19 359.964 104.238 359.727 105.212 359.218C106.224 358.889 107.101 358.324 107.84 357.523C109.272 355.962 110.33 353.911 110.233 351.73V351.743Z" fill="#FACDB6"/>
<path d="M207.149 281.384C207.108 280.42 206.821 279.522 206.29 278.688L205.159 277.22C204.503 276.512 203.727 276.016 202.836 275.724C202.272 275.396 201.663 275.234 201.011 275.229C200.051 275.011 199.09 275.058 198.129 275.359C196.425 275.91 194.61 277.003 193.811 278.688C190.837 284.954 188.902 291.678 186.944 298.319C185.143 304.432 183.415 310.569 181.836 316.742C180.256 322.915 178.764 329.116 177.37 335.331C175.975 341.55 174.608 347.788 173.486 354.063C172.114 361.737 171.052 369.652 172.049 377.436C172.146 378.15 172.243 378.868 172.336 379.581C172.585 380.632 173.065 381.544 173.777 382.327C174.132 382.934 174.617 383.415 175.222 383.776C175.998 384.49 176.912 384.971 177.961 385.221C179.66 385.689 181.355 386.161 183.055 386.629C184.755 387.097 186.44 387.62 188.168 387.963C190.283 388.384 192.384 388.278 194.292 387.162C195.94 386.194 197.511 384.3 197.945 382.401C198.407 380.363 198.31 378.071 197.146 376.26L195.903 374.649C194.91 373.662 193.742 372.977 192.398 372.597C190.888 372.051 189.327 371.643 187.78 371.212C187.775 368.258 187.992 365.298 188.352 362.362C189.068 357.458 190.08 352.595 191.091 347.747C192.162 342.606 193.303 337.484 194.504 332.372C196.929 322.044 199.58 311.763 202.462 301.552C203.265 298.704 204.069 295.851 204.886 293.003C205.713 290.113 206.503 287.223 207.029 284.264C207.329 283.301 207.376 282.338 207.158 281.374L207.149 281.384Z" fill="#FACDB6"/>
<path d="M331.597 300.542C330.951 299.894 330.059 299.398 329.117 299.171C328.965 298.593 328.845 298.009 328.748 297.416C328.642 296.425 328.586 295.406 328.655 294.42C328.72 294.059 328.789 293.698 328.872 293.341C329.27 291.655 328.882 289.914 327.639 288.668C326.512 287.538 324.545 286.853 322.979 287.432C318.749 288.997 314.449 290.363 310.094 291.549C310.089 291.493 310.08 291.433 310.076 291.377C309.96 290.196 309.66 288.997 308.745 288.154C307.997 287.464 307.152 287.038 306.136 286.899C305.166 286.769 304.085 286.894 303.24 287.441C302.197 288.117 301.592 288.997 301.153 290.164C301.01 290.548 300.857 290.928 300.7 291.308C300.127 292.623 299.499 293.943 298.687 295.11C297.823 296.351 296.959 297.597 296.054 298.81C294.858 300.306 293.555 301.719 292.101 302.964C292.013 303.024 291.925 303.085 291.833 303.14C291.768 303.159 291.699 303.177 291.63 303.191C289.648 303.325 287.598 303.122 285.635 303.001C283.312 302.862 280.989 302.714 278.666 302.589C278.444 302.575 278.213 302.598 277.973 302.635C276.837 302.135 275.553 301.844 274.32 302.242C273.244 302.589 272.366 303.173 271.673 304.071C271.008 304.932 270.528 306.049 270.579 307.165L270.759 308.522C270.999 309.388 271.438 310.138 272.071 310.777C273.41 312.43 274.731 314.097 276.052 315.76C277.271 317.293 278.412 318.965 279.788 320.359C279.871 320.442 279.959 320.521 280.047 320.604C280.139 321.271 280.347 321.915 280.679 322.438C281.391 323.54 282.444 324.513 283.76 324.814L285.131 324.999C286.06 324.999 286.928 324.763 287.732 324.295C290.794 322.845 293.856 321.391 296.918 319.942C297.924 320.303 299.208 320.405 300.086 320.076C307.716 317.214 315.331 314.315 322.892 311.282C324.268 310.731 325.677 310.258 327.076 309.767C327.658 309.763 328.24 309.684 328.785 309.526C329.718 309.253 330.623 308.725 331.325 308.049C332.105 307.304 332.53 306.424 332.881 305.414C333.459 303.756 332.789 301.732 331.593 300.528L331.597 300.542Z" fill="#FACDB6"/>
<path d="M307.614 102.435C307.434 102.36 307.258 102.305 307.083 102.268C307.115 102.166 307.148 102.069 307.175 101.967C307.577 100.578 306.801 99.1048 305.508 98.5584C305.009 98.3454 304.492 98.2898 303.998 98.3592C304.104 98.0953 304.215 97.8359 304.321 97.572C304.769 96.4373 304.03 94.8489 302.991 94.2932C302.192 93.8671 301.231 93.8069 300.409 94.1357C300.566 93.1261 300.271 92.1351 299.366 91.4312C298.156 90.4957 296.733 90.7458 295.597 91.6581C295.343 91.8619 295.098 92.0702 294.849 92.2786C294.498 91.9684 294.091 91.7322 293.648 91.5886C293.048 91.3941 291.985 91.4728 291.463 91.8757C291.357 91.9591 291.251 92.0471 291.14 92.1305C291.468 91.1718 291.149 89.889 290.447 89.2407C289.593 88.4534 288.078 88.0597 287.053 88.8007C286.166 89.4444 285.293 90.102 284.43 90.7689C284.794 89.7779 284.684 88.634 283.838 87.856C282.702 86.8094 281.164 86.8371 280.01 87.7958C280.042 87.0317 279.788 86.2444 279.243 85.7442C278.107 84.6976 276.601 84.7671 275.461 85.7442C271.027 89.5371 266.598 93.3299 262.164 97.1227C262.996 96.391 263.827 95.6547 264.658 94.923C267.221 92.6816 269.799 90.4494 272.376 88.2218C273.364 87.3697 273.327 85.735 272.579 84.7671C271.858 83.8316 270.242 83.2944 269.198 84.0909C264.473 87.6846 259.744 91.2783 255.02 94.8674C254.322 93.9968 253.251 93.7282 252.235 94.0199C252.29 93.9319 252.346 93.8486 252.396 93.7606C252.983 92.8066 252.821 91.3478 251.985 90.579C251.163 89.8242 249.796 89.5046 248.812 90.1669C242.568 94.3765 236.874 99.4105 232.011 105.167C230.565 106.88 229.189 108.649 227.873 110.469C227.512 110.97 227.425 111.924 227.609 112.493C227.628 112.549 227.656 112.595 227.674 112.646C227.295 113.072 226.921 113.503 226.552 113.934C225.697 114.934 225.513 116.295 226.349 117.379C226.921 118.125 228.007 118.578 228.963 118.384C228.976 118.402 228.986 118.426 228.999 118.449C229.401 119.074 230.113 119.565 230.865 119.718C230.089 120.338 229.314 120.954 228.542 121.584C228.261 121.816 228.071 122.117 227.951 122.445L225.785 122.77C225.416 122.7 225.037 122.714 224.663 122.844C224.533 122.89 224.409 122.946 224.279 122.997C223.416 123.126 222.557 123.256 221.693 123.386C221.25 123.344 220.793 123.399 220.335 123.589C219.68 123.863 219.153 124.15 218.779 124.789C218.451 125.349 218.312 126.173 218.516 126.799C218.562 126.947 218.622 127.076 218.687 127.206C218.465 127.512 218.252 127.822 218.054 128.151C217.758 128.646 217.657 129.267 217.74 129.864C217.19 131.059 216.77 132.3 216.493 133.578C216.146 133.87 215.888 134.255 215.805 134.718C214.863 139.71 215.698 145.448 219.458 149.148C219.841 149.528 220.252 149.861 220.672 150.172C220.728 150.236 220.783 150.306 220.839 150.371C221.153 150.718 221.568 150.917 222.007 150.996C223.263 151.644 224.64 152.024 226.104 152.103C226.801 152.14 227.503 152.093 228.2 151.982C229.009 152.557 230.191 152.774 231.041 152.172C234.625 149.639 237.659 146.522 240.065 142.841C240.352 142.401 240.453 141.836 240.398 141.285C241.266 141.947 242.148 142.591 243.026 143.239C243.423 143.531 243.815 143.827 244.208 144.128C244.236 144.147 244.286 144.188 244.337 144.23C244.342 144.235 244.351 144.239 244.356 144.244C244.605 144.438 244.85 144.633 245.099 144.832C245.949 145.508 246.794 146.194 247.635 146.884C251.149 149.764 254.655 152.714 258.548 155.071C262.488 157.456 266.806 159.137 271.383 159.698C275.553 160.207 279.742 159.397 283.492 157.521C290.23 154.154 295.015 147.486 297.975 140.724C299.726 136.728 301.037 132.574 302.344 128.415C304.275 124.465 305.813 120.32 306.926 116.064C307.272 115.365 307.628 114.674 308.011 113.994C308.311 113.452 308.427 112.817 308.358 112.201C308.621 111.549 308.879 110.891 309.143 110.238C309.411 109.571 309.189 108.548 308.843 107.955C308.806 107.89 308.759 107.825 308.718 107.765C308.921 107.121 309.11 106.477 309.281 105.825C309.642 104.426 308.935 102.981 307.619 102.425L307.614 102.435Z" fill="#FACDB6"/>
<path d="M254.456 409.405C254.077 407.455 252.442 405.95 250.71 405.153C248.918 404.329 247.015 403.732 245.163 403.06C241.413 401.703 237.663 400.346 233.918 398.989C226.731 396.391 219.55 393.465 212.054 391.895C207.713 390.987 203.238 390.519 198.813 390.964C198.18 391.029 197.543 391.232 197.026 391.589C196.823 391.399 196.582 391.242 196.305 391.126C195.174 390.649 193.802 391.061 193.174 392.154C192.666 393.034 192.213 393.946 191.798 394.872C191.678 394.951 191.562 395.039 191.456 395.146C189.087 397.623 188.034 401.198 188.851 404.551C189.313 406.45 191.742 406.802 192.962 405.524C193.045 405.552 193.119 405.593 193.206 405.616C193.594 405.723 193.973 405.746 194.338 405.718C196.181 406.816 198.531 405.978 200.268 404.908C200.333 404.871 200.388 404.825 200.453 404.788C205.311 407.057 210.733 408.205 215.924 409.247C223.498 410.766 231.165 411.882 238.859 412.54C243.081 412.901 247.311 413.128 251.546 413.23C252.497 413.253 253.352 412.771 253.915 412.04C254.53 411.243 254.645 410.382 254.456 409.405ZM214.548 399.045C213.985 398.795 213.43 398.531 212.876 398.267C213.477 398.42 214.082 398.577 214.677 398.744C214.627 398.841 214.585 398.943 214.548 399.045Z" fill="#FACDB6"/>
<path d="M30.7172 347.413C30.7172 347.413 18.6586 339.494 14.0494 341.875C9.44021 344.255 -2.53532 350.085 4.08286 374.903C10.701 399.721 30.0522 393.066 30.0522 393.066L42.5173 359.176L30.7218 347.413H30.7172Z" fill="#FACDB6"/>
<path d="M382.145 245.196C380.51 247.248 378.954 246.822 379.028 251.064C379.226 262.03 383.24 274.858 383.692 285.755C383.891 290.479 383.263 294.304 379.213 288.923L374.391 251.43L369.121 251.472C367.754 263.216 367.306 276.086 364.226 287.557C363.598 289.895 361.145 296.648 359.815 298.338C359.21 299.107 358.554 298.69 357.774 298.745C358.984 293.915 360.836 289.275 361.667 284.329C362.725 278.054 365.154 258.627 364.355 253.129C363.833 249.536 361.907 250.837 359.534 249.323C352.481 244.812 346.103 235.434 345.221 227.019C344.524 220.388 346.099 202.053 356.689 207.523C366.087 212.376 368.415 236.12 368.502 245.669C369.098 247.466 372.641 246.896 373.74 245.78C375.13 244.372 374.137 230.446 374.396 227.107C374.77 222.249 378.058 207.305 381.346 204.082C387.189 198.362 390.13 205.962 390.911 211.2C392.509 221.911 388.837 236.782 382.136 245.196H382.145ZM379.056 240.093C380.233 241.441 382.626 235.601 382.88 234.939C385.734 227.524 388.209 215.442 384.699 208.115C379.744 217.711 378.811 229.321 379.051 240.093H379.056ZM363.759 245.423C364.004 237.93 361.529 216.048 354.818 212.066C354.162 211.677 353.811 211.195 352.874 211.468C346.824 220.263 349.955 233.234 356.772 240.764C357.612 241.695 362.739 246.47 363.755 245.419L363.759 245.423Z" fill="#FF4B7E"/>
<path d="M317.885 282.754C313.765 281.138 312.509 276.368 311.064 272.603C306.117 259.719 300.912 240.237 302.021 226.519C304.7 193.384 326.512 167.339 357.917 157.924C366.129 155.46 386.552 155.432 394.518 158.262C395.899 158.753 406.208 163.583 406.66 164.079C407.672 165.181 407.967 166.116 407.51 167.635C406.101 172.354 396.301 165.88 393.913 164.861C388.039 162.361 367.459 161.499 361.086 163.106C335.07 169.659 316.001 189.457 309.563 215.428C303.78 238.759 312.745 260.261 317.871 282.754H317.885Z" fill="#FF4B7E"/>
<path d="M369.75 342.736C369.464 341.481 370.457 341.157 371.075 340.406C374.04 336.808 378.248 334.293 381.388 330.751C401.451 308.123 417.042 291.928 430.593 264.11C444.153 236.263 449.893 213.474 430.533 186.15L414.105 169.252C414.341 162.296 422.335 168.696 424.931 171.104C447.727 192.24 454.248 220.939 442.324 249.878C429.073 282.027 415.338 299.315 391.669 323.73C384.889 330.723 379.79 339.295 369.755 342.741L369.75 342.736Z" fill="#FF4B7E"/>
<path d="M404.281 406.056C404.078 404.315 404.443 405.024 404.886 404.667C407.071 402.898 410.082 402.56 412.511 402.773C413.232 397.253 418.1 401.208 420.146 401.287C427.341 401.578 434.934 400.546 442.171 401.398C446.789 401.939 452.086 404.857 456.557 405.413C463.951 406.334 471.572 403.935 478.605 404.7C481.284 404.991 483.252 406.172 486.23 406.08C497.532 405.728 510.593 402.981 521.801 404.681C522.767 404.829 523.519 404.746 524.009 406.376C523.838 407.015 523.621 408.048 523.261 408.395C522.328 409.298 512.444 408.594 510.325 408.692C491.708 409.544 473.077 412.531 454.502 408.641C453.153 408.358 450.253 406.672 449.343 406.76C448.627 406.83 447.838 408.645 446.651 409.099C442.425 410.72 434.042 407.705 429.489 407.358C421.111 406.723 412.645 407.668 404.281 406.047V406.056Z" fill="#FF4B7E"/>
<path d="M411.551 129.23C409.842 129.554 410.17 129.221 410.11 128.503C409.86 125.539 410.53 120.065 410.95 116.888C411.888 109.812 414.451 102.31 415.666 95.187C419.725 71.3462 424.413 47.5611 428.874 23.7435C430.329 15.9726 432.001 8.18311 433.525 0.416816C437.626 -1.01881 437.243 1.58848 437.229 3.13525C437.174 8.12291 434.629 14.1989 433.756 19.3532C428.288 51.6503 419.06 84.0492 412.992 116.356C412.188 120.639 412.498 124.928 411.546 129.23H411.551Z" fill="#FF4B7E"/>
<path d="M565.847 194.773C567.265 196.001 558.481 201.067 557.654 201.549C540.252 211.654 518.268 220.309 499.388 227.108C495.32 228.571 489.177 232.225 485.584 233.262C484.443 233.591 483.252 233.429 482.092 233.42C481.737 231.502 482.6 232.341 483.556 231.928C506.898 221.833 529.916 212.302 552.569 200.446C557.008 198.122 560.384 193.819 565.847 194.769V194.773Z" fill="#FF4B7E"/>
<path d="M512.906 110.446C506.995 118.88 500.316 127.563 492.65 134.454C485.103 141.234 477.497 147.486 470.047 154.451C469.322 155.132 468.883 156.016 467.701 155.761C475.497 143.489 488.479 136.144 498.298 125.46C501.817 121.635 506.366 114.244 510.214 111.414C511.119 110.752 511.604 110.178 512.906 110.456V110.446Z" fill="#FF4B7E"/>
<path d="M310.934 46.3941C309.696 46.2644 309.036 45.9032 308.158 45.0465C305.59 42.5457 301.923 28.1662 300.413 23.8779C299.6 21.5669 292.363 6.56692 294.511 5.17297C295.702 5.22855 295.952 6.15939 296.455 7.02077C301.323 15.44 307.193 33.7744 310.551 43.6108C310.865 44.5324 311.391 45.3799 310.938 46.3941H310.934Z" fill="#FF4B7E"/>
<path d="M0.138121 358.069C0.586106 353.429 2.60435 346.103 5.47238 342.421C13.3468 332.307 22.7129 339.647 31.0538 344.723C34.1389 339.402 38.0506 333.113 42.0317 328.421C46.4885 323.17 50.2617 318.052 56.9538 322.758C62.4266 326.601 68.9293 333.15 73.5985 338.063C75.1134 339.652 75.8339 341.916 77.5658 343.417C80.4292 345.89 85.4448 347.691 88.5391 350.072C86.4654 345.681 83.8191 341.62 81.7777 337.193C71.0122 313.829 58.3532 280.953 62.034 255.167C62.8423 249.494 64.6804 243.126 67.941 238.444C67.7516 237.676 62.8099 235.578 63.2902 233.429C72.6102 236.458 82.2627 238.143 92.2292 238.12C94.7832 238.116 96.6167 236.62 99.4108 238.227C100.219 238.694 100.293 239.709 101.041 240.061C105.858 242.334 133.176 240.186 139.984 239.343C152.453 237.796 164.988 235.92 172.091 224.445C167.689 206.559 164.72 191.041 167.763 172.549C168.239 169.654 168.207 166.153 170.645 164.12C171.855 164.922 171.583 165.885 171.67 167.075C172.271 175.022 170.479 183.538 170.945 191.8C172.557 220.499 188.089 262.544 207.514 283.778C216.206 293.276 223.637 301.353 235.668 306.873C240.984 309.314 246.59 311.124 252.391 312.069C257.019 309.156 261.923 309.263 266.648 306.359C273.229 302.321 279.473 294.804 286.429 290.849C291.532 292.771 286.179 296.856 283.999 299.084C283.995 299.982 288.729 301.274 289.837 300.612C290.082 300.464 290.428 299.264 290.932 298.745C294.262 295.309 304.718 283.407 308.089 281.925C315.109 278.841 310.153 288.965 310.578 289.414C313.931 288.33 316.906 286.445 320.374 285.575C321.649 285.255 327.699 284.107 328.876 284.046C334.576 283.755 332.326 287.77 332.539 288.038C332.784 288.349 336.247 288.363 335.707 290.975C335.296 292.947 330.909 294.531 329.86 296.069C332.59 296.115 339.042 295.217 336.843 299.422C336.118 300.811 333.961 300.153 334.506 302.066C338.095 301.927 338.94 304.03 337.204 307.109C334.811 311.356 311.636 316.663 305.761 318.904C298.76 321.572 291.047 327.852 283.699 326.689C277.778 325.749 272.823 315.992 269.705 311.421C265.142 314.213 259.993 318.011 254.405 318.122C244.821 318.316 225.207 308.962 217.868 302.719C213.051 298.62 209.823 292.679 204.891 288.742C207.172 294.452 212.239 299.783 216.843 303.747C218.783 305.414 224.219 309.744 226.186 311.041C227.438 311.865 241.681 318.497 242.577 318.617C243.473 318.738 243.93 317.529 244.798 317.686C248.415 318.344 246.147 324.017 246.073 326.374C245.468 345.802 247.879 364.868 247.953 384.249L243.237 389.519L228.819 393.377C237.095 396.665 248.484 399.485 255.638 404.815C256.612 405.542 256.899 406.566 257.725 407.372C265.244 403.621 277.206 401.926 285.676 402.694C289.768 403.065 293.333 405.89 296.973 406.084C300.192 406.26 302.903 404.19 305.655 404.111C307.239 404.07 312.43 404.588 314.079 404.876C315.913 405.2 318.499 406.524 318.554 408.71C314.075 411.429 310.163 409.567 305.586 410.053C303.508 410.271 301.923 411.229 299.642 411.415C292.936 411.956 290.313 408.641 284.988 408.057C281.963 407.724 276.809 407.849 273.691 408.066C268.565 408.423 262.889 410.882 258.072 409.386C256.843 418.523 248.355 413.387 243.039 412.795C231.442 411.503 218.182 412.054 206.558 412.734C197.58 413.262 182.099 416.634 173.943 413.42C168.567 411.299 170.839 407.39 173.305 407.39H188.929C186.061 401.939 188.791 396.943 189.581 391.422C183.392 390.681 178.238 386.073 172.336 385.759L171.31 384.726C169.31 365.076 173.019 345.871 177.411 326.856C179.208 319.076 181.425 310.096 183.66 302.46C185.032 297.778 187.198 293.489 188.26 288.747C174.515 295.305 160.027 300.991 145.059 304.076C148.814 311.805 153.7 319.048 157.141 326.949C165.62 346.399 174.668 383.262 160.623 401.333C145.53 420.746 124.429 418.875 102.247 416.652C86.6594 415.092 77.4041 411.567 62.9716 406.705C53.1759 403.403 42.9277 401.472 34.3836 395.363C29.7283 401.916 21.7199 399.573 15.1249 399.36C12.8064 399.286 5.43544 400.935 4.83966 398.318C3.93907 394.386 11.3701 394.789 13.4253 393.724C6.57618 388.597 2.68286 380.072 0.133502 372.06C0.447554 367.54 -0.29601 362.506 0.133502 358.065L0.138121 358.069ZM79.2422 241.436L70.9199 239.482C70.3102 239.542 67.433 249.619 67.2713 251.092C64.4495 276.776 74.3144 311.893 86.5347 334.428C88.1281 337.369 95.7207 350.646 97.291 352.304C97.7528 352.79 97.8775 353.651 98.8428 353.406L102.404 347.863C97.4619 339.119 90.1786 330.829 85.7727 321.868C74.7439 299.454 68.9524 272.617 76.4112 248.258C77.1409 245.873 78.0045 243.599 79.2422 241.441V241.436ZM189.595 387.389C179.148 374.968 181.956 356.296 183.706 341.166C185.313 327.282 187.729 311.43 191.114 297.935C191.982 294.476 194.356 289.293 194.772 286.255C194.952 284.936 195.183 284.297 193.913 283.426C192.112 284.968 193.252 287.478 192.763 289.59C192.028 292.762 189.595 296.666 188.588 300.07C186.029 308.749 183.447 318.701 181.397 327.523C177.134 345.876 173.753 364.395 174.968 383.392L189.59 387.389H189.595ZM307.253 286.756C306.103 286.455 305.923 287.233 305.258 287.747C301.836 290.382 299.134 295.017 295.956 298.074C296.418 298.486 306.279 292.304 306.643 291.803C307.701 290.345 307.175 288.409 307.253 286.756ZM325.87 287.427C322.101 288.015 318.48 289.354 314.998 290.849C308.288 293.725 294.668 303.835 288.392 303.39C286.595 303.265 282.702 300.737 281.986 301.061L271.373 310.416C275.442 313.639 279.219 322.285 284.48 323.253C290.35 324.332 295.194 319.544 300.261 317.395C307.336 314.394 315.04 313.259 322.254 310.786C325.925 309.527 329.999 307.155 333.846 306.076C334.003 304.9 332.336 305.419 331.606 305.498C328.544 305.831 310.846 310.707 309.941 310.068C309.77 309.216 309.364 308.498 309.687 307.595C310.555 305.192 321.875 302.812 324.678 301.89C325.681 301.561 328.142 301.024 328.53 300.093C320.891 299.473 314.703 305.183 307.262 304.747L307.927 301.422L305.263 301.413C305.253 300.264 305.281 298.435 306.103 297.583C307.105 296.55 315.557 292.174 317.446 291.299C320.185 290.03 324.055 289.9 325.875 287.427H325.87ZM325.865 293.424C319.958 293.92 313.585 296.754 309.248 300.741C313.502 298.796 318.06 297.439 322.323 295.531C323.321 295.087 325.505 294.425 325.865 293.424ZM30.7166 347.413C22.445 345.922 12.8526 335.613 7.32437 347.612C5.57399 351.415 3.98064 362.788 4.08686 367.072C4.39168 379.409 16.2564 396.257 30.0516 393.066C20.219 389.436 25.7564 379.437 24.0846 372.537C23.8952 371.75 21.9971 371.787 21.5352 370.282C21.2119 369.235 21.2165 366.211 21.4336 365.085C21.9924 362.154 25.3131 362.08 25.9181 361.256C26.9295 359.871 27.8901 349.724 30.7166 347.418V347.413ZM219.365 393.553L193.008 392.821C192.139 395.405 190.126 403.746 192.911 405.07L253.407 410.058C253.693 408.687 252.728 408.511 251.878 407.932C243.441 402.199 229.853 400.161 220.99 395.567C219.822 394.96 219.688 393.752 219.365 393.557V393.553Z" fill="#FF4B7E"/>
<path d="M294.52 95.5297C287.209 97.8359 279.834 96.9329 273.682 92.2416C265.918 102.912 252.239 116.583 246.018 96.2058C233.894 96.3216 238.453 111.794 247.814 113.415C248.04 118.736 243.284 118.453 239.506 119.838C238.443 120.227 237.45 121.413 236.148 121.806C230.874 123.395 220.118 122.76 216.164 118.467C214.843 117.032 210.908 109.349 210.077 107.242C203.972 91.7415 211.32 72.3373 226.828 65.8075C231.571 63.8115 244.572 62.3851 247.057 58.759C247.934 57.4762 248.184 55.5265 249.426 53.8038C263.05 34.909 285.81 33.6864 301.291 51.1178C304.177 54.3688 307.369 61.0977 311.728 61.9822C317.317 63.1168 321.967 62.3157 327.662 65.3351C342.173 73.0273 340.242 97.3775 328.47 106.399C315.95 115.999 301.79 106.876 294.52 95.5297ZM313.243 106.783C332.46 110.446 340.547 83.1925 328.193 71.4667L330.548 83.7668C331.121 93.5198 328.262 102.166 318.577 105.806L313.243 106.779V106.783Z" fill="#FF4B7E"/>
<path d="M218.178 125.446C202.766 128.003 187.927 133.537 173.661 139.807C148.943 150.667 126.581 166.343 107.479 185.423C99.0876 193.806 86.3223 206.671 79.2607 215.785C76.9931 218.711 74.8963 224.769 71.7512 226.255C68.9617 227.575 68.9386 224.885 69.6406 222.801C71.3725 217.651 79.3808 208.657 83.2141 204.42C105.775 179.468 130.636 155.595 161.224 140.669C173.596 134.63 202.775 122.612 215.878 124.099C216.871 124.21 217.929 124.233 218.178 125.451V125.446Z" fill="#FF4B7E"/>
<path d="M224.819 184.108C226.606 185.275 219.374 201.604 218.889 204.438C218.894 205.883 226.154 222.981 227.373 225.209C238.956 246.373 257.411 268.912 277.395 282.361C279.395 283.708 287.897 286.844 284.24 289.363C282.337 290.674 279.575 288.909 277.765 287.988C256.488 277.188 237.644 250.93 226.02 230.558C220.857 221.504 217.083 210.524 213.208 200.743C212.414 198.742 208.729 189.712 208.83 188.434C208.899 187.581 209.255 187.285 209.86 186.785L217.106 193.403C219.619 192.865 222.02 182.279 224.814 184.103L224.819 184.108Z" fill="#FF4B7E"/>
<path d="M307.253 124.789C304.607 138.798 295.545 156.734 281.034 161.481C267.17 166.015 258.774 161.754 248.04 153.835C240.896 148.565 242.738 151.103 237.811 155.465C233.594 159.198 226.486 161.402 220.949 159.67C218.52 158.91 213.763 153.816 217.273 152.839C218.372 152.534 222.889 154.228 225.129 154.136C229.899 153.941 236.102 150 236.656 144.962C236.859 143.114 234.772 140.738 238.443 140.734C241.75 140.729 244.373 145.161 246.757 147.124C255.476 154.298 262.321 159.184 274.342 158.105C288.378 156.845 296.746 144.202 301.277 132.129C299.351 132.157 297.818 131.268 296.635 129.79C298.113 127.151 300.833 128.665 302.833 128.021C304.237 127.567 304.588 123.951 307.253 124.798V124.789Z" fill="#FF4B7E"/>
<path d="M238.781 178.106L248.733 210.459C254.793 226.45 260.594 242.677 272.426 255.389L270.883 257.335C269.613 257.673 268.232 256.594 267.336 255.788C254.243 243.979 239.27 199.377 237.46 181.769C237.331 180.501 236.758 177.476 238.776 178.106H238.781Z" fill="#FF4B7E"/>
<path d="M308.583 122.117C305.281 123.64 304.362 119.551 301.318 119.074C299.864 118.843 298.192 119.648 296.649 119.486L293.204 140.687C291.675 141.28 283.376 139.914 283.339 138.45C285.103 136.649 288.535 137.279 290.631 138.117C290.022 130.883 292.479 124.196 294.672 117.476C297.12 118.523 298.062 116.772 299.919 116.374C302.732 115.772 308.588 118.616 308.578 122.117H308.583Z" fill="#FF4B7E"/>
<path d="M285.985 124.126L285.689 126.155C283.787 127.993 280.743 125.9 279.076 126.076C278.771 126.109 276.393 130.499 276.005 124.117L273.017 126.099C271.095 124.807 272.753 123.575 273.354 122.121L268.703 123.446C267.918 121.769 270.527 120.394 270.541 119.796C270.546 119.472 268.49 117.004 269.373 115.448C274.213 119.528 279.51 123.302 285.985 124.117V124.126Z" fill="#FF4B7E"/>
<path d="M289.966 114.786C286.147 113.869 283.108 110.766 279.519 109.604C277.159 108.839 275.16 108.802 272.809 108.325C272.079 108.177 270.066 108.427 270.703 107.131C271.428 105.649 278 105.926 279.672 106.116C283.824 106.593 290.109 110.094 289.966 114.781V114.786Z" fill="#FF4B7E"/>
<path d="M216.183 129.452C215.005 132.148 213.989 133.532 213.924 136.691C213.846 140.331 215.753 141.803 216.076 143.924C216.437 146.3 214.414 146.597 213.042 145.258C209.98 142.28 209.126 128.026 216.187 129.452H216.183Z" fill="#FF4B7E"/>
<path d="M269.696 140.794C271.271 141.919 271.954 143.85 273.391 145.073C275.261 146.671 281.496 147.527 279.69 150.13C277.335 153.529 264.897 145.17 269.696 140.789V140.794Z" fill="#FF4B7E"/>
<path d="M376.39 406.071C372.169 411.049 363.532 409.354 357.418 409.368C349.7 409.386 348.67 408.266 342.103 407.455C340.551 407.265 325.689 409.308 333.019 404.899C340.191 400.583 344.186 404.075 350.804 404.723C357.422 405.371 366.072 403.857 372.769 404.695C374.289 404.885 375.028 405.77 376.39 406.071Z" fill="#FF4B7E"/>
<path d="M348.625 346.589C348.883 346.774 353.94 347.849 354.86 348.002C358.928 348.673 367.717 350.007 371.509 350.021C375.217 350.035 378.501 347.807 382.376 349.409C382.713 350.711 381.845 350.692 381.258 351.285C374.368 358.241 356.716 351.771 347.812 351.41C346.163 353.105 354.245 356.981 355.603 357.254C359.94 358.125 366.244 357.486 370.687 358.13C375.328 358.806 374.418 360.964 380.75 358.773C388.283 356.166 394.555 349.358 391.908 340.856C390.809 337.322 388.555 338.587 386.731 336.716C382.792 332.687 391.664 334.785 393.663 336.429C394.924 337.461 396.157 341.384 396.337 343.074C398.3 361.283 376.178 366.345 362.11 365.4C354.102 364.863 347.456 361.427 339.84 359.413C339.402 361.14 340.441 360.584 341.083 361.145C348.897 368.017 358.3 370.569 368.756 369.411C370.895 369.175 380.903 364.562 378.058 370.731C377.577 371.773 369.218 376.344 367.066 378.377C363.755 381.503 359.626 389.149 354.786 389.445C349.336 389.778 350.107 384.156 347.83 381.058C346.611 379.396 344.611 379.238 343.507 378.034C341.762 376.135 343.221 374.241 345.553 374.098C351.059 373.764 352.994 381.072 354.199 381.359C355.783 381.618 361.93 375.468 361.113 374.741C350.883 375.149 337.397 371.935 331.31 362.965C329.338 360.056 328.742 355.365 327.509 353.448C326.572 351.989 322.734 349.53 320.956 346.686C317.82 341.676 315.441 330.496 319.866 325.897C320.748 324.981 321.852 325.133 322.397 324.592C323.293 323.698 323.242 321.859 325.251 320.447C327.514 318.854 330.516 318.576 333.204 318.747L332.848 316.747C335.458 312.889 340.478 323.318 341.291 324.967C342.274 326.949 343.863 330.357 344.524 332.39C345.484 335.331 346.597 345.14 348.639 346.598L348.625 346.589ZM337.734 326.185C335.545 324.828 331.343 328.75 330.788 330.728C330.507 331.723 331.763 337.068 332.22 338.04C333.296 340.346 344.898 347.261 346.482 346.066C343.863 343.889 338.663 326.759 337.739 326.185H337.734Z" fill="#FF4B7E"/>
<path d="M382.381 347.404C382.436 345.575 384.247 344.579 384.866 342.903C385.374 341.532 384.339 338.897 386.69 338.744C390.495 342.884 387.498 347.256 382.381 347.404Z" fill="#FF4B7E"/>
<path d="M267.997 174.73L287.708 190.73C289.727 192.634 286.886 193.722 284.905 192.648C280.55 186.831 272.001 182.733 267.572 177.486C266.145 175.795 265.069 174.605 267.992 174.73H267.997Z" fill="#FF4B7E"/>
</g>
<defs>
<clipPath id="clip0_48_4085">
<rect width="566" height="418" fill="white"/>
</clipPath>
</defs>
</svg>
