<svg width="452" height="582" viewBox="0 0 452 582" fill="none" xmlns="http://www.w3.org/2000/svg">
<path d="M53.4505 508.406C59.8825 508.658 66.3144 508.914 72.7463 509.166C74.9563 486.525 82.2884 464.397 94.036 444.907C104.843 473.105 110.456 503.281 110.51 533.475C110.523 540.511 110.915 548.873 116.897 552.582C120.07 554.547 124.031 554.587 127.762 554.551C163.005 554.187 198.225 552.038 233.252 548.127C228.805 492.437 207.56 438.191 172.993 394.271C183.939 395.93 195.151 397.584 206.007 395.417C216.864 393.25 227.477 386.462 231.073 376.004C233.905 367.764 232.046 358.691 229.467 350.369C226.509 340.82 222.63 331.559 217.908 322.747C214.1 326.344 208.992 328.538 203.761 328.821C207.281 338.177 209.154 348.153 209.271 358.147C209.316 362.094 208.933 366.428 206.178 369.261C203.392 372.12 198.86 372.601 194.98 371.644C191.1 370.686 187.643 368.537 184.088 366.716C168.649 358.812 150.2 356.969 133.501 361.667C115.245 366.802 96.6241 382.042 84.0708 396.168C68.1193 414.12 59.1128 441.032 55.0619 464.262C52.5233 478.815 51.9337 493.714 53.455 508.415L53.4505 508.406Z" fill="#FCACA8"/>
<path d="M183.173 396.595C182.183 397.423 197.468 415.415 198.751 417.155C208.549 432.292 214.158 449.385 219.554 466.46C220.414 469.18 223.574 483.293 224.195 483.949C224.402 484.169 227.85 482.704 230.1 482.771C262.764 483.765 330.851 494.163 357.294 513.235C366.498 519.871 358.545 528.426 352.055 533.515C324.684 554.956 240.772 553.711 205.255 555.064C172.262 556.323 138.716 560.49 105.94 553.998C99.4947 554.897 91.3164 552.973 84.9655 550.797C83.9663 551.989 95.7904 564.77 90.4207 568.673C85.9287 571.937 79.6723 562.333 76.3326 560.504C77.3993 565.791 79.8164 572.944 77.3813 578.141C76.7062 579.588 75.9185 578.716 74.7347 578.806L64.459 559.434C64.8235 561.965 66.6779 575.866 66.1018 576.689C64.711 578.667 62.3885 577.808 61.1687 576.181L54.7503 562.671L50.947 581.005C46.9681 580.91 45.4602 569.599 45.1542 566.303C44.8031 562.509 46.1984 546.234 45.6133 545.366C44.6591 543.946 28.694 542.17 22.8967 537.858C6.73366 525.832 24.4001 514.098 35.6346 507.458C37.8896 506.122 45.6043 503.654 45.9734 503.236C46.653 502.458 45.8428 486.462 46.0544 483.365C47.7558 458.417 60.7051 404.913 81.1802 389.06C84.781 386.273 92.4417 385.63 92.2391 380.078C91.9105 371.1 85.114 374.426 78.4706 373.954C81.0676 383.22 70.3058 396.218 61.6773 397.611C35.2295 401.882 15.1955 368.928 24.5126 345.927C-5.64859 345.806 -3.09202 305.299 11.5317 288.201C12.8055 286.709 17.7071 283.431 17.7926 282.878C17.9006 282.159 16.1002 279.214 15.9697 277.353C14.4349 255.153 32.0608 235.357 54.7233 239.161C49.8982 204.476 92.4372 199.679 103.312 228.375C105.139 227.791 104.432 226.33 106.966 225.044C123.643 216.56 141.741 233.824 133.405 248.224C132.095 250.49 129.498 250.832 129.278 251.142C128.99 251.547 132.244 258.412 130.777 260.799L147.547 268.833L143.276 274.21C158.903 292.585 172.096 317.28 154.051 338.937C150.252 343.495 140.247 351.871 134.895 354.308C133.072 355.135 126.375 356.466 126.078 356.812C125.826 357.109 125.731 362.958 125.965 363.178C126.798 363.951 131.92 360.588 131.15 368.793C129.458 386.826 104.945 401.972 88.8229 391.074C86.8379 389.73 87.8371 387.118 84.9745 387.999C63.4327 412.371 57.0458 441.108 52.4593 472.507C52.2117 474.189 50.6904 475.456 50.4744 476.994C49.1511 486.314 50.5374 498.996 49.3446 508.743C55.1959 507.678 61.3938 504.032 67.2856 503.443C70.2157 503.151 73.8705 504.648 74.1496 504.441C75.1758 503.668 78.7451 483.275 79.8659 479.399C83.3677 467.274 89.0839 451.462 94.4806 440.088C94.8767 439.252 97.2352 432.422 98.9816 434.351C99.6883 435.129 92.4912 450.446 92.4822 454.286C92.4732 458.125 97.1857 467.027 98.4505 472.071C102.461 488.04 104.509 512.322 104.473 528.7C104.464 531.668 101.507 547.075 103.231 548.122C104.711 549.021 117.305 550.667 119.988 550.847C141.138 552.245 169.904 551.804 191.306 550.847C205.529 550.213 219.725 547.551 233.899 546.486C229.992 519.96 223.826 493.566 215.855 468.002C212.695 457.873 208.95 445.676 204.598 436.114C192.953 410.541 170.552 390.274 151.873 370.173C154.799 369.517 161.96 375.101 164.273 377.191C167.127 379.772 176.169 392.441 178.532 393.138C181.818 394.105 196.698 393.664 200.956 393.345C222.723 391.722 232.607 385.918 230.51 362.769C230.267 360.098 226.139 341.369 225.244 340.515C224.839 340.128 218.528 342.511 216.998 342.632C215.247 342.771 211.444 341.369 211.228 341.603C210.647 342.232 213.199 349.776 213.365 351.853C215.287 375.973 206.961 375.114 187.017 369.553C172.618 365.538 156.522 355.328 140.778 358.03C139.491 358.251 126.811 364.243 127.054 360.471C127.14 359.145 134.13 356.578 135.638 356.142C158.687 349.434 179.594 367.692 200.938 368.609C207.546 368.892 208.288 368.087 209.054 361.55C209.909 354.227 205.804 334.647 200.479 329.45C196.424 325.494 178.361 325.885 172.82 319.047C164.836 309.197 187.296 312.317 188.556 311.4C189.078 311.018 182.714 302.201 181.872 300.295C180.909 298.115 175.688 284.591 179.901 286.057L192.341 297.373C191.333 293.978 187.98 276.278 189.636 274.745C194.637 270.115 199.849 290.341 203.652 292.005C203.697 285.782 203.526 278.369 205.061 272.327C205.592 270.236 205.673 268.303 208.432 269.445C212.195 271.005 213.663 287.869 215.553 291.996L219.824 280.648C221.098 279.38 221.656 280.307 222.539 281.237C226.819 285.747 225.172 311.467 224.096 318.337C223.821 320.077 222.052 321.376 222.039 322.734C222.025 323.974 230.235 341.562 231.428 345.689C234.952 357.882 238.819 377.313 229.569 387.433C225.802 391.551 213.906 396.604 208.527 396.604C204.886 396.604 184.136 395.791 183.164 396.604L183.173 396.595ZM86.0502 265.034C87.369 266.064 98.7116 254.352 99.5622 251.052C100.62 246.939 101.79 232.138 100.656 228.326C99.2067 223.448 91.4875 217.059 86.7929 215.216C64.3959 206.413 54.3362 224.972 57.964 244.547C37.9391 235.047 14.6329 257.94 19.35 278.288C19.8901 280.626 25.4938 285.675 23.4459 287.675C23.0363 288.075 17.293 286.835 13.0306 291.294C3.2949 301.473 -0.368917 329.72 12.72 338.833C19.2014 343.347 21.9515 342.088 28.793 342.043C33.9782 342.007 26.259 351.098 25.6964 355.175C24.13 366.509 30.6745 380.491 39.7035 387.356C57.8965 401.195 79.8434 390.481 74.1721 367.485C83.2506 369.58 91.807 372.75 98.9861 364.778C107.475 355.351 105.179 343.648 98.383 334.121C94.8407 329.154 85.2221 322.761 79.0152 323.156C75.0993 323.403 73.3529 327.998 67.2811 327.54C56.8523 326.753 53.6836 318.849 59.6789 310.411C63.1987 305.452 68.0012 305.802 71.9036 302.138C76.2516 298.061 87.4411 274.574 83.8763 270.438C83.2101 269.665 64.9721 275.658 64.477 268.815C64.2834 266.122 80.5545 269.908 82.8005 267.183C82.0444 264.293 79.6183 262.957 77.4263 261.267C83.8583 253.525 84.817 264.072 86.0547 265.039L86.0502 265.034ZM125.628 229.801C121.613 226.415 107.137 226.991 104.878 230.479C103.271 232.961 103.865 247.289 103.06 251.309C102.614 253.539 98.671 258.291 98.9906 258.556C102.591 261.532 108.425 246.84 110.18 244.408C114.92 237.839 116.846 235.812 124.372 241.292L129.197 249.933C131.452 242.389 132.424 235.533 125.628 229.801ZM122.351 243.855C121.685 243.167 119.34 241.418 118.421 241.804C116.247 242.726 107.831 250.373 109.811 253.129L129.206 259.635C126.307 254.662 126.492 248.157 122.351 243.855ZM110.257 256.96C109.635 256.272 109.973 255.045 109.248 255.337C103.69 257.576 109.811 262.966 111.418 266.095C115.901 274.817 122.463 285.032 115.199 294.41C108.204 303.438 99.5127 298.452 92.5002 292.544L86.0502 284.456C83.8403 291.802 79.2492 300.718 73.0154 305.407C68.978 308.446 62.4785 309.039 61.2812 315.235C60.363 319.987 60.183 322.477 65.0711 323.152C74.3296 324.428 69.059 321.668 70.2652 320.009C70.4453 319.757 75.4414 317.244 75.8015 317.226C76.7197 317.186 91.681 322.145 93.2743 323.039C99.9313 326.766 106.354 338.613 108.222 345.842C108.767 347.946 108.425 353.193 108.69 353.467C110.923 355.778 132.014 351.251 136.065 348.994C140.305 346.629 153.624 334.117 155.708 329.792C162.095 316.534 157.886 303.195 150.973 291.272C149.721 289.118 142.92 278.845 141.638 277.87C139.693 276.386 139.108 278.409 137.069 278.814C125.182 281.165 138.329 270.002 137.839 269.364C137.069 268.361 117.395 263.96 113.709 261.635C112.458 260.849 111.737 258.605 110.252 256.96H110.257ZM106.381 263.052C102.758 260.795 90.6008 270.623 90.2452 274.174C89.5565 281.035 98.662 295.125 106.003 295.075C116.432 295.008 116.288 284.407 113.538 276.912C113.011 275.478 107.043 263.465 106.381 263.052ZM206.916 277.438C206.056 280.815 206.916 291.362 206.916 295.772C206.916 299.162 201.334 295.781 200.443 293.614L192.895 280.145C190.982 283.611 197.274 300.488 196.118 301.702C193.629 304.314 184.303 292.144 182.628 290.93C181.813 290.759 181.935 291.969 182.111 292.522C183.429 296.73 189.434 306.324 191.981 310.698C193.03 312.497 197.279 315.419 192.467 315.639C187.485 315.868 180.234 312.901 174.544 316.26C179.928 320.144 199.187 326.838 205.057 326.281C208.531 325.948 211.835 322.5 214.792 320.877C216.341 320.027 218.843 320.405 219.653 319.834C219.991 319.596 222.03 312.375 222.03 311.953V289.307C222.03 289.087 220.216 287.352 219.883 287.689C219.28 288.309 217.11 307.641 213.208 295.961C212.173 292.859 209.706 276.629 209.067 275.824C208.806 275.501 207.024 277.029 206.92 277.443L206.916 277.438ZM89.8131 282.289V283.368L90.3532 282.829L89.8131 282.289ZM218.744 324.379C216.651 322.895 208.203 330.417 204.76 329.752C211.065 338.343 208.396 341.823 220.369 339.404C221.553 339.166 222.633 339.067 223.034 337.696C223.232 337.021 219.316 324.784 218.744 324.379ZM123.814 357.765C120.762 359.262 108.303 356.2 107.655 356.69C107.223 357.014 104.567 363.924 102.668 366.303C101.075 368.294 94.8632 372.992 94.7372 373.514C94.2646 375.46 102.411 382.757 93.0448 387.959L94.1385 382.595C84.6459 389.177 97.4513 391.034 103.145 390.486C111.463 389.685 124.462 380.775 125.763 372.048C126.51 367.058 122.76 362.917 123.814 357.765ZM97.9149 493.651C99.9043 491.731 93.765 463.183 90.8978 459.146C84.6504 470.749 81.8238 484.007 79.5688 496.883C81.8553 493.682 97.2352 494.307 97.9104 493.655L97.9149 493.651ZM49.3401 509.818V527.073C52.9769 522.388 68.8699 521.624 70.9944 520.131C72.1962 519.286 73.1414 511.239 73.1324 509.274C73.1324 508.51 73.2224 506.711 73.0919 506.576C71.2915 504.774 59.1883 509.17 56.2716 509.728C54.6648 510.034 49.5922 509.575 49.3446 509.818H49.3401ZM74.9913 526.237C74.0731 525.567 67.6952 524.798 66.1198 524.874C61.0922 525.117 56.6362 528.381 52.8464 529.038C51.4601 529.28 49.4751 527.99 49.3446 528.143C47.0446 530.777 48.2464 568.268 49.3446 574.513L53.1209 552.942C56.2716 552.991 58.3106 564.77 59.6024 568.03C60.3 569.792 61.6818 573.658 63.3517 574.513C65.0981 570.718 59.2378 548.59 60.129 547.565C61.3218 546.194 63.0366 549.26 63.5678 550.046C68.1633 556.853 70.6073 567.009 74.1676 574.508C76.1886 573.87 75.3379 568.124 75.1173 566.546C74.6717 563.372 69.1445 549.264 69.8422 548.644C70.1302 548.392 72.3447 548.302 73.1504 549.314C74.5007 551.009 85.0285 569.963 89.2595 565.885C90.4927 564.698 74.3927 540.92 74.1226 535.17C74.0281 533.169 75.3829 532.594 76.3011 533.542C76.5801 533.83 77.0212 537.395 78.025 538.843C80.28 542.098 84.9745 545.546 89.2595 544.872C87.1845 540.893 83.4757 538.429 80.6671 535.125C79.1277 533.318 75.4144 526.547 74.9913 526.237Z" fill="#030454"/>
<path d="M236.05 122.701C236.464 123.105 242.419 121.338 246.263 125.978C253.127 134.273 248.032 148.228 239.691 153.83C237.733 155.142 232.791 154.598 235.672 157.291C238.553 159.984 240.645 161.126 242.018 165.793C246.087 179.582 237.661 184.599 227.444 191.167C238.093 196.643 261.206 218.641 233.448 215.337C231.63 215.121 227.043 212.725 226.341 213.282C225.932 213.61 230.91 218.255 226.836 222.939C218.046 233.055 201.253 210.958 196.729 204.574C195.663 203.068 193.565 197.327 192.363 197.232C190.851 197.115 186.08 201.341 179.643 200.087C171.447 198.491 171.546 190.538 170.2 189.544C169.341 188.911 157.827 196.697 150.225 190.646C148.861 189.562 146.44 185.26 145.936 185.246C145.706 185.242 143.636 187.355 142.168 187.939C137.24 189.891 119.245 192.952 116.404 188.326C112.498 181.955 130.128 179.321 127.04 176.605C126.473 176.106 117.809 178.593 115.693 178.736C108.726 179.209 91.586 179.559 93.7734 168.769C95.5333 160.088 113.816 163.797 115.167 162.574C115.558 162.219 111.98 156.055 111.894 153.38C111.723 148.147 115.482 135.114 117.651 130.011C119.321 126.077 125.577 118.083 126.01 115.606C126.091 115.143 121.837 110.135 121.095 107.599C116.801 92.9698 120.406 82.3912 137.312 83.8613C139.724 84.0726 143.491 86.0732 144.725 85.8305C146.98 85.3854 152.93 73.2287 164.291 72.9904C175.431 72.7611 176.799 82.2293 178.388 82.6429C179.824 83.0161 186.548 80.6108 189.118 80.6378C194.843 80.6963 203.031 84.6975 205.713 89.9217C206.884 92.201 206.726 96.544 207.928 97.4162C210.795 99.4933 222.362 95.4425 230.163 103.238C236.473 109.541 235.312 121.968 236.054 122.692L236.05 122.701ZM173.468 90.3443C171.339 88.483 176.047 76.7534 163.219 77.3379C159.371 77.5132 153.979 81.3257 151.872 84.4143C150.018 87.1343 149.563 93.1092 148.073 93.5768C145.413 94.413 143.64 90.5781 141.381 89.508C137.397 87.6243 127.459 86.6802 125.46 91.4502C123.48 96.1708 124.974 109.101 130.033 111.623C136.569 114.882 136.686 109.371 140.489 109.694C142.929 109.901 152.133 119.504 159.893 118.394C161.775 118.124 163.057 116.398 164.826 115.669C165.767 115.283 167.351 116.065 168.098 115.615C169.341 114.86 172.964 105.823 176.704 108.687C177.641 109.407 168.54 120.453 168.287 121.298C166.604 126.985 168.882 138.922 167.977 145.787C166.285 158.622 155.968 168.428 144.356 172.869L130.308 173.899C135.538 186.744 145.584 176.965 148.015 177.716C151.499 178.795 149.307 191.914 162.504 187.755C166.262 186.573 167.896 181.978 171.677 183.192C174.805 184.194 174.373 193.712 180.508 194.912C193.408 197.43 194.555 183.471 200.141 182.153C203.494 181.362 209.148 187.719 212.915 188.425C227.138 191.091 246.506 177.563 233.966 161.994C232.076 159.647 229.177 160.272 229.492 156.707C230.1 149.815 235.919 151.726 239.007 149.343C247.816 142.554 246.807 121.383 231.761 128.087C232.944 108.462 222.709 96.4631 202.617 104.362C203.904 88.519 196.513 84.23 181.619 86.1272C178.721 86.4959 174.958 91.6436 173.477 90.3488L173.468 90.3443ZM162.67 122.692C162.391 122.417 156.792 122.862 154.82 122.44C150.617 121.545 142.186 115.629 140.341 115.363C139.504 115.242 130.817 118.277 128.575 118.295C121.842 128.932 110.864 150.97 121.076 161.553C135.462 176.462 159.479 164.377 162.4 145.625C162.805 143.017 163.48 123.501 162.666 122.696L162.67 122.692Z" fill="#030454"/>
<path d="M355.935 180.85C356.11 181.034 359.405 181.034 360.949 181.758C366.665 184.442 372.319 187.62 373.07 194.521C373.381 197.345 372.035 200.433 372.296 201.832C372.836 204.727 379.898 206.75 377.211 215.746C375.397 221.825 365.031 221.402 364.487 221.905C364.217 222.153 365.437 226.523 364.874 229.202C364.199 232.421 361.233 237.196 358.563 239.16C353.689 242.753 348.189 242.033 344.03 244.052C342.589 244.749 333.957 257.436 332.12 255.323C329.483 252.293 338.124 240.963 339.142 238.072C341.235 232.138 333.349 236.773 331.139 238.72C324.657 244.421 317.159 259.401 322.191 236.602C320.053 235.6 317.015 227.759 315.399 228.379C312.361 229.548 302.945 247.819 299.74 244.542C296.918 241.656 303.39 229.494 303.845 226.518C305.321 216.794 294.694 233.091 293.308 234.35C282.281 244.367 290.972 222.229 292.709 217.581C293.2 216.263 295.243 214.168 295.239 213.804C295.212 212.06 287.398 209.929 289.208 198.972C290.225 192.813 297.584 187.602 297.557 186.852C297.53 186.101 292.511 185.188 293.709 180.895C295.243 175.387 302.558 174.96 302.958 174.416C303.728 173.369 299.204 167.416 305.654 162.574C308.449 160.475 310.794 160.043 314.31 160.385C317.537 160.699 320.228 163.361 320.782 163.361C322.677 163.361 327.583 157.089 334.056 158.96C339.439 160.515 338.651 165.11 340.735 166.382C343.571 168.118 347.743 165.353 351.632 168.437C355.962 171.872 355.476 180.369 355.939 180.85H355.935ZM337.517 172.299C336.828 171.462 338.836 163.905 332.39 162.763C325.355 161.513 321.507 170.109 320.782 170.123C318.761 170.163 320.332 162.084 310.052 163.739C298.615 165.582 309.251 179.029 312.163 178.75C313.301 178.642 313.54 175.212 314.305 175.54C317.325 176.83 316.317 186.371 328.119 182.855C330.117 182.261 334.641 175.185 337.508 177.698C338.971 178.979 334.11 181.533 334.416 183.421C334.929 186.577 343.724 196.167 337.067 201.512C332.341 205.307 329.528 198.464 326.732 196.032C324.302 203.972 318.658 211.579 311.497 215.85L302.985 218.111C305.074 220.206 307.9 223.573 310.835 224.324C313.373 224.976 315.935 223.232 318.104 224.558C321.088 226.383 323.276 240.217 333.659 232.597C335.761 231.054 334.704 227.498 336.959 228.379C337.944 228.766 342.909 235.523 344.844 236.984C350.916 241.575 361.152 234.997 361.809 227.431C361.989 225.336 359.086 220.341 361.449 218.839C363.046 217.823 368.983 218.785 372.476 215.324C379.187 208.674 367.854 205.784 367.655 205.096C366.706 201.742 369.928 199.359 369.987 196.59C370.154 188.547 358.478 183.893 351.551 185.233C358.122 165.24 338.363 173.319 337.521 172.299H337.517ZM304.601 178.791C302.17 180.427 303.264 181.888 304.601 179.847C304.961 179.299 305.474 179.276 304.601 178.791ZM316.187 184.972C314.013 182.814 315.39 177.847 308.058 180.063C304.092 181.263 292.529 196.284 292.219 201.009C291.701 208.931 302.355 214.654 309.471 212.77C315.791 211.098 325.36 194.306 325.661 187.935C325.823 184.496 318.932 187.701 316.187 184.972Z" fill="#030454"/>
<path d="M427.915 246.957C429.706 248.764 428.95 253.907 429.274 254.226C429.58 254.528 434.32 253.709 437.367 256.384C441.522 260.026 438.952 264.823 440.531 267.242C441.823 269.216 448.156 268.249 450.726 274.309C453.953 281.912 449.776 284.061 449.952 286.961C450.087 289.177 452.572 290.84 451.869 295.691C450.542 304.836 442.098 302.152 439.163 304.058C438.749 304.328 437.736 308.185 435.792 309.858C433.739 311.625 429.459 312.213 429.247 312.497C428.442 313.585 441.418 336.104 420.623 316.795C420.452 319.825 420.826 322.945 420.614 325.975C420.542 327.018 421.096 329.729 419.012 328.646C415.753 326.946 412.729 308.959 411.937 308.217C411.576 307.88 406.63 308.648 403.992 306.985C401.355 305.321 399.676 298.083 398.839 297.58C397.862 296.991 395.458 297.643 393.662 296.838C392.074 296.127 390.741 293.111 389.373 292.594C388.302 292.189 378.026 292.562 377.441 291.991C376.937 291.506 377.58 288.071 378.418 287.037C380.461 284.506 384.737 287.1 383.918 283.377C365.374 284.079 367.917 276.004 385.003 277.969C377.621 269.278 400.004 257.333 400.063 255.885C400.121 254.438 392.213 247.901 403.394 244.066C411.342 241.341 411.635 245.752 414.889 246.543C417.401 247.155 424.607 243.625 427.915 246.961V246.957ZM412.306 250.675C409.817 248.49 410.703 244.911 404.712 247.519C399.937 249.6 401.539 252.302 402.273 256.407L408.736 253.179C405.662 259.172 410.316 265.74 416.897 264.616C417.945 264.436 422.797 256.002 423.855 261.285C424.602 265.007 418.711 266.878 418.458 267.215C418.139 267.642 423.121 274.327 423.603 276.598C425.521 285.639 421.078 289.469 416.474 280.5L414.16 269.355C411.806 275.802 404.46 285.203 397.7 286.987C395.935 287.455 391.741 286.097 391.511 288.206C391.452 288.723 393.685 293.142 394.693 293.632C397.007 294.761 400.783 293.488 402.354 294.608C404.631 296.226 402.025 306.841 412.463 304.885C414.691 304.467 415.834 302.305 418.931 302.727C423.765 303.388 423.536 311.027 431.507 308.783C435.603 307.632 434.608 300.398 435.774 299.558C436.575 298.978 440.639 300.911 442.692 300.65C447.449 300.048 448.759 293.169 447.449 289.42C446.837 287.671 442.368 287.959 444.888 284.42C446.342 282.375 449.16 284.124 448.264 279.025C446.486 268.896 435.139 271.279 434.658 268.784C434.311 266.99 437.876 265.439 436.021 261.029C433.55 255.148 427.235 258.902 425.399 256.456C424.004 254.595 429.828 246.008 418.35 249.322C415.812 250.054 416.51 254.348 412.319 250.67L412.306 250.675ZM404.42 257.486C403.272 256.393 380.979 270.191 389.868 281.201C392.555 284.528 397.074 284.87 400.108 281.741C396.8 280.774 392.78 282.024 393.64 276.899C401.242 277.596 408.03 278.4 410.492 269.364C411.257 266.55 406.765 264.086 405.257 261.492C404.537 260.251 404.568 257.625 404.42 257.481V257.486Z" fill="#030454"/>
<path d="M86.0506 265.034C84.8129 264.068 83.8541 253.521 77.4222 261.262C79.6142 262.948 82.0402 264.284 82.7964 267.179C80.5504 269.903 64.2793 266.118 64.4728 268.811C64.968 275.649 83.206 269.661 83.8721 270.434C87.4369 274.57 76.2475 298.056 71.8995 302.134C67.9926 305.798 63.1946 305.452 59.6748 310.406C53.6794 318.849 56.8481 326.753 67.277 327.535C73.3533 327.994 75.0997 323.399 79.0111 323.152C85.2179 322.756 94.8366 329.149 98.3789 334.117C105.175 343.648 107.471 355.346 98.982 364.774C91.8029 372.75 83.2465 369.58 74.168 367.48C79.8392 390.477 57.8879 401.19 39.6993 387.352C30.6748 380.487 24.1304 366.5 25.6922 355.171C26.2549 351.093 33.9741 342.003 28.7889 342.039C21.9474 342.084 19.1973 343.342 12.7159 338.829C-0.377541 329.716 3.29077 301.473 13.0264 291.29C17.2934 286.83 23.0322 288.075 23.4417 287.671C25.4897 285.67 19.886 280.621 19.3458 278.284C14.6333 257.931 37.9395 235.038 57.9599 244.542C54.3321 224.968 64.3873 206.409 86.7888 215.212C91.4788 217.055 99.2025 223.444 100.652 228.322C101.786 232.134 100.616 246.934 99.5581 251.048C98.7119 254.348 87.3694 266.059 86.0461 265.03L86.0506 265.034Z" fill="#FCACA8"/>
<path d="M110.257 256.96C111.742 258.605 112.463 260.849 113.714 261.636C117.4 263.955 137.07 268.357 137.844 269.364C138.339 270.007 125.187 281.165 137.074 278.814C139.117 278.41 139.698 276.391 141.643 277.87C142.925 278.846 149.726 289.119 150.978 291.272C157.891 303.195 162.1 316.53 155.713 329.792C153.629 334.113 140.315 346.629 136.07 348.994C132.019 351.251 110.932 355.778 108.695 353.467C108.43 353.193 108.772 347.946 108.227 345.842C106.359 338.613 99.9363 326.767 93.2793 323.039C91.686 322.145 76.7246 317.186 75.8064 317.226C75.4464 317.24 70.4503 319.758 70.2702 320.009C69.0639 321.668 74.3346 324.429 65.0761 323.152C60.188 322.477 60.3725 319.987 61.2862 315.235C62.4835 309.035 68.9784 308.446 73.0203 305.407C79.2542 300.713 83.8452 291.803 86.0552 284.456L92.5051 292.544C99.5177 298.452 108.209 303.438 115.204 294.41C122.468 285.032 115.906 274.817 111.423 266.096C109.811 262.962 103.69 257.571 109.253 255.337C109.978 255.045 109.645 256.277 110.262 256.96H110.257ZM129.305 325.323C136.349 329.716 139.811 308.855 135.035 307.169C127.649 304.566 126.951 323.853 129.305 325.323Z" fill="#FCACA8"/>
<path d="M74.9913 526.237C75.4189 526.547 79.1322 533.318 80.667 535.125C83.4801 538.429 87.1845 540.893 89.2594 544.872C84.9745 545.551 80.2799 542.102 78.0249 538.843C77.0212 537.395 76.5756 533.83 76.3011 533.542C75.3874 532.594 74.0326 533.169 74.1226 535.17C74.3926 540.915 90.4927 564.694 89.2594 565.885C85.0285 569.967 74.5007 551.013 73.1504 549.314C72.3447 548.298 70.1302 548.388 69.8421 548.644C69.1445 549.264 74.6717 563.368 75.1173 566.546C75.3378 568.124 76.1885 573.874 74.1676 574.508C70.6073 567.009 68.1677 556.849 63.5677 550.046C63.0366 549.26 61.3172 546.194 60.129 547.565C59.2333 548.59 65.0936 570.718 63.3517 574.513C61.6818 573.659 60.3045 569.792 59.6023 568.03C58.3106 564.77 56.2716 552.991 53.1209 552.942L49.3446 574.513C48.2418 568.268 47.0401 530.782 49.3446 528.143C49.4751 527.99 51.46 529.28 52.8464 529.038C56.6362 528.381 61.0922 525.117 66.1198 524.874C67.6951 524.798 74.0731 525.567 74.9913 526.237Z" fill="#FCACA8"/>
<path d="M206.915 277.439C207.018 277.025 208.805 275.496 209.062 275.82C209.705 276.625 212.167 292.855 213.203 295.957C217.105 307.637 219.274 288.305 219.878 287.684C220.211 287.343 222.025 289.078 222.025 289.303V311.948C222.025 312.371 219.986 319.591 219.648 319.83C218.842 320.396 216.335 320.023 214.787 320.873C211.825 322.496 208.522 325.948 205.051 326.277C199.182 326.834 179.922 320.14 174.539 316.255C180.233 312.897 187.479 315.864 192.462 315.635C197.274 315.415 193.025 312.492 191.976 310.694C189.424 306.32 183.42 296.721 182.105 292.517C181.934 291.965 181.808 290.76 182.623 290.926C184.297 292.14 193.623 304.31 196.112 301.698C197.269 300.484 190.977 283.607 192.89 280.141L200.438 293.61C201.329 295.777 206.91 299.158 206.91 295.768C206.91 291.358 206.051 280.81 206.91 277.434L206.915 277.439ZM209.075 304.944C206.906 303.973 198.898 309.647 200.451 311.404C200.816 311.814 208.976 307.084 209.075 304.944Z" fill="#FCACA8"/>
<path d="M123.813 357.765C122.76 362.913 126.509 367.058 125.762 372.048C124.461 380.775 111.462 389.681 103.145 390.485C97.4508 391.034 84.6455 389.182 94.1381 382.595L93.0443 387.959C102.411 382.757 94.2641 375.46 94.7367 373.514C94.8627 372.992 101.074 368.299 102.667 366.303C104.567 363.924 107.222 357.019 107.655 356.69C108.307 356.2 120.761 359.262 123.813 357.765Z" fill="#FCACA8"/>
<path d="M106.382 263.052C107.044 263.465 113.012 275.478 113.538 276.912C116.289 284.407 116.433 295.008 106.004 295.075C98.6627 295.125 89.5572 281.035 90.2458 274.174C90.6014 270.623 102.759 260.795 106.382 263.052Z" fill="#FCACA8"/>
<path d="M125.628 229.801C132.424 235.537 131.452 242.389 129.197 249.933L124.372 241.292C116.842 235.811 114.92 237.839 110.181 244.408C108.425 246.84 102.592 261.537 98.9911 258.556C98.6715 258.291 102.614 253.538 103.06 251.309C103.866 247.289 103.271 232.961 104.878 230.479C107.138 226.991 121.618 226.411 125.628 229.801Z" fill="#FCACA8"/>
<path d="M49.3404 509.817C49.588 509.575 54.6606 510.033 56.2675 509.727C59.1841 509.174 71.2873 504.778 73.0877 506.576C73.2182 506.706 73.1237 508.509 73.1282 509.273C73.1372 511.238 72.1965 519.286 70.9902 520.131C68.8658 521.623 52.9727 522.388 49.3359 527.072V509.817H49.3404Z" fill="#FCACA8"/>
<path d="M122.351 243.854C126.492 248.157 126.307 254.662 129.206 259.635L109.811 253.129C107.831 250.378 116.247 242.726 118.421 241.804C119.34 241.418 121.685 243.162 122.351 243.854Z" fill="#FCACA8"/>
<path d="M218.744 324.379C219.316 324.784 223.232 337.017 223.034 337.695C222.633 339.067 221.548 339.166 220.369 339.404C208.401 341.823 211.066 338.343 204.76 329.751C208.203 330.417 216.651 322.891 218.744 324.379Z" fill="#FCACA8"/>
<path d="M89.8125 282.289L90.3526 282.829L89.8125 283.368V282.289Z" fill="#FCACA8"/>
<path d="M173.469 90.3442C174.95 91.639 178.713 86.4913 181.612 86.1226C196.501 84.2254 203.896 88.5144 202.609 104.358C222.701 96.4585 232.932 108.458 231.753 128.082C246.8 121.374 247.808 142.55 238.999 149.338C235.907 151.721 230.092 149.81 229.484 156.702C229.169 160.272 232.072 159.647 233.958 161.989C246.494 177.558 227.13 191.086 212.907 188.42C209.14 187.715 203.486 181.357 200.133 182.149C194.552 183.466 193.404 197.426 180.5 194.908C174.365 193.712 174.793 184.19 171.669 183.187C167.888 181.978 166.254 186.568 162.496 187.751C149.299 191.909 151.491 178.786 148.007 177.711C145.581 176.961 135.535 186.739 130.3 173.894L144.348 172.865C155.96 168.423 166.277 158.618 167.969 145.782C168.874 138.917 166.601 126.976 168.28 121.293C168.527 120.448 177.633 109.402 176.697 108.683C172.952 105.819 169.333 114.855 168.091 115.611C167.343 116.065 165.764 115.278 164.818 115.665C163.05 116.393 161.771 118.119 159.885 118.389C152.13 119.5 142.926 109.901 140.482 109.69C136.678 109.366 136.566 114.882 130.026 111.618C124.962 109.092 123.472 96.1663 125.453 91.4457C127.451 86.6756 137.394 87.6197 141.373 89.5035C143.632 90.5735 145.406 94.4084 148.066 93.5722C149.556 93.1046 150.015 87.1252 151.865 84.4097C153.971 81.3211 159.368 77.5086 163.212 77.3333C176.039 76.7533 171.331 88.4784 173.46 90.3397L173.469 90.3442ZM189.272 132.776C187.301 130.577 173.483 123.348 171.363 124.89C167.438 127.74 176.111 142.266 180.954 143.777C190.29 146.69 196.199 140.495 189.272 132.776Z" fill="#FCACA8"/>
<path d="M162.67 122.692C163.485 123.501 162.81 143.013 162.405 145.62C159.479 164.372 135.462 176.457 121.081 161.549C110.868 150.966 121.846 128.927 128.58 118.29C130.821 118.277 139.513 115.238 140.345 115.359C142.191 115.629 150.621 121.541 154.825 122.435C156.797 122.854 162.396 122.408 162.675 122.687L162.67 122.692ZM132.478 157.13C132.662 157.39 137.631 159.18 138.446 159.292C145.382 160.232 155.406 156.541 152.791 148.201C151.544 144.227 144.378 150.354 141.376 151.564C139.576 152.292 129.642 153.146 132.473 157.13H132.478Z" fill="#FCACA8"/>
<path d="M337.517 172.299C338.358 173.32 358.118 165.241 351.546 185.234C358.473 183.894 370.149 188.547 369.982 196.59C369.924 199.355 366.701 201.743 367.651 205.096C367.844 205.784 379.178 208.675 372.471 215.324C368.979 218.786 363.042 217.824 361.444 218.84C359.081 220.342 361.984 225.337 361.804 227.432C361.147 234.998 350.912 241.575 344.84 236.985C342.909 235.524 337.944 228.767 336.954 228.38C334.704 227.499 335.757 231.055 333.655 232.597C323.271 240.213 321.079 226.384 318.099 224.559C315.93 223.233 313.369 224.977 310.83 224.325C307.896 223.574 305.069 220.207 302.98 218.112L311.492 215.85C318.653 211.579 324.297 203.968 326.728 196.033C329.523 198.465 332.336 205.308 337.062 201.513C343.719 196.168 334.924 186.578 334.411 183.422C334.105 181.534 338.966 178.98 337.503 177.699C334.636 175.186 330.112 182.262 328.114 182.856C316.308 186.367 317.316 176.827 314.3 175.541C313.535 175.213 313.297 178.643 312.158 178.751C309.246 179.03 298.61 165.587 310.047 163.739C320.327 162.08 318.761 170.159 320.777 170.123C321.502 170.11 325.35 161.514 332.385 162.764C338.831 163.91 336.828 171.468 337.512 172.299H337.517Z" fill="#FCACA8"/>
<path d="M316.186 184.972C318.931 187.701 325.822 184.496 325.66 187.935C325.359 194.306 315.789 211.093 309.47 212.77C302.354 214.654 291.696 208.931 292.218 201.009C292.528 196.284 304.091 181.263 308.057 180.063C315.389 177.847 314.016 182.814 316.186 184.972ZM302.858 196.131C298.983 193.649 296.449 202.96 302.561 206.674C312.396 212.644 303.731 196.693 302.858 196.131Z" fill="#FCACA8"/>
<path d="M304.602 178.791C305.475 179.277 304.962 179.299 304.602 179.848C303.265 181.889 302.171 180.427 304.602 178.791Z" fill="#FCACA8"/>
<path d="M412.305 250.674C416.496 254.356 415.798 250.058 418.337 249.325C429.814 246.012 423.99 254.599 425.385 256.46C427.217 258.906 433.532 255.152 436.008 261.033C437.862 265.443 434.293 266.994 434.644 268.788C435.13 271.283 446.477 268.896 448.25 279.029C449.146 284.128 446.328 282.379 444.875 284.424C442.358 287.962 446.828 287.675 447.436 289.424C448.745 293.173 447.436 300.052 442.678 300.654C440.626 300.915 436.561 298.982 435.76 299.562C434.599 300.402 435.589 307.636 431.493 308.787C423.526 311.03 423.751 303.392 418.917 302.731C415.821 302.309 414.677 304.471 412.449 304.889C402.012 306.845 404.618 296.23 402.34 294.612C400.769 293.492 396.993 294.769 394.679 293.636C393.671 293.142 391.439 288.722 391.497 288.21C391.727 286.106 395.922 287.459 397.686 286.991C404.447 285.207 411.792 275.806 414.146 269.359L416.46 280.504C421.069 289.473 425.511 285.647 423.589 276.602C423.108 274.331 418.125 267.646 418.445 267.219C418.701 266.882 424.589 265.007 423.841 261.289C422.784 256.006 417.932 264.44 416.883 264.62C410.307 265.744 405.648 259.176 408.723 253.183L402.259 256.411C401.525 252.306 399.923 249.604 404.699 247.523C410.689 244.915 409.803 248.494 412.292 250.679L412.305 250.674Z" fill="#FCACA8"/>
<path d="M404.42 257.486C404.568 257.626 404.537 260.256 405.257 261.496C406.765 264.086 411.257 266.554 410.491 269.369C408.029 278.405 401.242 277.6 393.64 276.904C392.78 282.029 396.799 280.779 400.108 281.746C397.074 284.875 392.555 284.533 389.868 281.206C380.978 270.196 403.272 256.398 404.42 257.491V257.486Z" fill="#FCACA8"/>
<path d="M129.305 325.323C126.946 323.853 127.649 304.566 135.035 307.169C139.81 308.855 136.349 329.716 129.305 325.323Z" fill="#030454"/>
<path d="M209.076 304.943C208.977 307.083 200.817 311.813 200.452 311.404C198.899 309.646 206.907 303.972 209.076 304.943Z" fill="#030454"/>
<path d="M189.272 132.776C196.199 140.495 190.289 146.691 180.954 143.777C176.115 142.267 167.442 127.741 171.362 124.891C173.482 123.353 187.3 130.578 189.272 132.776Z" fill="#030454"/>
<path d="M132.479 157.13C129.648 153.146 139.581 152.292 141.382 151.564C144.384 150.35 151.55 144.222 152.796 148.201C155.411 156.541 145.388 160.232 138.452 159.292C137.637 159.18 132.668 157.39 132.483 157.13H132.479Z" fill="#030454"/>
<g opacity="0.5">
<path d="M334.759 37.9516C335.075 38.2605 339.621 36.9117 342.556 40.4536C347.796 46.7858 343.906 57.439 337.539 61.7153C336.044 62.7175 332.272 62.3022 334.471 64.358C336.67 66.4139 338.267 67.2856 339.315 70.8481C342.422 81.3743 335.989 85.2045 328.19 90.2188C336.319 94.399 353.963 111.192 332.773 108.67C331.385 108.505 327.884 106.676 327.348 107.101C327.035 107.352 330.835 110.897 327.726 114.473C321.015 122.195 308.195 105.327 304.742 100.453C303.928 99.3035 302.326 94.9207 301.409 94.8486C300.255 94.7594 296.612 97.9856 291.699 97.028C285.442 95.8096 285.517 89.7383 284.49 88.9798C283.834 88.4959 275.044 94.4402 269.241 89.8206C268.2 88.9935 266.351 85.709 265.966 85.6987C265.791 85.6953 264.211 87.3084 263.09 87.7545C259.328 89.2441 245.591 91.5813 243.423 88.0497C240.44 83.1864 253.899 81.1752 251.542 79.1023C251.109 78.7213 244.495 80.6192 242.88 80.7291C237.561 81.0894 224.476 81.3571 226.146 73.1201C227.49 66.4928 241.447 69.3243 242.478 68.3907C242.777 68.1196 240.045 63.4142 239.98 61.3721C239.849 57.3772 242.718 47.4276 244.374 43.5322C245.649 40.5291 250.425 34.4269 250.755 32.5358C250.817 32.1823 247.57 28.359 247.003 26.4233C243.725 15.2553 246.477 7.17961 259.383 8.3019C261.225 8.4632 264.101 9.99048 265.042 9.80515C266.764 9.46537 271.306 0.185028 279.979 0.00312797C288.483 -0.171908 289.527 7.05605 290.74 7.3718C291.836 7.65666 296.97 5.8205 298.932 5.84109C303.302 5.88571 309.552 8.94026 311.6 12.9283C312.494 14.6684 312.373 17.9838 313.291 18.6496C315.48 20.2352 324.31 17.1429 330.265 23.0942C335.082 27.9059 334.196 37.3922 334.763 37.9448L334.759 37.9516ZM286.985 13.251C285.359 11.8301 288.953 2.87578 279.161 3.32195C276.223 3.4558 272.107 6.3662 270.498 8.72404C269.083 10.8004 268.736 15.3617 267.598 15.7186C265.568 16.357 264.214 13.4294 262.489 12.6126C259.448 11.1745 251.861 10.4538 250.336 14.0952C248.824 17.6989 249.965 27.5696 253.827 29.495C258.816 31.9832 258.905 27.7755 261.809 28.0226C263.671 28.1805 270.698 35.5114 276.621 34.6637C278.058 34.4578 279.037 33.1399 280.387 32.5839C281.106 32.2887 282.315 32.8859 282.885 32.5427C283.834 31.9661 286.6 25.0676 289.455 27.2538C290.17 27.803 283.222 36.2356 283.03 36.8808C281.745 41.2224 283.483 50.3346 282.793 55.5754C281.501 65.3739 273.625 72.8593 264.76 76.2502L254.036 77.0361C258.029 86.8416 265.698 79.3768 267.554 79.95C270.213 80.7737 268.54 90.7885 278.614 87.6138C281.483 86.7112 282.731 83.2036 285.617 84.1303C288.005 84.8956 287.675 92.1613 292.359 93.0777C302.206 94.9997 303.082 84.343 307.347 83.3374C309.906 82.7334 314.222 87.5864 317.098 88.1252C327.956 90.1604 342.741 79.8333 333.168 67.948C331.725 66.1565 329.512 66.6335 329.753 63.9119C330.217 58.6505 334.66 60.1091 337.017 58.2901C343.741 53.1077 342.971 36.946 331.485 42.0633C332.388 27.0822 324.575 17.922 309.236 23.9522C310.219 11.8575 304.577 8.58333 293.207 10.0317C290.994 10.3131 288.122 14.2428 286.991 13.2544L286.985 13.251ZM278.742 37.9448C278.529 37.7354 274.254 38.0752 272.749 37.7526C269.54 37.0696 263.104 32.553 261.695 32.3505C261.056 32.2578 254.425 34.5745 252.714 34.5882C247.573 42.7085 239.193 59.5325 246.989 67.6117C257.971 78.9924 276.305 69.767 278.535 55.4518C278.845 53.4612 279.36 38.5625 278.738 37.9482L278.742 37.9448Z" fill="#030454"/>
<path d="M286.986 13.2511C288.117 14.2395 290.989 10.3098 293.202 10.0283C304.569 8.57999 310.214 11.8542 309.231 23.9488C324.57 17.9187 332.38 27.0789 331.48 42.0599C342.966 36.9393 343.736 53.1044 337.012 58.2868C334.651 60.1058 330.212 58.6472 329.748 63.9085C329.507 66.6336 331.724 66.1566 333.163 67.9447C342.733 79.83 327.951 90.1571 317.093 88.1219C314.217 87.583 309.901 82.7301 307.342 83.3341C303.081 84.3397 302.205 94.9963 292.354 93.0744C287.67 92.1614 287.997 84.8923 285.612 84.1269C282.726 83.2037 281.478 86.7079 278.609 87.6105C268.535 90.7852 270.208 80.7669 267.549 79.9467C265.697 79.3735 258.028 86.8383 254.031 77.0328L264.755 76.2469C273.62 72.856 281.496 65.3706 282.788 55.572C283.478 50.3312 281.743 41.2156 283.025 36.8775C283.214 36.2323 290.165 27.7996 289.45 27.2505C286.591 25.0643 283.829 31.9628 282.88 32.5393C282.31 32.886 281.104 32.2854 280.382 32.5805C279.032 33.1365 278.056 34.4544 276.617 34.6604C270.696 35.5081 263.67 28.1806 261.804 28.0193C258.9 27.7722 258.814 31.9833 253.822 29.4917C249.956 27.5628 248.819 17.6956 250.331 14.0919C251.856 10.4505 259.447 11.1712 262.484 12.6093C264.209 13.4261 265.563 16.3537 267.593 15.7153C268.731 15.3583 269.081 10.7937 270.493 8.72071C272.102 6.36287 276.221 3.45246 279.156 3.31861C288.948 2.87588 285.354 11.8267 286.98 13.2476L286.986 13.2511ZM299.05 45.643C297.545 43.9647 286.997 38.4459 285.378 39.6232C282.382 41.7991 289.003 52.8881 292.701 54.0413C299.827 56.2653 304.338 51.5359 299.05 45.643Z" fill="#FCACA8"/>
<path d="M278.742 37.9452C279.364 38.5629 278.849 53.4582 278.54 55.4488C276.306 69.764 257.972 78.9894 246.993 67.6086C239.197 59.5295 247.578 42.7054 252.718 34.5851C254.429 34.5748 261.064 32.2548 261.7 32.3474C263.109 32.5534 269.544 37.0665 272.753 37.7495C274.258 38.0687 278.533 37.7289 278.746 37.9417L278.742 37.9452ZM255.694 64.2349C255.834 64.4339 259.628 65.7999 260.25 65.8857C265.545 66.603 273.197 63.7853 271.2 57.4188C270.249 54.3848 264.778 59.0627 262.487 59.986C261.112 60.542 253.529 61.1941 255.69 64.2349H255.694Z" fill="#FCACA8"/>
<path d="M299.048 45.6432C304.336 51.5361 299.825 56.2655 292.698 54.0415C289.005 52.8884 282.383 41.7993 285.376 39.6234C286.995 38.4496 297.543 43.965 299.048 45.6432Z" fill="#030454"/>
<path d="M255.694 64.2346C253.532 61.1938 261.116 60.5417 262.49 59.9857C264.782 59.059 270.252 54.3811 271.204 57.4185C273.2 63.785 265.548 66.6027 260.253 65.8854C259.631 65.7996 255.838 64.4337 255.697 64.2346H255.694Z" fill="#030454"/>
</g>
<path d="M302.859 196.132C303.733 196.694 312.397 212.645 302.562 206.674C296.45 202.961 298.984 193.65 302.859 196.132Z" fill="#030454"/>
<g opacity="0.5">
<path d="M429.12 99.2384C429.296 99.4227 432.591 99.4227 434.135 100.147C439.851 102.831 445.504 106.009 446.256 112.91C446.566 115.734 445.221 118.822 445.482 120.22C446.022 123.116 453.084 125.139 450.397 134.135C448.583 140.213 438.217 139.791 437.672 140.294C437.402 140.541 438.622 144.911 438.059 147.591C437.384 150.81 434.418 155.584 431.749 157.549C426.874 161.141 421.374 160.422 417.215 162.441C415.775 163.137 407.142 175.825 405.306 173.712C402.668 170.681 411.31 159.352 412.327 156.461C414.42 150.527 406.534 155.162 404.324 157.109C397.843 162.809 390.344 177.789 395.376 154.991C393.238 153.988 390.2 146.148 388.584 146.768C385.546 147.937 376.13 166.208 372.925 162.931C370.103 160.044 376.576 147.883 377.03 144.907C378.507 135.182 367.88 151.48 366.494 152.739C355.466 162.755 364.158 140.618 365.895 135.969C366.386 134.652 368.429 132.557 368.424 132.193C368.397 130.448 360.584 128.317 362.393 117.361C363.41 111.202 370.77 105.991 370.743 105.24C370.716 104.49 365.697 103.577 366.894 99.2834C368.429 93.776 375.743 93.3489 376.144 92.8049C376.913 91.7574 372.39 85.8049 378.84 80.9629C381.635 78.8634 383.98 78.4318 387.495 78.7734C390.722 79.0882 393.414 81.7497 393.968 81.7497C395.863 81.7497 400.769 75.478 407.241 77.3483C412.624 78.9038 411.837 83.4986 413.921 84.7709C416.756 86.5063 420.929 83.7413 424.818 86.8254C429.147 90.2603 428.661 98.7573 429.125 99.2384H429.12ZM410.702 90.6874C410.014 89.8511 412.021 82.2937 405.576 81.1517C398.541 79.9019 394.692 88.4979 393.968 88.5114C391.947 88.5518 393.518 80.4729 383.237 82.1273C371.8 83.9706 382.436 97.4176 385.348 97.1388C386.487 97.0309 386.726 93.6006 387.491 93.9288C390.511 95.2191 389.503 104.759 401.304 101.244C403.303 100.65 407.826 93.5737 410.693 96.0868C412.156 97.3681 407.295 99.9218 407.601 101.81C408.114 104.966 416.909 114.556 410.252 119.901C405.526 123.696 402.713 116.853 399.918 114.421C397.487 122.36 391.843 129.967 384.682 134.238L376.171 136.5C378.259 138.595 381.086 141.962 384.02 142.713C386.559 143.365 389.12 141.62 391.29 142.947C394.274 144.772 396.461 158.606 406.845 150.985C408.947 149.443 407.889 145.887 410.144 146.768C411.13 147.155 416.095 153.912 418.03 155.373C424.102 159.963 434.337 153.386 434.994 145.82C435.174 143.724 432.271 138.73 434.634 137.228C436.232 136.212 442.169 137.174 445.662 133.712C452.373 127.063 441.039 124.172 440.841 123.484C439.891 120.13 443.114 117.748 443.173 114.978C443.339 106.935 431.664 102.282 424.736 103.622C431.308 83.6289 411.549 91.7079 410.707 90.6874H410.702ZM377.787 97.1793C375.356 98.8158 376.45 100.277 377.787 98.2358C378.147 97.6873 378.66 97.6649 377.787 97.1793ZM389.372 103.361C387.198 101.203 388.575 96.2352 381.243 98.4516C377.278 99.652 365.715 114.673 365.404 119.398C364.887 127.319 375.541 133.042 382.657 131.159C388.976 129.486 398.545 112.694 398.847 106.324C399.009 102.884 392.118 106.09 389.372 103.361Z" fill="#030454"/>
<path d="M410.702 90.6881C411.544 91.7087 431.303 83.6297 424.732 103.623C431.659 102.283 443.334 106.936 443.168 114.979C443.109 117.744 439.887 120.131 440.836 123.485C441.03 124.173 452.363 127.064 445.657 133.713C442.164 137.175 436.227 136.213 434.629 137.229C432.266 138.73 435.17 143.725 434.99 145.82C434.332 153.387 424.097 159.964 418.025 155.374C416.094 153.913 411.13 147.156 410.14 146.769C407.889 145.888 408.942 149.444 406.84 150.986C396.457 158.602 394.265 144.773 391.285 142.947C389.115 141.621 386.554 143.366 384.016 142.714C381.081 141.963 378.254 138.596 376.166 136.5L384.677 134.239C391.839 129.968 397.483 122.357 399.913 114.422C402.708 116.854 405.522 123.696 410.248 119.902C416.905 114.556 408.11 104.967 407.596 101.811C407.29 99.9225 412.151 97.3689 410.689 96.0876C407.822 93.5744 403.298 100.651 401.3 101.244C389.493 104.756 390.502 95.2154 387.486 93.9296C386.721 93.6014 386.482 97.0317 385.344 97.1396C382.431 97.4184 371.796 83.9759 383.233 82.1281C393.513 80.4691 391.947 88.5481 393.963 88.5121C394.688 88.4987 398.536 79.9027 405.571 81.1525C412.016 82.2989 410.014 89.8564 410.698 90.6881H410.702Z" fill="#FCACA8"/>
<path d="M389.371 103.361C392.117 106.09 399.008 102.885 398.846 106.324C398.544 112.694 388.975 129.482 382.656 131.159C375.539 133.042 364.881 127.319 365.403 119.398C365.714 114.673 377.277 99.6521 381.242 98.4517C388.574 96.2352 387.202 101.203 389.371 103.361ZM376.044 114.52C372.168 112.038 369.634 121.349 375.747 125.062C385.581 131.033 376.917 115.082 376.044 114.52Z" fill="#FCACA8"/>
<path d="M377.787 97.1797C378.66 97.6652 378.147 97.6877 377.787 98.2362C376.45 100.277 375.357 98.8162 377.787 97.1797Z" fill="#FCACA8"/>
<path d="M376.045 114.52C376.918 115.082 385.582 131.033 375.748 125.063C369.635 121.349 372.17 112.039 376.045 114.52Z" fill="#030454"/>
</g>
</svg>
