<svg width="111" height="111" viewBox="0 0 111 111" fill="none" xmlns="http://www.w3.org/2000/svg">
<path d="M108.608 40.7863C100.654 11.3262 70.2078 -6.01163 40.7504 1.92242C11.267 9.97353 -6.08465 40.331 1.97285 69.7911C9.92622 99.2901 40.3078 116.628 69.8173 108.577C99.3007 100.63 116.652 70.2073 108.595 40.7733L108.608 40.7863ZM79.2025 71.0267C74.0478 77.8162 63.4129 91.7983 48.5996 91.0179C32.7059 90.2765 17.437 72.7826 18.1399 53.5718C18.8428 34.2959 35.4134 19.3383 53.1165 18.2588C69.4658 17.2572 86.9736 28.2479 89.7332 43.0234C91.829 54.4302 84.4353 64.1722 79.2025 71.0267Z" fill="white"/>
</svg>
