<svg width="131" height="131" viewBox="0 0 131 131" fill="none" xmlns="http://www.w3.org/2000/svg">
<path d="M100.431 121.905C77.2988 127.077 53.3024 127.077 30.1705 121.905C19.5509 119.53 11.2444 111.211 8.87284 100.575C3.70905 77.4083 3.70905 53.3755 8.87284 30.2086C11.2444 19.5729 19.5509 11.2539 30.1705 8.8787C53.3024 3.7071 77.2988 3.7071 100.431 8.8787C111.05 11.2539 119.357 19.5729 121.728 30.2086C126.892 53.3755 126.892 77.4083 121.728 100.575C119.357 111.211 111.05 119.53 100.431 121.905Z" fill="#0030FF"/>
<path d="M103.597 54.8614C97.8838 33.6602 76.0136 21.1758 54.8678 26.8857C33.6986 32.6891 21.2331 54.5338 27.0161 75.735C32.729 96.9713 54.5407 109.444 75.7449 103.652C96.9141 97.9308 109.38 76.0275 103.597 54.8497V54.8614ZM82.4742 76.636C78.7708 81.5267 71.1419 91.5891 60.4989 91.0275C49.0848 90.4893 38.1147 77.8996 38.6288 64.0814C39.1428 50.2047 51.0359 39.4402 63.7467 38.6563C75.4879 37.9309 88.0586 45.8521 90.0446 56.4761C91.54 64.6898 86.236 71.6984 82.4859 76.636H82.4742Z" fill="white"/>
</svg>
