<svg width="450" height="686" viewBox="0 0 450 686" fill="none" xmlns="http://www.w3.org/2000/svg">
<path d="M149.665 217.725L152.343 239.162C153.125 244.075 156.294 252.025 162.723 244.521C169.151 237.018 173.66 244.745 175.111 249.546L162.723 257.92L160.379 273.328L167.745 290.746L179.799 305.484L187.834 335.966L212.611 368.792L236.718 387.885L255.803 390.564L258.482 404.968L244.419 416.021C238.727 417.026 224.33 424.195 206.919 434.109C185.156 446.503 185.491 453.537 175.111 461.241C166.808 467.404 157.142 443.935 153.348 431.43L145.312 420.376H71.9862L66.9639 431.43L90.7362 487.368L77.0085 503.111L71.9862 528.903L79.0174 550.676L110.491 587.856V594.221L106.808 617.668L114.174 645.805C114.174 645.805 118.192 659.538 125.892 665.902C133.593 672.267 142.299 668.582 142.299 668.582L164.062 651.499C164.062 651.499 174.776 638.436 194.196 636.426C209.948 634.796 223.835 651.415 236.718 659.873L271.54 668.582L302.009 659.873L330.468 643.46L355.245 639.775L407.812 645.805L420.535 603.6L433.259 535.938L436.942 478.659L427.232 437.794L407.812 421.046L358.928 402.623C352.12 403.181 336.093 400.747 326.45 386.545C316.808 372.343 322.433 357.18 326.45 351.374L342.857 352.714L353.906 348.024L355.245 332.951L358.928 317.543L377.009 292.421C375.446 290.076 374.129 284.315 381.361 280.027C388.593 275.74 392.634 266.852 393.75 262.944C393.08 246.531 389.129 208.212 378.683 186.238C368.236 164.265 349.553 153.859 341.517 151.402L323.437 156.762L320.089 149.393L305.357 135.324L270.87 129.295L235.379 136.664L196.54 156.762L165.401 185.233L149.665 217.725Z" fill="#00DC64"/>
<path d="M401.116 314.863L375 332.951L379.688 352.379L378.014 370.132L394.42 367.452L418.527 352.379L435.268 320.223L432.59 301.8L415.514 283.042L413.84 294.431L401.116 314.863Z" fill="#00DC64"/>
<path d="M47.2102 337.976V385.54V392.239L144.978 390.564V350.704L151.005 347.02L123.884 314.863L76.3397 302.135L47.2102 337.976Z" fill="#00DC64"/>
<path d="M39.1745 268.304L26.7861 246.531L40.8486 234.473L59.2638 216.72L82.0317 197.292L103.125 188.918L105.134 197.292L113.505 211.025L127.233 223.084L109.822 234.473L73.996 268.304L43.1924 284.717L39.1745 268.304Z" fill="#00DC64"/>
<path d="M59.2638 88.4297V153.747L169.42 155.757V102.833L177.121 99.8184L144.978 63.6426L89.7326 55.2686L59.2638 88.4297Z" fill="#00DC64"/>
<path d="M223.996 82.4004L233.706 73.6914L235.38 82.4004L241.741 92.7842L253.46 99.8184L241.741 108.192L239.398 115.896L226.675 108.192L221.987 98.1436L223.996 82.4004Z" fill="#00DC64"/>
<path d="M301.34 37.5156L269.197 76.0361L287.947 88.4297L312.389 102.833L371.987 122.261H386.384L401.786 89.7695L418.527 69.002L346.875 55.2686L301.34 37.5156Z" fill="#00DC64"/>
<path d="M379.609 603.715C369.736 600.309 360.87 600 353.729 602.816C354.907 604.143 356.486 604.552 357.958 605.161C370.32 610.275 380.968 617.469 387.452 629.657C389.192 632.928 390.509 636.352 390.683 640.116C390.746 641.474 390.885 642.962 389.111 643.341C387.529 643.68 386.647 642.636 385.994 641.363C384.061 637.594 382.533 633.618 380.133 630.088C374.278 621.473 365.852 616.074 356.739 611.663C343.893 605.444 330.636 600.076 318.257 592.895C313.526 590.151 308.825 587.367 304.365 584.19C303.489 583.566 302.703 582.672 301.077 582.805C297.277 600.676 291.217 617.314 272.967 626.18C274.097 628.597 276.249 630.039 278.042 631.748C281.189 634.749 284.489 637.588 287.679 640.544C288.57 641.369 289.425 642.287 290.077 643.303C290.955 644.669 290.853 646.107 289.571 647.231C288.399 648.259 287.103 648.144 285.883 647.279C285.249 646.83 284.657 646.308 284.107 645.758C278.108 639.762 272.08 633.794 266.146 627.733C261.815 623.309 261.375 620.71 264.081 615.113C264.885 613.451 264.774 612.287 263.71 610.865C258.69 604.163 254.064 597.189 249.527 590.151C247.123 586.421 243.564 583.813 240.056 581.259C230.343 574.19 224.077 564.535 219.411 553.754C217.536 549.421 214.697 545.661 212.814 541.362C212.531 540.716 211.803 540.175 211.158 539.79C207.561 537.648 204.954 534.619 203.579 530.72C202.356 527.252 199.734 526.507 196.389 526.173C196.353 528.903 197.729 531.012 198.558 533.238C200.426 538.252 202.568 543.164 204.449 548.173C207.673 556.756 200.86 566.445 191.762 566.342C189.196 566.313 186.625 566.412 184.063 566.294C181.427 566.174 180.643 567.522 181.105 569.814C181.499 571.775 182.035 573.718 182.653 575.622C185.951 585.797 189.86 595.777 192.086 606.289C194.346 616.965 196.277 627.685 197.12 638.58C197.265 640.465 197.617 642.335 197.724 644.22C197.83 646.109 197.067 647.619 194.998 647.738C193.063 647.85 192.289 646.378 192.023 644.729C191.115 639.118 190.857 633.433 190.15 627.791C188.395 613.789 185.26 600.163 180.295 586.958C178.09 581.093 176.456 575.09 175.878 568.827C175.827 568.281 175.839 567.469 175.51 567.252C172.693 565.392 169.493 566.486 166.46 566.252C164.482 566.099 164.184 567.763 163.876 569.164C162.681 574.602 161.592 580.062 160.378 585.495C159.889 587.686 160.824 588.989 162.465 590.302C170.263 596.541 177.521 603.304 182.081 612.41C184.226 616.695 186.355 621.022 186.388 625.994C186.398 627.465 186.516 629.214 184.655 629.502C182.729 629.8 182.413 627.954 182.035 626.621C178.174 613.015 169.472 602.939 158.659 594.389C158.319 594.121 157.906 593.945 157.316 593.604C156.649 594.976 157.04 596.259 157.125 597.528C157.858 608.538 154.731 618.119 145.941 625.138C134.812 634.025 118.695 631.444 111.399 617.841C111.229 625.401 112.911 632.121 115.091 638.757C115.648 640.451 116.306 642.117 116.753 643.839C117.23 645.675 117.209 647.564 115.059 648.333C112.899 649.106 112.117 647.337 111.36 645.837C108.609 640.384 107.479 634.443 106.578 628.502C105.293 620.025 103.987 611.505 105.57 602.902C105.791 601.701 106.045 600.463 106.551 599.365C108.962 594.124 106.941 589.526 103.654 585.886C94.1427 575.351 85.952 563.747 76.5817 553.112C76.2879 552.778 75.8929 552.425 75.8136 552.027C73.9894 542.871 67.4067 534.768 70.1118 524.575C71.5356 519.21 72.4269 513.684 73.252 508.185C74.359 500.808 78.1931 495.022 83.7077 490.437C86.5645 488.061 86.5477 486.074 85.2036 483.026C78.6331 468.123 72.2403 453.142 65.7787 438.192C64.2837 434.733 63.5324 431.207 64.5231 427.448C66.3642 420.463 70.2874 417.358 77.4826 417.332C97.7895 417.258 118.098 417.323 138.403 417.083C146.061 416.992 151.171 420.18 154.092 427.156C160.771 443.104 167.454 459.051 174.157 474.989C179.822 488.461 185.48 501.936 191.221 515.376C192.982 519.498 197.262 519.256 201.196 521.132C201.156 516.364 201.796 512.347 203.044 508.434C203.432 507.215 202.216 506.658 201.415 506.172C198.461 504.381 195.443 502.695 192.448 500.973C191.057 500.174 189.505 499.31 190.248 497.396C191.005 495.444 192.885 495.895 194.325 496.283C198.345 497.366 201.788 499.703 205.722 502.089C207.808 496.664 210.183 491.527 215.199 488.096C212.125 484.818 208.632 483.062 204.724 481.912C198.098 479.963 191.354 478.342 184.965 475.693C179.332 473.358 174.658 469.904 172.99 463.528C172.585 461.978 172.426 460.439 172.586 458.891C172.875 456.099 174.333 454.589 177.309 455.143C186.503 456.856 195.69 458.601 204.884 460.308C207.401 460.776 209.923 461.238 212.461 461.565C220.197 462.562 226.871 465.804 233.018 470.554C241.499 477.106 250.391 483.094 259.812 488.234C264.236 490.647 267.182 494.106 269.002 498.83C273.756 511.174 276.142 524.103 278.78 536.975C280.499 545.363 281.382 553.96 284.073 562.098C285.872 567.542 290.469 570.763 295.755 572.496C298.161 573.285 300.21 574.481 302.253 575.775C312.812 582.464 323.369 589.149 334.632 594.623C335.705 595.145 336.818 595.587 337.945 596.081C339.764 593.747 339.598 591.142 339.823 588.827C342.268 563.664 345.187 538.562 350.738 513.873C356.246 489.371 365.329 466.537 383.689 448.466C387.44 444.774 391.575 441.538 396.39 439.304C397.681 438.704 399.172 437.934 400.166 439.784C401.042 441.413 399.823 442.285 398.732 443.06C375.1 459.837 363.86 484.22 357.352 511.3C352.323 532.224 349.391 553.514 347.648 574.975C347.08 581.958 345.877 588.889 344.984 595.846C344.849 596.899 344.027 598.092 345.12 598.984C346.259 599.914 347.416 599.162 348.559 598.694C361.271 593.485 373.81 594.179 386.119 599.999C390.23 601.943 393.558 604.905 395.978 608.806C396.874 610.251 397.948 611.867 396.226 613.29C394.521 614.7 393.303 613.103 392.281 612.026C388.763 608.316 384.748 605.407 379.609 603.715ZM100.815 430.238C91.8027 429.459 82.7661 429.686 73.7372 429.592C69.6202 429.549 68.8303 430.629 70.5427 434.302C77.7065 449.669 84.1217 465.357 90.6217 481.008C90.9582 481.818 91.1901 482.719 92.1714 483.11C93.7793 482.842 94.8575 481.625 96.1388 480.77C102.075 476.809 107.861 472.599 113.97 468.926C119.385 465.67 124.841 469.088 124.762 475.312C124.722 478.434 123.442 481.152 121.941 483.783C117.287 491.942 110.68 498.431 103.901 504.757C102.425 506.134 101.66 507.272 103.113 509.265C104.623 511.335 105.901 510.758 107.591 509.665C119.019 502.27 130.596 495.125 142.876 489.2C145.936 487.723 149.148 487.19 152.068 489.303C155.165 491.543 156.281 494.716 155.134 498.469C154.694 499.911 155.266 500.658 156.367 501.526C160.28 504.612 161.159 507.917 159.794 512.791C159.04 515.479 157.536 517.836 156.469 520.332C161.865 523.808 162.892 525.832 161.416 530.381C160.905 531.953 160.092 533.456 159.239 534.885C155.671 540.866 151.011 545.978 146.239 550.994C143.89 553.464 141.379 555.796 139.425 558.68C140.582 559.54 141.741 559.236 142.805 559.27C156.955 559.72 171.105 560.143 185.257 560.542C192.721 560.753 193.156 560.245 190.38 553.197C185.475 540.749 180.484 528.334 175.363 515.974C164.478 489.705 153.303 463.555 142.898 437.089C140.725 431.563 139.252 430.334 133.268 430.302C122.671 430.245 112.073 430.257 100.815 430.238ZM114.776 512.447C108.161 516.808 101.463 521.048 95.1769 525.888C91.8185 528.473 88.5039 531.116 85.1175 533.664C83.8886 534.588 82.4919 534.998 81.1807 533.71C79.7282 532.284 80.3786 530.859 81.2812 529.489C81.5827 529.032 81.9671 528.563 82.4261 528.285C87.4085 525.271 89.5456 520.613 90.3179 515.062C90.5616 513.31 91.1518 511.59 91.7318 509.906C92.6145 507.344 93.9967 505.192 96.203 503.408C102.521 498.298 108.177 492.48 113.904 486.185C109.601 486.962 106.515 485.702 104.333 482.13C97.3085 486.867 90.5148 491.5 84.953 497.701C81.9915 501.003 79.8166 504.678 79.0237 509.122C78.0463 514.602 77.1406 520.105 75.8559 525.515C74.6973 530.394 75.4607 534.781 78.0155 538.981C78.7775 540.234 79.3208 541.579 79.2192 543.093C79.0519 545.589 80.0766 547.657 81.5424 549.556C83.1104 551.587 84.708 553.596 86.2965 555.611C97.2108 569.46 107.742 583.679 122.867 593.456C124.448 594.477 125.36 595.943 124.433 597.704C123.392 599.679 121.573 599.065 120.029 598.319C117.756 597.22 115.558 595.966 112.978 594.591C114.042 600.8 115.169 606.568 115.974 612.381C116.487 616.083 118.268 618.832 121.123 621.024C126.813 625.392 135.033 625.515 141.197 621.35C149.428 615.788 153.618 603.27 150.57 593.298C150.099 591.758 149.827 590.081 148.212 588.974C147.873 589.486 147.652 589.859 147.393 590.204C146.376 591.562 145.766 594.004 143.581 593.181C141.282 592.315 142.552 590.17 142.888 588.493C144.031 582.778 144.751 577.061 143.181 571.291C141.544 565.279 140.745 564.763 134.672 564.938C132.412 565.003 131.349 566.492 130.014 567.789C128.896 568.875 127.852 570.054 126.637 571.018C125.593 571.847 124.337 571.844 123.215 571.023C122.032 570.159 122.026 568.913 122.404 567.692C122.878 566.16 123.984 565.025 125.087 563.905C131.041 557.865 137.08 551.904 142.895 545.733C145.53 542.937 148.312 540.17 150.426 536.252C147.951 535.767 146.519 534.218 144.846 532.663C143.028 534.119 141.287 535.481 139.582 536.886C130.712 544.192 121.881 551.545 112.962 558.79C111.301 560.14 109.007 561.356 107.376 559.066C105.952 557.067 107.466 555.42 109.162 554.014C120.154 544.894 131.036 535.641 142.274 526.818C144.754 524.872 147.242 522.82 148.628 519.552C145.418 518.941 142.984 517.519 141.311 514.874C140.554 515.286 139.948 515.556 139.405 515.92C126.321 524.688 113.69 534.05 101.91 544.53C100.077 546.16 98.0113 549.193 95.5523 546.424C93.1306 543.697 96.0722 541.573 98.0101 539.819C107.29 531.417 117.255 523.876 127.451 516.635C132.219 513.249 137.025 509.916 142.279 506.232C139.289 505.663 137.097 504.876 135.572 502.916C134.389 501.394 133.163 501.402 131.553 502.39C126.133 505.715 120.641 508.921 114.776 512.447ZM288.451 602.443C291.727 596.403 293.947 590.045 294.58 583.146C294.79 580.861 294.042 579.36 292.208 578.057C289.39 576.055 286.785 573.752 283.961 571.761C280.384 569.239 278.433 565.936 277.595 561.608C274.847 547.403 271.924 533.23 268.936 519.073C267.601 512.752 266.08 506.456 263.47 500.502C261.753 496.585 259.166 494.096 254.516 493.545C243.528 492.241 232.527 491.768 221.482 491.95C219.055 491.99 217.12 493.107 215.841 495.052C211.316 501.933 208.015 509.41 206.96 517.58C206.307 522.639 207.253 527.668 211.484 532.149C212.836 525.669 213.998 519.788 215.901 514.087C218.426 506.523 220.721 501.268 232.534 501.51C233.309 501.525 234.091 501.398 234.865 501.303C241.231 500.521 247.558 501.597 253.904 501.723C255.553 501.755 257.141 502.362 257.136 504.375C257.13 506.59 255.42 507.012 253.638 507.106C252.414 507.17 251.165 507.266 249.96 507.104C243.486 506.233 237.042 507.156 230.584 507.307C226.518 507.402 223.899 509.212 222.478 513.035C220.569 518.17 219.13 523.433 217.954 528.77C216.718 534.377 217.741 539.594 220.956 544.365C221.744 545.534 222.613 546.594 224.295 546.784C224.219 544.817 222.85 543.422 223.134 541.687C224.274 534.736 225.821 527.902 228.953 521.522C230.019 519.35 231.724 518.018 234.092 517.682C241.386 516.649 248.718 516.108 256.084 516.496C257.663 516.579 259.761 516.56 259.894 518.872C260.04 521.377 257.951 521.605 256.183 521.728C250.403 522.131 244.618 522.512 238.828 522.695C235.724 522.793 233.729 524.039 232.89 527.03C231.717 531.216 230.443 535.38 229.448 539.609C228.455 543.827 232.706 550.755 236.928 552.085C238.853 549.809 237.361 547.687 236.58 545.565C235.711 543.206 238.673 533.777 240.759 532.517C241.131 532.292 241.598 532.081 242.013 532.095C246.577 532.245 251.142 532.395 255.701 532.649C257.35 532.742 258.433 533.687 258.337 535.475C258.243 537.217 257.148 538.051 255.478 538.131C254.03 538.199 252.567 538.305 251.13 538.174C248.593 537.943 247.74 539.014 247.959 541.481C248.657 549.358 249.368 557.216 251.624 564.857C253.087 569.811 255.427 574.1 259.556 577.347C260.566 578.142 262.466 578.913 261.104 580.745C260.015 582.21 258.541 581.621 257.158 580.993C252.136 578.712 249.252 574.656 247.532 569.578C245.678 564.106 244.569 558.458 243.55 552.576C241.266 558.163 237.837 559.736 233.325 557.334C232.062 556.662 230.943 555.696 229.828 554.779C228.755 553.895 227.736 553.065 226.294 553.982C226.263 554.234 226.17 554.469 226.224 554.662C226.343 555.088 226.504 555.51 226.704 555.904C230.383 563.143 234.903 569.769 241.408 574.759C248.19 579.961 254.223 585.709 258.649 593.191C263.631 601.613 270.595 608.665 275.819 617.282C281.467 613.56 285.207 608.538 288.451 602.443ZM155.586 455.04C169.485 488.911 184.065 522.499 197.698 556.827C201.235 552.838 198.965 549.319 197.583 545.96C188.291 523.379 178.911 500.835 169.537 478.288C162.945 462.432 156.268 446.611 149.737 430.73C147.528 425.359 143.992 422.679 137.96 422.878C126.038 423.272 114.104 423.393 102.175 423.425C93.8249 423.447 85.4741 423.118 77.123 422.983C75.7713 422.961 74.2731 422.7 72.9347 424.469C76.6455 424.72 79.9344 425.115 83.2257 425.136C99.9578 425.247 116.69 425.275 133.423 425.304C141.268 425.318 144.277 427.228 147.246 434.415C150.012 441.111 152.685 447.846 155.586 455.04ZM240.005 483.108C237.13 480.995 234.218 478.931 231.39 476.758C225.169 471.979 218.812 467.892 210.686 466.606C200.603 465.01 190.452 463.519 180.597 460.662C179.949 460.474 179.283 460.371 178.45 461.164C179.253 465.072 181.99 467.584 185.452 469.246C188.143 470.538 191.068 471.377 193.939 472.251C202.642 474.9 211.876 476.337 218.904 482.85C222.108 485.82 225.468 487.616 230.003 486.399C231.227 486.071 232.653 486.561 233.987 486.574C237.494 486.608 241.003 486.585 245.009 486.585C243.258 485.354 241.836 484.354 240.005 483.108ZM148.328 568.971C149.038 570.967 149.596 572.998 149.592 575.137C149.584 579.206 151.298 582.045 155.716 583.367C156.855 578.094 158.033 572.844 159.099 567.571C159.397 566.095 158.321 565.659 157.054 565.639C154.723 565.601 152.391 565.602 150.062 565.537C147.763 565.472 147.378 566.573 148.328 568.971ZM139.429 498.824C139.111 501.41 140.795 502.882 143.296 501.964C145.377 501.201 147.217 499.876 148.767 498.286C149.735 497.293 150.191 495.961 149.212 494.662C148.316 493.472 147.027 493.688 145.863 494.1C143.415 494.966 141.338 496.414 139.429 498.824ZM111.326 482.529C114.273 481.8 116.563 480.118 118.323 477.678C119.175 476.497 119.538 475.174 118.513 474.007C117.546 472.905 116.411 473.665 115.502 474.272C113.648 475.511 111.784 476.757 110.076 478.182C107.9 479.997 108.243 481.556 111.326 482.529ZM151.579 507.037C149.695 508.373 147.775 509.623 146.683 511.826C145.714 513.781 146.565 514.831 148.271 515.331C150.246 515.909 151.717 514.743 152.75 513.262C153.939 511.56 155.146 509.7 154.06 507.471C153.682 506.695 152.826 506.636 151.579 507.037ZM151.115 527.953C150.383 528.843 149.084 529.404 149.366 530.94C150.799 532.228 152.283 531.961 153.541 530.842C154.745 529.771 156.386 528.264 155.167 526.699C154.029 525.24 152.642 526.963 151.115 527.953ZM96.9634 516.859C99.9419 514.682 99.9419 514.682 97.4104 513.108C95.7683 515.575 95.7683 515.575 96.9634 516.859ZM268.133 618.713C268.352 621.414 268.352 621.414 270.699 620.221C269.801 618.538 269.801 618.538 268.133 618.713Z" fill="#030454"/>
<path d="M171.577 214.19C176.196 210.552 181.842 208.851 186.913 206.056C203.604 196.857 218.34 184.856 233.647 173.671C236.169 171.828 238.654 169.934 241.17 168.082C242.467 167.127 243.876 166.127 245.256 167.821C246.612 169.486 245.436 170.889 244.244 171.851C239.644 175.562 235.017 179.251 230.245 182.736C214.851 193.982 199.94 205.987 182.371 213.888C180.984 214.512 180.32 215.5 180.137 216.943C180.068 217.493 179.844 218.022 179.761 218.571C179.316 221.532 178.893 224.496 178.385 227.991C179.611 227.116 180.488 226.535 181.317 225.891C189.083 219.858 199.953 221.031 206.179 228.606C206.741 229.29 207.235 230.051 207.645 230.836C208.49 232.456 208.673 234.069 207.023 235.329C205.52 236.477 204.057 236.051 202.767 234.921C200.106 232.59 197.066 231.036 193.616 230.279C185.949 228.598 177.741 234.887 177.622 242.251C177.568 245.602 179.017 245.907 181.719 245.433C188.623 244.222 195.257 245.171 201.535 248.345C207.082 251.15 211.381 255.213 214.097 260.872C214.415 261.535 214.476 262.442 215.5 262.661C217.086 262.241 216.587 261.145 216.345 260.032C215.397 255.684 214.394 251.342 213.652 246.958C213.341 245.119 212.501 243.014 214.525 241.175C216.143 241.967 216.902 243.442 217.526 244.938C219.326 249.254 221.306 253.522 221.886 258.237C222.023 259.346 222.377 260.359 223.614 260.286C226.546 260.113 229.275 261.157 232.169 261.728C233.044 259.144 233.65 256.658 234.697 254.375C240.61 241.482 252.776 234.218 266.892 234.715C276.496 235.053 284.736 238.215 291.309 245.365C291.908 246.016 292.502 246.719 293.455 246.881C301.6 248.269 309.755 249.148 317.97 247.329C318.56 246.133 317.577 245.441 317.08 244.656C314.797 241.057 312.904 237.285 311.671 233.19C311.333 232.065 310.994 230.921 312.319 230.287C313.646 229.652 314.738 230.267 315.461 231.413C317.246 234.241 318.816 237.216 320.747 239.937C325.11 246.082 330.231 251.456 336.861 255.277C338.534 256.241 339.572 256.18 340.872 254.771C342.148 253.389 343.599 252.107 345.159 251.06C354.247 244.962 364.023 248.226 367.674 258.584C369.925 264.974 369.768 271.559 368.468 278.067C365.922 290.806 359.689 301.385 349.11 309.116C344.732 312.316 339.916 314.664 334.215 313.931C332.751 313.743 332.149 314.502 331.818 315.671C329.229 324.809 326.96 333.999 327.553 343.622C327.762 347.01 330.575 348.853 335.609 348.551C332.851 343.643 331.853 338.494 332.614 333.086C332.83 331.553 333.192 330.024 333.665 328.551C333.958 327.64 334.414 326.472 335.714 326.796C336.875 327.086 337.006 328.196 337.031 329.238C337.042 329.684 337.049 330.131 337.034 330.577C336.811 337.475 339.129 343.455 343.416 348.794C344.38 349.995 346.135 351.118 345.045 353.126C344.049 354.963 342.229 355.202 340.413 355.18C336.282 355.13 332.229 354.509 327.806 352.951C327.778 357.855 328.504 362.387 329.376 366.882C332.38 382.35 341.977 392.016 356.367 397.497C372.303 403.567 388.524 408.928 403.852 416.524C415.158 422.127 425.173 429.106 430.854 440.958C435.501 450.653 437.461 461.028 438.779 471.56C439.723 479.098 439.648 486.698 439.465 494.275C439.1 509.329 437.521 524.29 435.352 539.177C431.606 564.885 426.316 590.284 419.401 615.327C416.88 624.459 413.939 633.475 411.177 642.54C410.917 643.393 410.589 644.226 410.253 645.052C409.529 646.84 408.476 648.387 406.274 647.589C404.174 646.828 404.047 645.082 404.658 643.14C407.236 634.954 409.924 626.799 412.309 618.557C420.153 591.452 425.825 563.896 429.891 535.964C432.875 515.458 433.937 494.882 432.877 474.259C432.257 462.215 429.747 450.389 423.068 439.89C419.955 434.998 416.061 430.942 411.192 427.833C397.533 419.113 382.297 413.919 367.253 408.318C364.565 407.318 361.75 405.135 359.097 405.92C356.529 406.681 356.011 410.321 354.279 412.488C335.491 435.995 312.691 453.221 282.043 457.432C271.49 458.882 260.866 458.201 251.063 452.985C238.305 446.197 233.429 433.862 238.189 420.237C238.323 419.853 238.422 419.456 238.606 418.829C217.627 424.324 198.121 431.742 184.764 449.852C184.565 450.121 184.374 450.407 184.127 450.627C182.944 451.68 181.945 453.672 179.999 452.222C178.239 450.911 179.114 449.183 180.013 447.737C184.539 440.461 190.02 434.084 197.2 429.245C206.102 423.245 216.029 419.638 226.167 416.46C234.903 413.721 243.517 410.729 251.341 405.765C253.949 404.11 254.848 402.23 253.996 399.398C253.326 397.171 253.873 394.371 252.25 392.734C250.498 390.965 248.024 392.84 245.844 392.837C237.914 392.829 230.728 390.623 225.04 385.115C213.659 374.095 202.32 362.989 193.577 349.619C186.472 338.755 179.416 327.69 177.215 314.711C175.902 306.969 173.373 300.974 167.332 295.538C160.718 289.588 157.864 281.069 157.844 271.957C157.839 269.906 157.315 268.529 155.597 267.171C151.874 264.228 152.573 258.757 157.005 257.158C160.102 256.041 162.439 254.292 164.564 251.97C165.235 251.237 166.005 250.403 166.896 250.093C171.98 248.322 172.205 244.38 171.917 239.91C171.58 234.671 171.808 229.407 173.161 224.297C174.016 221.069 173.884 218.32 170.818 215.942C171.112 215.06 171.345 214.625 171.577 214.19ZM219.722 278.962C217.96 286.367 215.685 293.576 211.808 300.197C211.307 301.052 210.966 302.031 210.709 302.994C209.322 308.203 210.785 310.564 216.101 311.579C221.682 312.645 227.198 311.607 232.725 310.943C234.597 310.718 236.425 310.926 237.011 313.121C237.532 315.07 236.106 316.143 234.612 316.599C226.949 318.935 219.202 320.215 211.354 317.402C206.944 315.821 204.915 312.523 204.673 307.943C204.595 306.46 205.066 304.88 204.088 303.093C197.121 307.133 189.699 306.754 181.865 305.888C182.175 308.26 182.246 310.375 182.746 312.384C186.483 327.401 194.384 340.289 203.487 352.54C209.429 360.537 216.65 367.4 223.3 374.768C228.118 380.107 233.193 385.363 240.872 386.127C248.366 386.873 255.536 384.964 262.277 381.862C279.155 374.095 293.629 363.042 305.501 348.758C314.024 338.504 321.421 327.492 325.658 314.664C326.426 312.341 326.941 309.928 327.8 307.643C328.686 305.288 330.345 304.591 332.52 306.215C334.973 308.047 337.568 307.755 340.134 306.685C354.68 300.619 365.823 279.531 362.68 263.999C361.904 260.162 360.49 256.562 356.404 255.159C352.174 253.706 348.842 255.828 345.784 258.471C345.196 258.979 344.717 259.612 344.159 260.157C339.177 265.019 336.419 271.294 333.274 277.32C332.337 279.114 331.214 280.488 328.903 280.236C326.736 280 326.437 278.221 325.876 276.69C323.494 270.189 321.806 263.484 320.273 256.746C319.817 254.742 318.96 253.993 316.864 254.087C311.751 254.317 306.665 255.096 301.504 254.578C299.051 254.332 297.353 256.808 297.419 259.434C297.549 264.668 298.051 269.931 296.863 275.112C293.777 288.571 286.433 298.345 272.472 301.532C259.18 304.566 248.294 299.954 239.946 289.406C235.795 284.163 233.483 278.013 232.283 271.423C231.803 268.793 228.476 266.813 225.386 266.879C222.254 266.946 221.659 269.098 221.23 271.543C220.825 273.846 220.3 276.127 219.722 278.962ZM244.392 419.739C239.127 431.086 242.904 441.915 254.333 447.827C264.841 453.263 275.885 452.608 286.943 450.142C310.387 444.914 328.999 431.803 344.703 414.132C347.71 410.749 350.569 407.18 352.343 403.07C351.551 401.748 350.363 401.61 349.383 401.148C336.55 395.099 327.82 385.483 324.214 371.637C322.13 363.641 321.222 355.444 321.223 347.164C321.224 344.566 321.224 341.968 321.224 338.54C320.227 339.848 319.798 340.353 319.432 340.9C304.686 362.996 285.486 379.74 260.704 389.748C258.837 390.502 258.569 391.628 258.963 393.427C260.177 398.964 261.236 404.535 262.407 410.082C263.746 416.425 264.59 422.802 264.071 429.306C263.931 431.061 263.693 432.908 261.589 433.086C259.196 433.287 258.748 431.269 258.553 429.461C258.326 427.359 258.453 425.218 258.226 423.116C257.778 418.97 257.192 414.839 256.613 410.314C251.818 412.897 247.257 414.79 244.392 419.739ZM240.427 256.955C235.411 268.114 238.607 277.896 245.816 286.736C257.868 301.515 280.888 298.133 288.504 280.644C291.168 274.525 291.497 268.139 291.08 261.628C290.8 257.251 289.189 253.396 286.363 250.076C275.85 237.724 250.112 237.028 240.427 256.955ZM181.79 276.766C183.343 280.352 183.531 284.083 182.982 287.896C182.602 290.535 182.317 293.191 181.833 295.81C181.422 298.035 182.223 299.169 184.424 299.559C188.302 300.247 192.186 300.497 196.031 299.537C206.332 296.967 211.665 289.209 211.511 277.164C211.299 260.472 198.371 249.298 181.885 251.504C179.209 251.862 178.076 253.025 178.252 255.902C178.676 262.815 179.508 269.629 181.79 276.766ZM173.913 270.291C172.955 265.311 172.628 260.247 172.344 255.052C167.312 257.206 164.127 264.059 164.195 271.746C164.279 281.353 168.383 288.844 176.123 295.334C176.578 291.771 176.921 289.038 177.278 286.307C177.477 284.783 177.906 283.323 177.214 281.739C175.694 278.256 174.905 274.534 173.913 270.291ZM328.985 256.847C327.967 256.391 327.341 254.973 325.656 255.595C326.749 260.528 328.266 265.269 330.097 270.56C332.241 266.882 334.033 263.808 335.809 260.761C333.409 259.406 331.391 258.266 328.985 256.847Z" fill="#030454"/>
<path d="M171.571 131.304C171.595 139.115 171.629 146.59 171.632 154.065C171.634 158.501 171.12 158.933 166.577 159.028C130.23 159.789 93.8762 159.621 57.5242 159.707C56.1899 159.711 54.8563 159.905 53.5217 159.914C51.6216 159.928 50.222 159.169 50.0824 157.082C49.9316 154.829 51.1396 153.776 53.3372 153.872C55.3763 153.961 56.0579 152.969 56.0503 151.021C55.9832 133.729 55.9661 116.436 55.9258 99.1429C55.9251 98.8233 55.821 98.504 55.5315 96.8496C53.5397 99.1889 52.1257 100.976 50.5733 102.633C49.3336 103.956 47.7931 104.642 46.1238 103.357C44.4041 102.032 44.3978 100.258 45.449 98.5781C46.4481 96.981 47.6319 95.48 48.8709 94.0556C60.9449 80.1742 73.6497 66.8377 84.9152 52.2586C86.0796 50.7517 87.4608 49.6672 89.485 50.2405C97.3174 52.4592 105.412 53.2691 113.387 54.7169C123.017 56.4654 132.674 58.0721 142.33 59.6833C145.77 60.2574 148.438 61.8184 150.823 64.4723C160.513 75.2562 169.57 86.6003 179.627 97.058C180.627 98.0973 181.652 99.1927 182.004 100.651C182.618 103.195 180.751 104.731 176.732 105.059C171.538 105.483 171.517 105.483 171.516 110.552C171.515 117.358 171.55 124.164 171.571 131.304ZM112.749 83.8097C105.461 75.5656 98.1728 67.3214 90.7761 58.9543C89.9077 59.6743 89.3503 60.0326 88.9216 60.5072C81.0707 69.1994 73.2647 77.9322 65.3798 86.5933C62.8115 89.4143 60.1438 92.0648 61.8041 96.4175C62.0636 97.0978 61.8272 97.9657 61.8272 98.7469C61.8264 115.6 61.8757 132.453 61.7796 149.305C61.7631 152.197 62.3887 153.741 65.6645 153.426C68.208 153.181 70.7918 153.355 73.3577 153.346C78.2155 153.328 78.2212 153.328 78.2154 148.627C78.2027 138.47 78.2432 128.314 78.1286 118.158C78.0968 115.337 79.0779 114.055 81.9845 114.07C86.6655 114.093 91.3486 113.946 96.0288 113.803C99.347 113.701 100.475 115.268 100.448 118.516C100.362 128.893 100.569 139.272 100.495 149.65C100.476 152.425 101.425 153.365 104.181 153.264C109.195 153.081 114.225 153.053 119.238 153.242C122.117 153.351 123.145 152.498 123.107 149.487C122.943 136.319 122.235 123.091 123.22 109.997C124.027 99.2714 121.116 90.9456 112.749 83.8097ZM159.642 153.16C160.646 153.163 161.656 153.095 162.653 153.183C165.171 153.407 165.922 152.229 165.886 149.818C165.675 135.765 165.538 121.711 165.463 107.657C165.449 105.016 164.213 104.089 161.779 104.093C156.537 104.102 151.308 103.885 146.08 103.419C140.473 102.919 134.843 102.667 129.446 102.321C129.446 118.602 129.474 134.544 129.415 150.486C129.406 152.843 130.576 153.233 132.549 153.218C141.362 153.154 150.176 153.174 159.642 153.16ZM169.112 98.2221C169.938 98.1107 170.974 98.3928 171.236 96.9547C162.527 87.8034 154.422 78.0142 146.212 68.3174C144.78 66.6266 142.931 66.1555 140.917 65.8578C129.255 64.1336 117.623 62.2364 106.043 60.0173C104.641 59.7488 103.057 59.14 101.557 60.421C101.941 61.0092 102.197 61.4983 102.541 61.9142C111.719 73.0034 121.765 83.3147 131.311 94.0736C133.121 96.1138 135.392 96.7294 137.862 96.8513C148.1 97.3565 158.341 97.7767 169.112 98.2221ZM88.1749 153.275C88.6209 153.268 89.0669 153.261 89.513 153.253C94.2638 153.173 94.2624 153.173 94.2524 148.474C94.2365 140.999 94.2225 133.523 94.2078 126.048C94.1956 119.851 94.1973 119.935 87.875 120.063C85.4887 120.111 84.4617 120.878 84.4881 123.375C84.5833 132.411 84.583 141.449 84.5172 150.486C84.5007 152.749 85.5052 153.493 88.1749 153.275Z" fill="#030454"/>
<path d="M124.322 311.496C125.61 312.039 126.478 312.716 127.156 313.637C135.436 324.887 145.23 334.848 154.244 345.474C155.303 346.722 156.761 347.889 155.827 349.85C154.902 351.792 153.121 352.118 151.281 351.877C148.714 351.54 147.906 352.805 147.795 355.085C147.373 363.781 147.643 372.479 147.737 381.175C147.768 384.073 147.957 386.969 148.083 389.865C148.224 393.109 146.769 394.996 143.447 395.08C137.876 395.22 132.303 395.317 126.73 395.331C99.7416 395.396 72.7531 395.429 45.7646 395.469C44.8729 395.47 43.9788 395.47 43.0899 395.409C41.5956 395.309 40.5321 394.531 40.1814 393.08C39.8175 391.574 40.5101 390.331 41.9065 389.858C43.4381 389.339 43.9801 388.481 43.9989 386.918C44.1574 373.763 42.9327 360.639 43.4952 347.177C41.6925 347.625 41.1418 348.922 40.2763 349.818C38.7321 351.417 36.9244 353.001 34.7936 351.357C32.5312 349.612 33.8687 347.435 35.1976 345.766C39.9205 339.833 44.7562 333.991 49.5603 328.123C56.7662 319.322 64.0647 310.595 71.1463 301.695C73.5307 298.699 75.7194 297.831 79.6775 299.017C94.3938 303.428 109.265 307.32 124.322 311.496ZM97.8173 331.887C90.5066 323.414 83.196 314.94 75.7473 306.307C68.0485 315.751 60.8072 324.807 53.3576 333.687C50.4479 337.156 48.7158 340.352 48.8842 345.407C49.3296 358.775 49.4597 372.17 49.6089 385.556C49.6393 388.28 50.4933 389.305 53.284 389.252C61.537 389.097 69.7968 389.03 78.0483 389.201C81.1929 389.266 82.3936 388.424 82.3042 385.105C82.097 377.41 82.2965 369.705 82.228 362.005C82.2006 358.924 83.4621 357.444 86.6121 357.543C89.3982 357.631 92.1895 357.552 94.9786 357.549C100.094 357.543 100.596 358.026 100.604 363.027C100.617 370.282 100.624 377.536 100.623 384.791C100.623 387.042 100.204 389.235 103.856 389.151C107.228 389.073 106.923 387.123 106.918 384.944C106.896 375.234 106.28 365.471 107.087 355.828C107.892 346.212 105.721 338.36 97.8173 331.887ZM127.442 349.253C122.471 349.039 117.627 347.396 112.467 347.774C112.326 348.428 112.107 348.958 112.114 349.485C112.289 361.864 112.512 374.243 112.664 386.623C112.692 388.923 114.102 389.011 115.794 389.006C123.268 388.983 130.744 388.87 138.213 389.052C141.216 389.125 142.056 388.027 142.008 385.171C141.837 374.907 141.782 364.639 141.863 354.375C141.883 351.891 140.79 350.959 138.63 350.672C135.1 350.204 131.571 349.737 127.442 349.253ZM123.94 319.12C123.036 317.578 121.646 316.821 119.945 316.355C113.607 314.618 107.287 312.815 100.974 310.99C95.7942 309.492 90.6344 307.926 84.7841 306.188C85.4847 307.251 85.7027 307.625 85.9619 307.968C94.5179 319.294 104.346 329.521 113.738 340.124C114.618 341.118 115.764 341.375 117.016 341.551C124.399 342.59 131.762 343.78 139.161 344.68C141.146 344.921 143.196 345.845 145.829 344.938C138.228 336.448 130.614 328.485 123.94 319.12ZM94.8541 367.592C95.0195 365.058 94.9785 363.085 91.3194 363.213C87.9284 363.332 87.9031 365.125 87.9784 367.554C88.1644 373.551 88.328 379.551 88.3601 385.55C88.3731 387.989 89.0481 389.205 91.7825 389.174C94.7322 389.142 94.9102 387.501 94.8819 385.259C94.8104 379.583 94.8557 373.906 94.8541 367.592Z" fill="#030454"/>
<path d="M348.696 149.309C364.233 152.912 374.479 162.968 382.767 175.504C396.942 196.943 401.673 220.737 399.838 246.023C399.323 253.126 397.842 260.151 395.253 266.861C394.732 268.211 394.151 269.548 393.472 270.825C392.818 272.057 391.814 273.238 390.303 272.605C388.798 271.974 388.942 270.482 389.359 269.116C391.086 263.46 392.518 257.746 393.235 251.854C396.919 221.568 389.83 194.227 370.386 170.56C363.013 161.584 353.332 155.852 341.391 155.049C336.267 154.704 331.516 156.047 327.308 159.293C323.577 162.17 320.207 161.322 319.255 157.243C316.223 144.257 306.873 137.96 295.042 134.94C279.343 130.932 263.566 132.415 248.084 136.469C222.387 143.197 199.355 154.991 180.249 173.756C171.115 182.727 163.423 192.799 157.98 204.495C152.703 215.838 151.383 227.528 154.496 239.682C154.828 240.976 155.214 242.268 155.398 243.585C155.574 244.849 155.349 246.168 153.967 246.653C152.557 247.148 151.968 245.897 151.467 244.955C149.507 241.268 148.487 237.239 147.859 233.17C145.725 219.355 148.952 206.562 155.908 194.661C170.074 170.422 190.773 153.502 215.863 141.581C230.556 134.6 245.881 129.573 262.017 127.376C276.444 125.412 290.776 125.765 304.405 131.645C313.795 135.696 320.901 142.184 324.135 152.26C324.334 152.881 324.414 153.597 325.37 154.056C332.334 149.63 340.023 147.697 348.696 149.309Z" fill="#030454"/>
<path d="M341.538 50.1494C361.817 56.625 382.509 59.7596 403.219 62.8191C408.388 63.5827 413.577 64.2904 418.687 65.3578C423.373 66.3367 423.896 67.9139 420.681 71.5824C413.03 80.3128 405.531 89.137 399.267 98.9561C394.544 106.36 390.578 114.013 389.731 122.95C389.449 125.917 388.232 127.485 384.704 127.021C356.312 123.289 329.547 114.769 304.68 100.429C291.941 93.0833 279.852 84.5703 266.117 78.996C262.993 77.7281 262.751 75.8526 265.241 73.7754C278.19 62.976 289.51 50.7925 298.011 36.1052C300.147 32.4154 302.404 32.5626 305.97 35.0925C310.153 38.0597 314.985 39.948 319.671 42.0266C326.71 45.1486 333.981 47.653 341.538 50.1494ZM303.266 40.0766C302.869 40.4582 302.368 40.7761 302.09 41.2304C294.555 53.5242 284.776 63.897 274.365 73.734C273.83 74.2399 273.051 74.6759 273.368 75.8261C276.991 77.7614 280.744 79.6986 284.434 81.7499C295.154 87.7104 305.086 94.9969 316.192 100.332C336.12 109.906 356.902 116.7 378.733 120.238C383.478 121.007 383.478 120.962 384.692 116.267C385.026 114.972 385.376 113.678 385.793 112.409C389.81 100.179 397.344 90.0897 405.394 80.3282C407.98 77.1931 410.69 74.1608 413.54 70.8528C412.383 70.4293 411.783 70.0933 411.145 69.994C403.669 68.8292 396.187 67.7035 388.707 66.5606C371.515 63.9335 354.511 60.5099 337.947 55.0654C326.038 51.1511 314.671 46.059 303.266 40.0766Z" fill="#030454"/>
<path d="M108.958 199.145C113.015 208.017 119.677 214.149 127.484 219.195C131.559 221.828 131.623 224.353 127.312 226.411C115.172 232.205 105.798 241.394 96.625 250.89C83.1822 264.807 67.8996 276.274 50.5922 284.97C48.2103 286.167 45.7082 287.175 43.1746 288.003C40.9758 288.723 39.4924 287.93 39.3007 285.356C38.3182 272.166 32.9949 260.639 25.5705 249.958C22.1713 245.068 22.1538 245.019 27.1501 241.874C37.1573 235.575 45.373 227.208 53.4955 218.757C65.2664 206.51 78.2947 195.976 93.8553 188.873C96.1823 187.81 98.5954 186.907 101.028 186.114C104.256 185.062 105.39 185.699 105.903 189.016C106.437 192.469 107.481 195.732 108.958 199.145ZM55.8499 275.919C69.8556 267.805 82.1679 257.581 93.5216 246.087C100.095 239.433 106.389 232.411 114.488 227.456C116.93 225.962 119.396 224.505 122.293 222.766C111.037 215.324 103.512 205.583 100.679 192.512C99.2796 192.997 98.4245 193.226 97.6248 193.58C86.4147 198.548 76.173 205.067 67.2155 213.428C59.0618 221.038 51.3291 229.1 43.1846 236.72C39.2289 240.421 34.7559 243.569 30.3436 247.107C37.1464 257.713 42.8411 268.699 44.4487 281.559C48.6395 279.962 52.0308 278.057 55.8499 275.919Z" fill="#030454"/>
<path d="M383.417 323.955C392.689 318.541 400.892 312.317 406.217 302.979C409.583 297.076 411.67 290.814 411.745 283.937C411.785 280.166 414.267 278.479 417.14 280.627C428.576 289.177 437.596 299.302 437.479 314.803C437.458 317.619 437.026 320.393 436.153 323.026C429.204 343.978 417.733 361.112 396.269 369.636C390.287 372.012 383.985 372.736 377.604 372.852C374.528 372.908 373.163 370.862 374.239 367.581C375.21 364.62 376.474 361.752 376.798 358.613C377.673 350.151 375.989 342.205 371.963 334.731C370.002 331.09 370.419 330.055 374.15 328.397C377.204 327.039 380.186 325.519 383.417 323.955ZM417.761 345.922C423.342 338.597 427.95 330.767 430.652 321.88C434.404 309.537 428.449 296.52 417.032 288.163C413.442 311.581 397.497 324.159 377.219 333.197C382.951 344.188 384.047 355.56 380.806 367.498C386.988 366.972 392.207 365.625 397.207 363.283C405.479 359.408 412.218 353.756 417.761 345.922Z" fill="#030454"/>
<path d="M376.919 295.934C373.864 302.345 369.78 307.797 365.685 313.226C361.023 319.408 357.419 325.933 357.769 334.016C357.828 335.376 357.575 336.851 355.831 337.037C354.324 337.198 353.795 335.973 353.303 334.799C351.289 329.984 352.732 325.431 354.203 320.82C356.605 313.289 361.882 307.558 366.24 301.261C374.414 289.452 378.835 276.25 380.797 262.17C382.094 252.857 382.014 243.511 380.39 234.213C380.215 233.212 380.017 232.052 381.263 231.651C382.803 231.155 383.516 232.315 383.966 233.498C386.046 238.964 387.069 244.679 387.212 250.482C387.603 266.388 383.774 281.389 376.919 295.934Z" fill="#030454"/>
<path d="M221.683 82.6062C225.457 75.5084 230.283 69.829 237.8 67.0026C239.267 66.4506 241.108 65.2873 242.224 67.4051C243.19 69.2392 241.486 70.0771 240.37 71.1664C237.089 74.3669 236.584 78.4656 237.71 82.5724C239.788 90.149 245.397 93.9678 252.768 95.5649C254.07 95.8471 255.395 96.0333 256.716 96.2234C257.791 96.3782 258.701 96.7276 258.815 97.9673C258.919 99.1008 258.322 99.8822 257.331 100.349C255.62 101.155 253.871 101.882 252.178 102.724C246.793 105.4 242.512 109.038 241.151 115.288C240.619 117.727 238.685 117.468 236.868 117.179C228.579 115.859 221.155 108.078 219.393 99.4199C218.2 93.5546 219.435 88.1767 221.683 82.6062ZM232.125 79.4006C230.981 77.1005 230.168 79.0777 229.508 79.7168C223.893 85.1576 222.387 94.9679 226.029 102.302C228.205 106.685 231.364 110.071 236.252 112.08C238.689 106.422 242.487 102.212 247.878 99.2694C238.355 94.2161 237.488 93.4086 234.763 88.4493C233.277 85.7458 232.953 82.7527 232.125 79.4006Z" fill="#030454"/>
<path d="M297.619 186.634C302.601 212.132 319.042 226.32 342.52 233.759C342.732 233.827 342.949 233.882 343.163 233.945C344.884 234.45 347.081 234.864 346.621 237.196C346.142 239.618 343.81 239.599 341.96 239.151C317.673 233.269 297.237 216.883 292.028 190.769C290.918 185.204 291.474 179.411 293.152 173.871C293.725 171.979 294.746 169.975 296.977 170.392C299.43 170.851 299.112 173.172 298.854 175.078C298.347 178.823 297.287 182.504 297.619 186.634Z" fill="#030454"/>
<path d="M207.811 215.799C221.779 208.128 233.103 197.629 243.818 186.338C250.918 178.856 258.592 172.032 268.701 168.816C274.899 166.844 281.187 166.594 287.393 168.878C289.012 169.473 291.235 170.076 290.566 172.417C289.936 174.622 287.946 174.319 286.08 173.876C275.257 171.311 266.174 175.32 257.734 181.55C252.06 185.738 247.215 190.827 242.33 195.884C234.231 204.269 225.352 211.662 214.719 216.705C212.8 217.616 210.848 218.523 208.695 218.533C206.535 218.542 205.988 217.632 207.811 215.799Z" fill="#030454"/>
<path d="M277.588 219.305C268.11 215.375 259.686 217.262 251.95 223.065C249.741 224.722 247.876 226.848 245.906 228.812C244.94 229.774 244.074 230.961 242.533 230.002C241.029 229.066 240.531 227.575 241.032 225.928C241.721 223.663 242.964 221.636 244.557 219.911C257.087 206.349 279 206.084 290.586 221.046C291.063 221.661 291.515 222.304 291.903 222.977C292.779 224.495 293.492 226.149 291.759 227.463C290.188 228.653 288.537 228.117 287.208 226.876C284.272 224.136 281.375 221.359 277.588 219.305Z" fill="#030454"/>
<path d="M36.7871 135.28C31.6591 144.726 30.0129 154.182 35.4481 163.789C39.4849 170.924 45.6953 174.742 54.0424 174.757C55.4904 174.76 56.9459 174.735 58.3842 174.869C59.8135 175.003 61.5393 175.095 61.5692 177.061C61.5955 178.795 60.0454 178.981 58.7183 179.284C46.4325 182.088 33.638 175.065 29.2774 162.933C25.1771 151.525 27.2419 141.002 34.3887 131.397C35.3536 130.1 36.5075 127.715 38.5045 129.28C40.3609 130.734 38.522 132.47 37.6366 133.946C37.4074 134.328 37.1583 134.698 36.7871 135.28Z" fill="#030454"/>
<path d="M171.632 213.984C171.344 214.625 171.111 215.06 170.769 215.717C165.641 223.911 163.909 232.527 165.718 241.789C166.1 243.744 166.679 245.885 164.167 246.456C161.788 246.997 160.477 245.052 159.924 243.042C158.381 237.429 159.041 231.773 160.083 226.168C161.7 217.468 166.143 210.204 171.871 203.654C173.326 201.99 175.345 199.724 177.437 201.397C179.791 203.281 177.269 205.375 176.127 207.12C174.667 209.35 172.84 211.338 171.632 213.984Z" fill="#030454"/>
<path d="M198.733 92.4114C194.319 76.5745 198.93 63.4212 209.703 52.031C211.682 49.939 214.04 48.1909 216.314 46.3997C217.343 45.5891 218.668 44.6863 219.866 46.076C221.194 47.6176 219.731 48.3966 218.753 49.2868C211.191 56.1673 204.964 63.9607 202.987 74.2952C201.742 80.799 201.718 87.3641 203.866 93.7702C204.149 94.6155 204.505 95.4369 204.772 96.2868C205.109 97.3593 205.529 98.5768 204.261 99.2642C202.965 99.9661 202.112 98.9716 201.555 98.0043C200.557 96.273 199.721 94.4486 198.733 92.4114Z" fill="#030454"/>
<path d="M53.4823 524.838C54.2882 525.911 54.7033 526.858 53.6736 527.677C52.7426 528.418 51.7748 528.005 50.9025 527.414C48.9365 526.081 47.3569 524.355 46.0762 522.381C37.7527 509.552 37.9902 488.667 46.5871 476.019C47.1494 475.192 47.7382 474.368 48.418 473.639C49.2917 472.703 50.1786 471.212 51.6957 472.377C53.0262 473.398 52.4571 474.8 51.7076 475.986C48.3246 481.336 46.2403 487.099 45.4642 493.426C44.0582 504.889 46.458 515.306 53.4823 524.838Z" fill="#030454"/>
<path d="M23.9635 401.918C20.9946 395.169 21.3808 388.669 23.9612 382.19C24.2892 381.367 24.7049 380.568 25.1661 379.811C25.6922 378.946 26.3592 377.931 27.5077 378.356C28.814 378.84 28.643 380.181 28.4281 381.238C28.0528 383.085 27.5299 384.905 26.9953 386.715C24.2711 395.937 31.6782 409.117 43.3765 411.838C45.9017 412.426 48.4614 412.392 50.9852 412.795C51.9643 412.951 53.2116 412.959 53.3808 414.186C53.5823 415.647 52.2587 415.884 51.2069 416.227C43.7419 418.66 32.5483 414.522 27.2134 407.273C26.0305 405.665 25.1073 403.867 23.9635 401.918Z" fill="#030454"/>
<path d="M326.236 200.771C324.048 196.976 322.286 193.266 321.455 189.183C321.235 188.098 320.916 186.8 322.33 186.332C323.574 185.92 324.454 186.81 325.019 187.814C325.672 188.974 326.166 190.222 326.746 191.423C332.043 202.39 340.354 210.557 350.502 217.021C353.052 218.645 355.582 220.302 357.974 222.353C355.099 223.705 352.385 223.64 349.745 222.294C340.011 217.328 332.152 210.289 326.236 200.771Z" fill="#030454"/>
<path d="M405.368 132.879C409.866 129.829 413.106 125.85 416.418 121.945C416.922 121.351 417.315 120.655 417.862 120.109C418.984 118.986 420.318 117.715 421.904 118.905C423.427 120.048 422.878 121.718 421.996 123.113C414.856 134.413 404.821 141.574 391.663 144.205C389.159 144.706 386.634 145.115 384.051 144.918C382.694 144.814 381.381 144.713 380.506 143.211C380.955 141.555 382.41 141.393 383.813 141.125C391.406 139.677 398.731 137.515 405.368 132.879Z" fill="#030454"/>
<path d="M343.681 323.246C344.318 321.172 344.773 319.331 345.439 317.569C346.059 315.931 347.384 314.979 349.129 315.543C350.782 316.076 350.494 317.687 350.301 318.978C349.923 321.501 349.438 324.01 348.924 326.509C347.583 333.026 348.788 338.86 353.388 343.845C354.292 344.825 355.113 345.885 355.92 346.948C356.594 347.834 357.373 348.775 356.409 349.918C355.441 351.067 354.233 351.423 352.832 350.732C349.849 349.259 347.617 346.97 345.91 344.162C341.948 337.646 341.985 330.664 343.681 323.246Z" fill="#030454"/>
<path d="M328.408 162.2C332.492 159.063 336.854 160.585 340.705 161.681C349.618 164.215 356.267 170.092 361.211 177.875C361.881 178.929 363.032 180.243 361.567 181.428C360.273 182.474 358.978 181.582 357.97 180.708C356.374 179.326 354.931 177.768 353.381 176.331C347.139 170.547 340.07 166.303 331.619 164.596C330.284 164.326 328.573 164.44 328.408 162.2Z" fill="#030454"/>
<path d="M427.025 376.956C428.607 375.068 430.008 373.336 431.451 371.639C432.016 370.975 432.606 370.129 433.67 370.706C434.744 371.288 434.827 372.285 434.485 373.322C433.223 377.143 430.845 380.247 427.842 382.797C419.988 389.468 410.673 392.467 400.543 393.271C400.211 393.297 399.863 393.314 399.543 393.245C398.183 392.953 396.257 393.138 396.231 391.202C396.208 389.539 397.983 389.38 399.243 389.128C401.858 388.607 404.529 388.355 407.131 387.782C414.708 386.112 421.323 382.604 427.025 376.956Z" fill="#030454"/>
<path d="M311.504 157.585C312.433 159.354 312.645 160.864 310.954 161.918C309.303 162.948 308.173 161.738 307.25 160.642C300.944 153.156 293.025 148.628 283.301 147.27C281.584 147.03 279.748 146.385 280.104 144.213C280.441 142.164 282.417 142.377 283.931 142.481C295.326 143.269 304.779 147.697 311.504 157.585Z" fill="#030454"/>
<path d="M169.241 410.129C176.058 417.223 179.041 425.383 177.621 434.98C177.437 436.222 177.411 438.115 175.669 437.951C173.827 437.778 173.964 435.843 173.924 434.439C173.679 425.671 170.034 418.319 164.602 411.687C163.653 410.529 161.786 409.302 163.155 407.767C164.601 406.146 166.183 407.777 167.538 408.664C168.093 409.027 168.557 409.527 169.241 410.129Z" fill="#030454"/>
<path d="M119.132 255.94C120.391 255.545 121.367 255.549 121.855 256.734C122.248 257.69 121.79 258.511 121.134 259.141C114.928 265.094 111.197 272.399 109.191 280.687C108.926 281.781 108.216 282.836 106.866 282.66C105.384 282.466 104.952 281.285 104.967 279.953C105.006 276.56 106.045 273.411 107.401 270.347C109.967 264.552 113.462 259.505 119.132 255.94Z" fill="#030454"/>
<path d="M83.3592 449.648C82.7241 447.819 82.129 446.252 82.182 444.538C82.2864 441.159 84.6911 439.803 87.6665 441.439C88.7875 442.055 89.584 442.979 90.1209 444.1C91.9011 447.816 93.6515 451.547 95.3797 455.288C95.6553 455.884 95.8449 456.55 95.9246 457.202C96.1988 459.444 95.9601 461.493 93.4487 462.414C91.0242 463.304 89.518 461.867 88.5226 460.059C86.6984 456.746 85.1325 453.291 83.3592 449.648Z" fill="#030454"/>
<path d="M241.679 332.133C249.841 330.278 257.804 328.745 265.306 325.485C262.743 319.864 263.664 318.605 269.684 318.655C273.019 318.683 275.799 319.851 277.911 322.392C279.076 323.795 279.915 325.424 278.642 327.259C277.444 328.987 275.872 329.348 273.965 328.497C273.577 328.324 273.113 328.32 272.487 328.2C269.193 334.444 265.568 340.432 260.255 345.18C255.293 349.614 249.863 353.133 243.318 354.887C234.354 357.288 227.093 354.632 221.083 347.915C219.678 346.344 218.368 344.635 217.309 342.818C215.912 340.422 214.23 338.487 211.556 337.535C211.04 337.351 210.562 337.026 210.111 336.703C208.633 335.646 208.245 334.11 208.924 332.568C209.649 330.92 211.111 331.473 212.405 331.931C222.04 335.339 231.716 334.055 241.679 332.133ZM223.787 341.62C227.668 346.79 232.679 349.28 239.188 347.886C245.298 346.577 250.538 343.424 255.476 339.746C257.557 338.197 259.669 336.618 261.052 334.233C260.656 334.068 260.543 333.972 260.462 333.995C248.373 337.326 236.414 341.389 223.561 340.334C222.873 340.278 223.417 340.97 223.787 341.62Z" fill="#030454"/>
<path d="M358.615 265.267C358.852 266.509 359.056 267.489 359.114 268.477C359.184 269.666 358.794 270.698 357.609 271.206C356.332 271.754 355.362 271.082 354.768 270.102C353.303 267.688 352.02 268.707 350.571 270.098C347.166 273.366 347.115 273.757 349.618 277.528C351.626 280.554 351.513 283.842 350.554 287.16C349.252 291.663 346.247 294.888 342.499 297.477C341.169 298.396 339.555 298.943 338.201 297.657C336.667 296.201 337.785 294.775 338.726 293.524C339.459 292.55 340.353 291.698 341.165 290.782C343.915 287.683 344.773 284.38 343.019 280.343C340.031 273.468 346.411 262.836 353.887 261.988C356.186 261.727 357.697 262.89 358.615 265.267Z" fill="#030454"/>
<path d="M238.76 368.227C236.362 367.979 234.308 367.535 232.436 366.481C231.274 365.826 230.59 364.857 230.938 363.453C231.319 361.915 232.648 362.115 233.658 362.292C239.069 363.238 244.438 363.648 249.779 361.877C250.807 361.536 251.883 361.768 252.349 362.824C252.866 363.996 251.993 364.765 251.065 365.178C247.235 366.885 243.473 368.919 238.76 368.227Z" fill="#030454"/>
<path d="M274.948 255.411C278.127 257.831 280.547 260.53 281.737 264.177C282.266 265.8 282.33 267.427 280.592 268.227C278.885 269.013 277.659 267.997 276.753 266.518C275.881 265.095 275.041 263.632 274.002 262.335C269.159 256.289 260.502 256.886 256.579 263.512C255.958 264.561 255.463 265.692 254.982 266.816C254.376 268.235 254.018 270.151 251.916 269.541C249.794 268.925 250.127 266.93 250.358 265.301C251.847 254.771 263.005 249.169 272.775 254.018C273.469 254.363 274.097 254.842 274.948 255.411Z" fill="#030454"/>
<path d="M259.23 284.635C256.102 281.147 256.668 277.186 257.231 273.369C257.559 271.148 259.296 269.719 261.55 269.236C263.908 268.73 265.93 269.461 267.579 271.213C270.29 274.094 271.086 280.243 269.208 283.737C267.166 287.535 263.548 287.936 259.23 284.635Z" fill="#030454"/>
<path d="M190.319 261.194C198.02 257.494 205.399 262.994 207.277 268.625C207.675 269.817 207.836 270.99 207.801 272.222C207.77 273.302 207.457 274.219 206.34 274.589C205.087 275.004 204.14 274.437 203.511 273.413C202.757 272.185 202.191 270.841 201.425 269.623C199.968 267.307 197.987 265.899 195.076 266.152C192.19 266.403 190.408 268.009 189.398 270.602C188.996 271.635 188.635 272.689 188.346 273.758C187.95 275.221 187.174 276.198 185.541 275.986C183.961 275.782 183.665 274.41 183.666 273.227C183.67 268.137 185.278 263.839 190.319 261.194Z" fill="#030454"/>
<path d="M195.217 275.937C198.52 275.361 200.805 276.576 202.044 279.262C203.534 282.489 204.022 285.954 201.962 289.118C200.239 291.765 196.612 291.927 194.036 289.78C189.969 286.39 190.461 278.95 195.217 275.937Z" fill="#030454"/>
<path d="M97.7819 88.7664C97.8134 90.95 97.854 92.8375 97.8442 94.7248C97.8245 98.4859 97.0767 99.3416 93.438 99.3233C81.6174 99.2638 83.6025 100.638 83.4739 89.5593C83.3725 80.8262 83.454 80.8253 91.8709 80.8414C97.0907 80.8514 97.089 80.8515 97.5355 86.1524C97.6007 86.926 97.69 87.6977 97.7819 88.7664ZM88.6758 87.2756C88.6532 88.9342 88.6199 90.5927 88.6116 92.2513C88.6058 93.4061 89.0597 94.1523 90.3488 94.1805C91.5921 94.2076 92.2045 93.5874 92.2361 92.3948C92.2712 91.0684 92.2904 89.7383 92.2326 88.4134C92.1191 85.8141 90.9222 85.344 88.6758 87.2756Z" fill="#030454"/>
<path d="M147.286 130.919C144.817 135.443 140.925 133.258 137.669 133.233C134.814 133.211 135.046 130.698 134.733 128.548C134.128 124.401 135.111 120.367 135.188 116.277C135.223 114.366 136.477 113.288 138.431 113.148C138.652 113.132 138.874 113.127 139.095 113.11C147.168 112.489 147.636 112.925 147.506 120.964C147.454 124.183 147.398 127.402 147.286 130.919ZM140.143 121.835C140.307 123.617 139.768 125.492 140.952 127.171C141.911 124.515 142.072 121.88 141.333 118.97C139.953 119.703 140.259 120.567 140.143 121.835Z" fill="#030454"/>
<path d="M156.563 113.051C159.657 112.843 160.72 114.589 160.783 116.94C160.899 121.278 160.795 125.623 160.732 129.965C160.708 131.623 159.798 132.574 158.168 132.999C156.519 133.428 154.862 133.386 153.195 133.415C150.545 133.461 149.258 132.025 149.231 129.523C149.188 125.404 149.156 121.276 149.381 117.166C149.573 113.645 150.294 113.322 156.563 113.051ZM154.235 121.506C154.235 123.262 154.235 125.018 154.235 126.774C154.444 126.757 154.653 126.74 154.862 126.724C154.862 124.43 154.862 122.137 154.862 119.844C154.734 119.839 154.606 119.833 154.478 119.828C154.401 120.232 154.325 120.635 154.235 121.506Z" fill="#030454"/>
<path d="M63.0618 357.526C65.2673 357.529 67.1607 357.609 69.0456 357.516C71.9137 357.375 73.1103 358.819 73.122 361.524C73.1402 365.749 73.156 369.974 73.1727 374.199C73.1833 376.875 71.9532 378.434 69.184 378.433C66.4102 378.432 63.6302 378.41 60.8647 378.223C58.7599 378.081 57.7656 376.86 57.8618 374.642C58.0449 370.422 58.1556 366.196 58.169 361.972C58.1789 358.83 59.3293 357.062 63.0618 357.526ZM63.8834 363.096C62.4205 365.587 63.6293 368.301 63.2424 370.886C63.0355 372.269 63.7495 372.924 65.162 372.905C66.4578 372.888 67.3358 372.421 67.3709 371.022C67.4181 369.142 67.3502 367.259 67.4101 365.379C67.4813 363.145 66.4632 362.339 63.8834 363.096Z" fill="#030454"/>
<path d="M83.1962 330.478C83.2076 334.354 83.086 337.925 83.2654 341.48C83.4148 344.443 82.1684 345.474 79.3291 345.312C76.778 345.166 74.2029 345.185 71.6527 345.351C69.4714 345.493 68.3342 344.507 68.5332 342.504C68.9328 338.482 68.3451 334.499 68.3804 330.496C68.4068 327.504 69.6007 325.895 72.8043 326.087C74.8008 326.207 76.8123 326.157 78.8139 326.088C81.6696 325.99 83.2928 327.13 83.1962 330.478ZM73.769 337.149C73.8079 338.613 73.652 340.287 75.8495 340.178C78.0563 340.069 77.7124 338.226 77.6909 336.893C77.6602 334.987 78.9491 331.952 75.7184 331.863C72.482 331.775 74.2497 334.877 73.769 337.149Z" fill="#030454"/>
<path d="M133.427 366.447C133.436 367.332 133.503 367.897 133.436 368.446C133.168 370.675 134.586 373.646 132.11 374.932C129.115 376.487 125.599 376.11 122.278 375.545C121.201 375.362 120.517 374.484 120.5 373.381C120.421 368.367 120.399 363.353 120.389 358.338C120.388 357.918 120.499 357.367 120.774 357.097C123.707 354.226 127.136 356.378 130.331 356.283C132.45 356.22 133.005 357.976 133.121 359.773C133.257 361.886 133.326 364.003 133.427 366.447ZM125.904 361.708C124.956 363.949 125.62 366.288 125.5 368.58C125.463 369.275 125.7 369.955 126.488 370.084C126.864 370.145 127.406 370.018 127.673 369.765C128.706 368.787 127.666 362.529 125.904 361.708Z" fill="#030454"/>
<path d="M351.443 69.9301C352.53 71.6207 353.992 73.1583 351.873 74.7463C349.974 76.1695 348.394 75.3583 346.901 73.8107C345.443 72.2988 343.894 70.9463 342.058 73.5632C340.694 75.5078 338.407 76.9796 341.713 79.4439C344.715 81.6822 346.288 84.9849 345.255 88.8912C344.212 92.8398 341.092 94.4831 337.413 95.2811C335.566 95.6821 333.669 96.2028 331.788 95.8095C329.161 95.2604 326.839 94.9658 325.009 97.6695C324.245 98.7978 322.646 98.8729 321.367 97.9565C320.221 97.1358 319.812 95.9665 320.513 94.7367C321.547 92.922 320.672 91.9285 319.326 90.8378C317.02 88.9697 315.337 86.642 314.784 83.6335C314.488 82.0232 314.958 80.7536 316.465 80.0054C317.983 79.2521 318.986 80.1392 319.939 81.1705C321.633 83.0028 322.32 85.7755 325.14 86.7729C327.26 84.7595 328.823 82.3845 330.21 79.9834C329.791 78.886 328.854 78.6391 328.158 78.1241C324.068 75.0966 324.102 69.5345 328.336 66.6633C331.298 64.6539 334.636 63.8948 338.187 64.5265C339.949 64.8399 341.466 64.8135 342.7 63.2602C343.825 61.8433 345.456 61.7465 346.98 62.2826C348.552 62.8355 348.485 64.3003 348.288 65.6891C347.955 68.029 350.656 68.1141 351.443 69.9301ZM336.502 83.3525C332.584 83.3429 333.167 87.1522 330.829 89.118C334.062 89.9101 336.394 90.059 338.054 87.5823C339.247 85.8037 338.029 84.6997 336.502 83.3525ZM332.934 73.6805C336.293 75.7663 336.095 72.333 337.163 70.8257C335.351 71.0973 332.404 69.1971 332.934 73.6805Z" fill="#030454"/>
<path d="M391.487 75.9231C383.399 74.6797 375.588 73.4556 367.959 71.3104C367.21 71.0998 366.458 70.8859 365.731 70.6102C364.388 70.1003 363.231 69.346 363.77 67.6635C364.294 66.0236 365.707 65.9679 367.089 66.2515C371.124 67.0792 375.131 68.046 379.176 68.8182C386.389 70.1951 393.635 71.3995 400.84 72.8141C404.8 73.5915 405.262 75.2445 402.454 78.2348C395.397 85.7502 388.899 93.6689 384.521 103.102C383.208 105.928 382.022 108.829 381.012 111.776C380.209 114.117 378.643 115.015 376.415 114.632C366.854 112.989 357.424 110.786 348.257 107.566C347.162 107.181 346.17 106.452 346.363 105.138C346.571 103.72 347.812 103.689 348.961 103.608C350.67 103.488 352.272 103.962 353.898 104.355C360.067 105.846 366.234 107.347 372.419 108.769C374.189 109.176 375.945 109.388 376.804 107.037C380.727 96.2995 386.633 86.7958 394.669 78.637C394.964 78.3376 395.097 77.8785 395.322 77.4629C394.421 76.1312 393.035 76.1679 391.487 75.9231Z" fill="#030454"/>
<path d="M301.763 49.3029C304.418 45.4977 304.83 45.4181 308.658 47.3866C311.729 48.9658 314.842 50.4618 317.929 52.0099C319.159 52.6268 320.494 53.3298 319.706 55.014C319.048 56.4213 317.776 56.6493 316.286 56.2488C312.921 55.3443 309.958 53.5489 306.766 51.913C301.002 58.6628 295.315 65.3226 289.512 72.1184C291.35 74.1908 293.671 75.3074 295.754 76.7219C297.694 78.0399 299.626 79.3522 301.224 81.0973C302.15 82.1077 301.986 83.1571 301.317 84.1513C300.551 85.2901 299.46 85.3254 298.388 84.6322C293.335 81.365 288.24 78.1562 283.291 74.737C281.152 73.2596 282.457 71.6377 283.723 70.2431C288.143 65.3721 292.613 60.5448 296.967 55.6153C298.659 53.7 300.093 51.557 301.763 49.3029Z" fill="#030454"/>
<path d="M64.916 226.186C64.3235 223.896 62.8209 221.596 66.2626 220.544C68.0096 220.01 68.6552 221.858 69.9073 222.377C71.443 221.585 72.888 220.736 74.4156 220.078C76.4092 219.22 78.0045 220.065 78.8994 221.821C79.8934 223.771 78.4092 224.576 76.8802 225.276C75.4741 225.919 73.9536 226.401 72.7865 227.739C73.316 230.079 74.4191 231.175 76.9892 229.966C78.2896 229.354 79.7241 228.988 81.2077 229.089C86.7512 229.463 89.1023 232.806 87.7333 238.639C87.3589 240.234 86.6153 241.813 85.7263 243.198C84.7089 244.782 83.8265 246.122 85.1924 247.981C86.1112 249.231 85.3396 250.291 84.294 251.131C83.1794 252.026 81.9392 252.235 81.0816 250.988C79.9389 249.325 78.8269 249.79 77.3732 250.457C75.8696 251.147 74.2379 251.674 72.608 251.94C70.8893 252.22 68.7662 252.571 68.2573 250.121C67.789 247.866 69.4829 246.948 71.3021 246.431C73.0067 245.946 74.811 245.728 76.0307 243.956C75.6646 243.202 75.2549 242.428 74.9066 241.628C73.8661 239.236 72.4887 238.534 69.9849 240.004C67.6955 241.348 65.0934 241.747 62.8098 239.756C60.8486 238.046 60.3708 235.759 61.001 233.351C61.3601 231.979 62.1309 230.696 62.8376 229.441C63.4352 228.379 64.2075 227.416 64.916 226.186ZM81.7098 239.187C82.2345 237.935 83.5429 236.583 81.9476 235.383C80.5907 234.362 79.3125 235.101 78.315 236.155C78.4075 237.604 79.2719 238.522 79.8185 239.58C80.392 240.69 80.9602 240.275 81.7098 239.187ZM69.4721 233.308C69.0891 232.645 68.7601 231.92 67.562 231.842C67.2587 232.706 66.1538 233.376 66.9636 234.719C68.1227 235.104 69.1058 235.092 69.4721 233.308Z" fill="#030454"/>
<path d="M81.801 207.751C85.8645 205.165 89.6555 202.6 93.831 200.684C96.5314 199.445 98.302 199.814 99.5254 202.924C102.189 209.696 106.382 215.438 112.327 219.74C114.275 221.15 114.479 222.577 112.726 224.058C108.39 227.72 103.975 231.29 99.5439 234.837C98.7727 235.454 97.6838 235.927 96.8318 234.961C95.8853 233.888 96.0434 232.622 96.9381 231.606C99.0768 229.178 101.306 226.835 103.906 224.873C104.862 224.151 106.061 223.672 106.746 222.129C102.356 217.996 98.5441 213.253 95.8931 207.66C95.1289 206.047 93.8908 206.61 92.7804 207.236C90.0606 208.769 87.3712 210.356 84.6596 211.904C83.7926 212.399 82.92 212.899 82.0045 213.29C80.7492 213.827 79.5728 213.701 78.7799 212.448C77.9079 211.069 78.7654 210.134 79.7286 209.296C80.3158 208.786 80.9747 208.357 81.801 207.751Z" fill="#030454"/>
<path d="M38.8727 245.324C41.8775 242.796 44.6935 240.431 47.4878 238.04C48.7852 236.93 50.3645 236.187 51.6975 237.419C53.3374 238.934 51.7714 240.348 50.7482 241.389C48.1735 244.007 45.4364 246.465 42.5034 249.234C45.9617 255.108 48.6631 261.418 51.1305 268.235C54.8289 266.817 57.7676 264.661 60.8609 262.76C62.7105 261.623 64.9936 259.064 66.9107 261.868C68.7737 264.593 65.4789 265.572 63.8882 266.771C60.3174 269.464 56.3316 271.513 52.2747 273.373C48.8513 274.942 47.82 274.413 46.6064 270.859C44.2258 263.886 41.8181 256.926 37.5666 250.798C36.0638 248.632 36.3662 246.846 38.8727 245.324Z" fill="#030454"/>
<path d="M410.276 325.875C408.568 326.616 408.977 327.638 409.531 328.703C410.049 329.701 410.789 330.236 411.962 329.959C412.719 329.781 413.47 329.529 414.237 329.456C417.878 329.112 420.219 331.377 420.029 335.048C419.916 337.24 419.013 339.171 417.683 340.841C416.572 342.236 415.467 343.306 415.983 345.5C416.463 347.543 414.353 348.886 412.629 347.699C411.31 346.79 410.422 347.241 409.267 347.625C408.12 348.008 406.921 348.392 405.73 348.444C404.374 348.503 403.43 347.631 403.137 346.284C402.836 344.9 403.808 344.247 404.871 343.795C405.892 343.362 406.974 343.075 408.017 342.689C409.575 342.114 409.477 341.026 409.008 339.708C408.556 338.434 407.916 337.81 406.53 338.382C406.018 338.593 405.478 338.748 404.94 338.884C400.853 339.918 398.207 337.769 398.204 333.506C398.202 331.146 399.222 329.189 400.485 327.345C401.319 326.126 401.937 325.066 401.627 323.404C401.263 321.451 402.371 320.253 404.375 321.241C405.66 321.875 406.65 321.869 407.794 321.224C408.082 321.062 408.402 320.914 408.724 320.864C410.737 320.55 412.735 320.736 413.378 322.979C414.033 325.261 411.807 325.198 410.276 325.875ZM404.891 330.478C404.042 331.452 403.221 332.434 403.957 334.051C406.172 333.352 406.77 332.316 404.891 330.478Z" fill="#030454"/>
<path d="M398.137 359.593C395.046 360.971 392.055 361.798 388.987 362.39C387.03 362.768 386.057 362.239 386.111 360.033C386.298 352.335 386.046 344.682 383.093 337.39C382.524 335.987 383.18 334.869 384.463 334.424C387.407 333.404 389.272 329.52 392.822 330.651C394.623 331.224 394.263 333.609 392.719 334.436C388.062 336.931 388.746 340.573 390.033 344.527C391.021 347.563 390.641 350.717 390.602 353.817C390.57 356.372 391.272 357.415 393.918 356.367C395.568 355.713 397.316 355.313 398.993 354.721C400.327 354.249 401.784 353.795 402.465 355.394C403.059 356.785 401.775 357.581 400.723 358.231C399.968 358.697 399.155 359.07 398.137 359.593Z" fill="#030454"/>
<path d="M418.326 310.59C417.404 311.872 416.668 312.989 415.824 314.018C415.144 314.848 414.208 315.321 413.17 314.716C412.051 314.062 411.703 312.94 412.305 311.831C414.638 307.532 416.761 303.145 418.667 298.635C419.364 296.986 420.936 296.916 422.191 298.322C426.406 303.049 428.811 308.559 428.992 314.926C429.031 316.317 428.98 318.064 427.038 318.293C424.964 318.538 424.78 316.703 424.589 315.372C424.111 312.056 423.311 308.915 421.246 306.09C419.736 307.32 419.429 309.067 418.326 310.59Z" fill="#030454"/>
<path d="M113.17 643.795C115.29 652.28 122.679 669.185 135.268 668.917C151.005 668.582 169.085 641.785 194.866 640.445C220.648 639.105 225 665.567 264.844 667.242C304.688 668.917 320.09 640.445 348.884 640.445C371.92 640.445 397.545 644.688 407.478 646.809" stroke="#030454" stroke-width="5"/>
</svg>
