<svg width="451" height="508" viewBox="0 0 451 508" fill="none" xmlns="http://www.w3.org/2000/svg">
<g clip-path="url(#clip0_203_187)">
<path d="M52.4505 435.406C58.8825 435.658 65.3144 435.914 71.7463 436.166C73.9563 413.525 81.2884 391.397 93.036 371.907C103.843 400.105 109.456 430.281 109.51 460.475C109.523 467.511 109.915 475.873 115.897 479.582C119.07 481.547 123.031 481.587 126.762 481.551C162.005 481.187 197.225 479.038 232.252 475.127C227.805 419.437 206.56 365.19 171.993 321.271C182.939 322.93 194.151 324.584 205.007 322.417C215.864 320.25 226.477 313.462 230.073 303.004C232.905 294.764 231.046 285.691 228.467 277.369C225.509 267.82 221.63 258.559 216.908 249.747C213.1 253.344 207.992 255.538 202.761 255.821C206.281 265.177 208.154 275.153 208.271 285.147C208.316 289.094 207.933 293.428 205.178 296.261C202.392 299.12 197.86 299.601 193.98 298.643C190.1 297.686 186.643 295.537 183.088 293.716C167.649 285.812 149.2 283.969 132.501 288.667C114.245 293.801 95.6241 309.042 83.0708 323.168C67.1193 341.12 58.1128 368.032 54.0619 391.262C51.5233 405.815 50.9337 420.714 52.455 435.415L52.4505 435.406Z" fill="#5DBDF9"/>
<path d="M182.174 323.595C181.184 324.422 196.469 342.415 197.752 344.155C207.55 359.292 213.159 376.385 218.555 393.46C219.415 396.18 222.575 410.293 223.196 410.949C223.403 411.169 226.851 409.704 229.101 409.771C261.765 410.765 329.852 421.163 356.295 440.235C365.499 446.87 357.546 455.426 351.056 460.515C323.685 481.956 239.773 480.71 204.256 482.064C171.263 483.323 137.717 487.49 104.941 480.998C98.4957 481.897 90.3174 479.973 83.9665 477.797C82.9673 478.989 94.7914 491.77 89.4217 495.673C84.9297 498.936 78.6733 489.333 75.3336 487.504C76.4003 492.791 78.8173 499.944 76.3823 505.141C75.7071 506.588 74.9195 505.716 73.7357 505.806L63.4599 486.434C63.8245 488.965 65.6789 502.866 65.1028 503.689C63.712 505.667 61.3895 504.808 60.1697 503.181L53.7513 489.671L49.9479 508.005C45.9691 507.91 44.4612 496.599 44.1552 493.303C43.8041 489.509 45.1994 473.234 44.6143 472.366C43.66 470.946 27.695 469.17 21.8977 464.858C5.73463 452.832 23.4011 441.098 34.6355 434.457C36.8905 433.122 44.6053 430.654 44.9743 430.236C45.654 429.458 44.8438 413.462 45.0554 410.364C46.7567 385.417 59.7061 331.912 80.1811 316.06C83.7819 313.273 91.4426 312.63 91.2401 307.078C90.9115 298.099 84.115 301.426 77.4715 300.954C80.0686 310.22 69.3067 323.218 60.6783 324.611C34.2304 328.882 14.1965 295.928 23.5136 272.927C-6.64761 272.806 -4.09105 232.299 10.5327 215.201C11.8065 213.709 16.7081 210.431 16.7936 209.878C16.9016 209.159 15.1012 206.214 14.9707 204.353C13.4358 182.152 31.0618 162.357 53.7243 166.161C48.8992 131.476 91.4381 126.679 102.313 155.375C104.14 154.791 103.433 153.33 105.967 152.044C122.644 143.56 140.742 160.824 132.406 175.224C131.096 177.49 128.499 177.832 128.279 178.142C127.991 178.547 131.245 185.412 129.778 187.799L146.548 195.833L142.277 201.21C157.904 219.585 171.097 244.28 153.052 265.936C149.253 270.495 139.248 278.871 133.896 281.308C132.073 282.135 125.376 283.466 125.079 283.812C124.827 284.109 124.732 289.958 124.966 290.178C125.799 290.951 130.921 287.588 130.151 295.793C128.459 313.826 103.946 328.972 87.8238 318.074C85.8389 316.73 86.8381 314.118 83.9755 314.999C62.4337 339.371 56.0468 368.108 51.4603 399.507C51.2127 401.188 49.6914 402.456 49.4753 403.994C48.152 413.314 49.5384 425.996 48.3456 435.743C54.1969 434.678 60.3948 431.032 66.2866 430.443C69.2167 430.151 72.8715 431.648 73.1506 431.441C74.1768 430.668 77.7461 410.275 78.8669 406.399C82.3686 394.274 88.0849 378.462 93.4816 367.088C93.8777 366.252 96.2362 359.422 97.9826 361.351C98.6892 362.129 91.4921 377.446 91.4831 381.286C91.4741 385.125 96.1867 394.027 97.4515 399.071C101.462 415.04 103.51 439.322 103.474 455.7C103.465 458.667 100.508 474.075 102.232 475.122C103.712 476.021 116.306 477.667 118.989 477.847C140.139 479.245 168.905 478.804 190.307 477.847C204.53 477.213 218.726 474.551 232.9 473.486C228.993 446.96 222.827 420.565 214.856 395.002C211.696 384.873 207.951 372.676 203.599 363.113C191.954 337.541 169.553 317.274 150.874 297.173C153.799 296.517 160.961 302.101 163.274 304.191C166.128 306.772 175.17 319.441 177.533 320.138C180.819 321.105 195.699 320.664 199.957 320.345C221.724 318.722 231.608 312.918 229.511 289.769C229.268 287.098 225.14 268.369 224.245 267.514C223.84 267.128 217.529 269.511 215.999 269.632C214.248 269.771 210.445 268.369 210.229 268.602C209.648 269.232 212.2 276.776 212.366 278.853C214.288 302.973 205.962 302.114 186.018 296.553C171.619 292.538 155.523 282.328 139.779 285.03C138.492 285.25 125.812 291.243 126.055 287.471C126.141 286.145 133.131 283.578 134.639 283.142C157.688 276.434 178.595 294.692 199.939 295.609C206.547 295.892 207.289 295.087 208.055 288.55C208.91 281.227 204.805 261.647 199.48 256.45C195.425 252.494 177.362 252.885 171.821 246.047C163.837 236.197 186.297 239.317 187.557 238.4C188.079 238.017 181.715 229.201 180.873 227.295C179.91 225.114 174.689 211.591 178.902 213.057L191.342 224.373C190.334 220.978 186.981 203.278 188.637 201.745C193.638 197.114 198.85 217.341 202.653 219.005C202.698 212.782 202.527 205.369 204.062 199.326C204.593 197.236 204.674 195.303 207.433 196.445C211.196 198.005 212.664 214.868 214.554 218.996L218.825 207.648C220.099 206.38 220.657 207.306 221.54 208.237C225.82 212.746 224.173 238.467 223.097 245.337C222.822 247.076 221.053 248.376 221.04 249.733C221.026 250.974 229.236 268.562 230.429 272.689C233.953 284.882 237.82 304.313 228.57 314.433C224.803 318.551 212.907 323.604 207.528 323.604C203.887 323.604 183.137 322.79 182.165 323.604L182.174 323.595ZM85.0512 192.034C86.37 193.064 97.7125 181.352 98.5632 178.052C99.6209 173.939 100.791 159.138 99.657 155.326C98.2076 150.448 90.4884 144.059 85.7939 142.216C63.3969 133.413 53.3372 151.972 56.965 171.547C36.9401 162.047 13.6339 184.94 18.3509 205.288C18.8911 207.626 24.4948 212.674 22.4468 214.675C22.0372 215.075 16.294 213.834 12.0315 218.294C2.29587 228.473 -1.36794 256.72 11.721 265.833C18.2024 270.347 20.9525 269.088 27.794 269.043C32.9792 269.007 25.26 278.098 24.6973 282.175C23.131 293.509 29.6754 307.491 38.7044 314.356C56.8975 328.194 78.8444 317.481 73.1731 294.485C82.2516 296.58 90.808 299.749 97.9871 291.778C106.476 282.351 104.18 270.648 97.384 261.121C93.8417 256.154 84.223 249.76 78.0162 250.156C74.1003 250.403 72.3539 254.998 66.2821 254.54C55.8532 253.753 52.6845 245.849 58.6799 237.41C62.1997 232.452 67.0022 232.802 70.9046 229.138C75.2525 225.06 86.442 201.574 82.8772 197.438C82.2111 196.665 63.973 202.658 63.4779 195.815C63.2844 193.122 79.5555 196.908 81.8015 194.183C81.0453 191.292 78.6193 189.957 76.4273 188.267C82.8592 180.525 83.8179 191.072 85.0557 192.039L85.0512 192.034ZM124.629 156.801C120.614 153.415 106.138 153.991 103.879 157.479C102.272 159.961 102.866 174.289 102.06 178.308C101.615 180.538 97.672 185.29 97.9916 185.556C101.592 188.532 107.426 173.84 109.181 171.407C113.921 164.839 115.847 162.811 123.373 168.292L128.198 176.933C130.453 169.389 131.425 162.533 124.629 156.801ZM121.352 170.854C120.686 170.167 118.341 168.418 117.422 168.804C115.248 169.726 106.832 177.373 108.812 180.129L128.207 186.635C125.308 181.662 125.493 175.157 121.352 170.854ZM109.258 183.96C108.636 183.272 108.974 182.045 108.249 182.337C102.691 184.576 108.812 189.966 110.419 193.095C114.902 201.817 121.464 212.032 114.2 221.41C107.205 230.437 98.5137 225.452 91.5012 219.544L85.0512 211.456C82.8412 218.802 78.2502 227.717 72.0163 232.407C67.9789 235.446 61.4795 236.039 60.2822 242.234C59.364 246.987 59.184 249.477 64.0721 250.152C73.3306 251.428 68.06 248.668 69.2662 247.009C69.4463 246.757 74.4424 244.244 74.8025 244.226C75.7207 244.186 90.682 249.145 92.2753 250.039C98.9323 253.766 105.355 265.613 107.223 272.842C107.768 274.946 107.426 280.193 107.691 280.467C109.924 282.778 131.015 278.25 135.066 275.994C139.306 273.629 152.625 261.117 154.709 256.792C161.096 243.534 156.887 230.195 149.974 218.272C148.722 216.118 141.921 205.845 140.639 204.87C138.694 203.386 138.109 205.409 136.07 205.814C124.183 208.165 137.33 197.002 136.84 196.364C136.07 195.361 116.396 190.96 112.71 188.635C111.459 187.849 110.738 185.605 109.253 183.96H109.258ZM105.382 190.052C101.759 187.795 89.6017 197.623 89.2462 201.174C88.5575 208.035 97.663 222.125 105.004 222.075C115.433 222.008 115.289 211.407 112.539 203.912C112.012 202.478 106.044 190.465 105.382 190.052ZM205.917 204.438C205.057 207.815 205.917 218.362 205.917 222.772C205.917 226.162 200.335 222.781 199.444 220.614L191.896 207.145C189.983 210.611 196.275 227.488 195.119 228.702C192.63 231.314 183.304 219.144 181.629 217.93C180.814 217.759 180.936 218.969 181.112 219.522C182.43 223.73 188.435 233.324 190.982 237.698C192.031 239.497 196.28 242.419 191.468 242.639C186.486 242.868 179.235 239.901 173.545 243.26C178.929 247.144 198.188 253.838 204.058 253.281C207.532 252.948 210.836 249.5 213.793 247.877C215.342 247.027 217.844 247.405 218.654 246.834C218.992 246.595 221.031 239.375 221.031 238.953V216.307C221.031 216.087 219.217 214.351 218.884 214.689C218.281 215.309 216.111 234.641 212.209 222.961C211.174 219.859 208.707 203.629 208.068 202.824C207.807 202.5 206.025 204.029 205.921 204.443L205.917 204.438ZM88.8141 209.289V210.368L89.3542 209.829L88.8141 209.289ZM217.745 251.379C215.652 249.895 207.204 257.417 203.761 256.751C210.066 265.343 207.397 268.823 219.37 266.404C220.554 266.166 221.634 266.067 222.035 264.696C222.233 264.021 218.317 251.784 217.745 251.379ZM122.815 284.765C119.763 286.262 107.304 283.2 106.656 283.69C106.224 284.014 103.568 290.924 101.669 293.302C100.076 295.294 93.8642 299.992 93.7381 300.514C93.2655 302.46 101.412 309.757 92.0458 314.959L93.1395 309.595C83.6469 316.177 96.4523 318.034 102.146 317.485C110.464 316.685 123.463 307.774 124.764 299.048C125.511 294.058 121.761 289.917 122.815 284.765ZM96.9159 420.651C98.9053 418.731 92.7659 390.183 89.8988 386.146C83.6514 397.749 80.8248 411.007 78.5698 423.883C80.8563 420.682 96.2362 421.307 96.9114 420.655L96.9159 420.651ZM48.3411 436.818V454.073C51.9779 449.388 67.8709 448.624 69.9954 447.131C71.1972 446.286 72.1424 438.238 72.1334 436.274C72.1334 435.51 72.2234 433.711 72.0928 433.576C70.2924 431.774 58.1893 436.17 55.2726 436.728C53.6658 437.034 48.5931 436.575 48.3456 436.818H48.3411ZM73.9923 453.237C73.0741 452.567 66.6962 451.798 65.1208 451.874C60.0932 452.117 55.6372 455.381 51.8474 456.037C50.4611 456.28 48.4761 454.99 48.3456 455.143C46.0456 457.777 47.2473 495.268 48.3456 501.513L52.1219 479.942C55.2726 479.991 57.3116 491.77 58.6034 495.03C59.301 496.792 60.6828 500.658 62.3527 501.513C64.0991 497.718 58.2388 475.59 59.13 474.565C60.3227 473.193 62.0376 476.26 62.5687 477.046C67.1643 483.853 69.6083 494.009 73.1686 501.508C75.1895 500.87 74.3388 495.124 74.1183 493.546C73.6727 490.372 68.1455 476.264 68.8431 475.644C69.1312 475.392 71.3457 475.302 72.1514 476.314C73.5017 478.008 84.0295 496.963 88.2604 492.885C89.4937 491.698 73.3936 467.92 73.1236 462.17C73.0291 460.169 74.3839 459.594 75.3021 460.542C75.5811 460.83 76.0222 464.395 77.0259 465.843C79.2809 469.098 83.9755 472.546 88.2604 471.872C86.1855 467.893 82.4767 465.429 79.668 462.125C78.1287 460.317 74.4154 453.547 73.9923 453.237Z" fill="#0030FF"/>
<path d="M235.051 49.7012C235.465 50.1059 241.42 48.339 245.264 52.9787C252.128 61.2735 247.033 75.2285 238.692 80.8302C236.734 82.143 231.792 81.599 234.673 84.292C237.554 86.985 239.646 88.127 241.019 92.7936C245.088 106.582 236.662 111.6 226.445 118.168C237.094 123.644 260.207 145.642 232.449 142.337C230.631 142.122 226.044 139.725 225.342 140.283C224.933 140.611 229.911 145.255 225.837 149.94C217.047 160.055 200.254 137.959 195.73 131.575C194.663 130.068 192.566 124.327 191.364 124.233C189.852 124.116 185.081 128.342 178.644 127.088C170.448 125.492 170.547 117.539 169.201 116.545C168.342 115.911 156.828 123.698 149.226 117.646C147.862 116.563 145.441 112.26 144.936 112.247C144.707 112.243 142.636 114.356 141.169 114.94C136.241 116.891 118.246 119.953 115.405 115.327C111.499 108.956 129.129 106.322 126.041 103.606C125.474 103.107 116.81 105.593 114.694 105.737C107.727 106.209 90.5869 106.56 92.7744 95.7698C94.5343 87.0884 112.817 90.7975 114.168 89.5746C114.559 89.2194 110.981 83.0557 110.895 80.3807C110.724 75.1475 114.483 62.1142 116.652 57.0114C118.322 53.0776 124.578 45.084 125.011 42.6068C125.092 42.1438 120.838 37.1354 120.095 34.5998C115.802 19.9704 119.407 9.39176 136.313 10.8619C138.725 11.0732 142.492 13.0738 143.726 12.8311C145.981 12.386 151.931 0.229291 163.292 -0.00898696C174.432 -0.238273 175.8 9.22991 177.389 9.64353C178.824 10.0167 185.549 7.61142 188.119 7.63839C193.844 7.69684 202.032 11.6981 204.714 16.9222C205.884 19.2016 205.727 23.5446 206.929 24.4168C209.796 26.4938 221.363 22.4431 229.164 30.2389C235.474 36.542 234.313 48.9684 235.055 49.6922L235.051 49.7012ZM172.469 17.3449C170.34 15.4836 175.048 3.75401 162.22 4.33847C158.372 4.5138 152.98 8.32625 150.873 11.4149C149.019 14.1348 148.564 20.1098 147.074 20.5773C144.414 21.4136 142.641 17.5786 140.381 16.5086C136.398 14.6249 126.46 13.6808 124.461 18.4508C122.481 23.1714 123.975 36.1014 129.034 38.6235C135.57 41.883 135.687 36.3711 139.49 36.6948C141.93 36.9016 151.134 46.5047 158.894 45.3942C160.775 45.1245 162.058 43.3981 163.827 42.6698C164.768 42.2831 166.352 43.0654 167.099 42.6158C168.342 41.8605 171.965 32.8239 175.705 35.6878C176.642 36.4071 167.54 47.4533 167.288 48.2985C165.605 53.9857 167.883 65.9221 166.978 72.7872C165.285 85.6228 154.969 95.4282 143.357 99.87L129.309 100.9C134.539 113.744 144.585 103.966 147.016 104.717C150.5 105.796 148.308 118.914 161.505 114.756C165.263 113.573 166.897 108.979 170.678 110.192C173.806 111.195 173.374 120.713 179.509 121.913C192.409 124.431 193.556 110.471 199.142 109.154C202.495 108.363 208.148 114.72 211.916 115.426C226.139 118.092 245.507 104.564 232.967 88.9946C231.077 86.6478 228.178 87.2728 228.493 83.7076C229.101 76.8155 234.92 78.7262 238.008 76.3434C246.817 69.5547 245.808 48.384 230.762 55.0872C231.945 35.463 221.71 23.4637 201.618 31.3628C202.905 15.5196 195.514 11.2305 180.62 13.1278C177.722 13.4964 173.959 18.6441 172.478 17.3494L172.469 17.3449ZM161.671 49.6922C161.392 49.418 155.793 49.8631 153.821 49.4405C149.618 48.5458 141.187 42.6293 139.342 42.3641C138.505 42.2427 129.818 45.2773 127.576 45.2953C120.843 55.9324 109.865 77.9709 120.077 88.5541C134.463 103.462 158.48 91.3774 161.401 72.6254C161.806 70.0178 162.481 50.5015 161.667 49.6967L161.671 49.6922Z" fill="#0030FF"/>
<path d="M354.936 107.85C355.111 108.034 358.406 108.034 359.95 108.758C365.666 111.442 371.32 114.621 372.071 121.522C372.382 124.345 371.036 127.434 371.297 128.832C371.837 131.727 378.899 133.75 376.212 142.747C374.398 148.825 364.032 148.402 363.488 148.906C363.218 149.153 364.437 153.523 363.875 156.203C363.2 159.422 360.234 164.196 357.564 166.161C352.69 169.753 347.19 169.034 343.031 171.052C341.59 171.749 332.958 184.436 331.121 182.323C328.484 179.293 337.125 167.964 338.143 165.073C340.236 159.138 332.35 163.774 330.14 165.72C323.658 171.421 316.16 186.401 321.192 163.603C319.054 162.6 316.016 154.759 314.4 155.38C311.362 156.549 301.946 174.82 298.741 171.542C295.919 168.656 302.391 156.495 302.846 153.519C304.322 143.794 293.695 160.091 292.309 161.35C281.282 171.367 289.973 149.23 291.71 144.581C292.201 143.264 294.244 141.169 294.24 140.804C294.213 139.06 286.399 136.929 288.209 125.973C289.226 119.813 296.585 114.603 296.558 113.852C296.531 113.101 291.512 112.189 292.71 107.895C294.244 102.388 301.559 101.961 301.959 101.417C302.729 100.369 298.205 94.4166 304.655 89.5746C307.45 87.4751 309.795 87.0435 313.311 87.3851C316.538 87.6998 319.229 90.3614 319.783 90.3614C321.678 90.3614 326.584 84.0897 333.057 85.96C338.44 87.5155 337.652 92.1102 339.736 93.3826C342.572 95.1179 346.744 92.353 350.633 95.4371C354.963 98.8719 354.477 107.369 354.94 107.85H354.936ZM336.518 99.299C335.829 98.4628 337.837 90.9054 331.391 89.7634C324.356 88.5136 320.508 97.1096 319.783 97.1231C317.762 97.1635 319.333 89.0846 309.053 90.739C297.616 92.5823 308.252 106.029 311.164 105.751C312.302 105.643 312.541 102.212 313.306 102.541C316.326 103.831 315.318 113.371 327.12 109.855C329.118 109.262 333.642 102.185 336.509 104.699C337.972 105.98 333.111 108.533 333.417 110.422C333.93 113.578 342.725 123.167 336.068 128.513C331.342 132.307 328.529 125.465 325.733 123.032C323.303 130.972 317.659 138.579 310.498 142.85L301.986 145.111C304.075 147.206 306.901 150.574 309.836 151.325C312.374 151.977 314.936 150.232 317.105 151.558C320.089 153.384 322.277 167.217 332.66 159.597C334.762 158.055 333.705 154.499 335.96 155.38C336.945 155.766 341.91 162.524 343.845 163.985C349.917 168.575 360.153 161.998 360.81 154.431C360.99 152.336 358.087 147.341 360.45 145.84C362.047 144.824 367.984 145.786 371.477 142.324C378.188 135.675 366.855 132.784 366.656 132.096C365.707 128.742 368.929 126.359 368.988 123.59C369.155 115.547 357.479 110.894 350.552 112.234C357.123 92.2406 337.364 100.32 336.522 99.299H336.518ZM303.602 105.791C301.171 107.427 302.265 108.889 303.602 106.848C303.962 106.299 304.475 106.277 303.602 105.791ZM315.188 111.973C313.014 109.815 314.391 104.847 307.059 107.063C303.093 108.264 291.53 123.284 291.22 128.009C290.702 135.931 301.356 141.654 308.472 139.77C314.791 138.098 324.361 121.306 324.662 114.935C324.824 111.496 317.933 114.702 315.188 111.973Z" fill="#0030FF"/>
<path d="M426.915 173.957C428.706 175.764 427.95 180.907 428.274 181.226C428.58 181.527 433.32 180.709 436.367 183.384C440.522 187.026 437.952 191.823 439.531 194.242C440.823 196.215 447.156 195.249 449.726 201.309C452.953 208.911 448.776 211.06 448.952 213.96C449.087 216.177 451.572 217.84 450.869 222.691C449.542 231.836 441.098 229.152 438.163 231.058C437.749 231.328 436.736 235.185 434.792 236.857C432.739 238.624 428.459 239.213 428.247 239.497C427.442 240.585 440.418 263.104 419.623 243.795C419.452 246.825 419.826 249.945 419.614 252.975C419.542 254.018 420.096 256.729 418.012 255.645C414.753 253.946 411.729 235.958 410.937 235.216C410.576 234.879 405.63 235.648 402.992 233.985C400.355 232.321 398.676 225.083 397.839 224.579C396.862 223.99 394.458 224.642 392.662 223.838C391.074 223.127 389.741 220.111 388.373 219.594C387.302 219.189 377.026 219.562 376.441 218.991C375.937 218.506 376.58 215.071 377.418 214.037C379.461 211.506 383.737 214.1 382.918 210.377C364.374 211.078 366.917 203.004 384.003 204.969C376.621 196.278 399.004 184.333 399.063 182.885C399.121 181.438 391.213 174.901 402.394 171.066C410.342 168.341 410.635 172.752 413.889 173.543C416.401 174.154 423.607 170.625 426.915 173.961V173.957ZM411.306 177.675C408.817 175.49 409.703 171.911 403.712 174.519C398.937 176.6 400.539 179.302 401.273 183.407L407.736 180.179C404.662 186.172 409.316 192.74 415.897 191.616C416.945 191.436 421.797 183.002 422.855 188.285C423.602 192.007 417.711 193.877 417.458 194.215C417.139 194.642 422.121 201.327 422.603 203.597C424.521 212.639 420.078 216.469 415.474 207.5L413.16 196.355C410.806 202.802 403.46 212.202 396.7 213.987C394.935 214.455 390.741 213.097 390.511 215.206C390.452 215.723 392.685 220.142 393.693 220.632C396.007 221.761 399.783 220.488 401.354 221.608C403.631 223.226 401.025 233.841 411.463 231.885C413.691 231.467 414.834 229.305 417.931 229.727C422.765 230.388 422.536 238.026 430.507 235.783C434.603 234.632 433.608 227.398 434.774 226.558C435.575 225.978 439.639 227.911 441.692 227.65C446.449 227.048 447.759 220.169 446.449 216.42C445.837 214.671 441.368 214.958 443.888 211.42C445.342 209.375 448.16 211.123 447.264 206.025C445.486 195.896 434.139 198.279 433.658 195.784C433.311 193.99 436.876 192.439 435.021 188.028C432.55 182.148 426.235 185.902 424.399 183.456C423.004 181.595 428.828 173.008 417.35 176.321C414.812 177.054 415.51 181.348 411.319 177.67L411.306 177.675ZM403.42 184.486C402.272 183.393 379.979 197.191 388.868 208.201C391.555 211.528 396.074 211.87 399.108 208.741C395.8 207.774 391.78 209.024 392.64 203.899C400.242 204.596 407.03 205.4 409.492 196.364C410.257 193.549 405.765 191.086 404.257 188.492C403.537 187.251 403.568 184.625 403.42 184.481V184.486Z" fill="#0030FF"/>
<path d="M85.0506 192.034C83.8129 191.068 82.8541 180.52 76.4222 188.262C78.6142 189.948 81.0402 191.283 81.7964 194.179C79.5504 196.903 63.2793 193.118 63.4728 195.811C63.9679 202.649 82.206 196.66 82.8721 197.434C86.4369 201.57 75.2475 225.056 70.8995 229.134C66.9926 232.798 62.1946 232.452 58.6748 237.406C52.6794 245.849 55.8481 253.753 66.277 254.535C72.3533 254.994 74.0997 250.399 78.0111 250.152C84.2179 249.756 93.8366 256.149 97.3789 261.117C104.175 270.648 106.471 282.346 97.982 291.774C90.8029 299.749 82.2465 296.58 73.168 294.48C78.8392 317.476 56.8879 328.19 38.6993 314.352C29.6748 307.487 23.1304 293.5 24.6922 282.171C25.2549 278.093 32.9741 269.003 27.7889 269.039C20.9474 269.083 18.1973 270.342 11.7159 265.829C-1.37754 256.716 2.29077 228.473 12.0264 218.29C16.2934 213.83 22.0322 215.075 22.4417 214.671C24.4897 212.67 18.886 207.621 18.3458 205.283C13.6333 184.931 36.9395 162.038 56.9599 171.542C53.3321 151.968 63.3873 133.409 85.7888 142.212C90.4788 144.055 98.2025 150.443 99.6519 155.321C100.786 159.134 99.6159 173.934 98.5581 178.048C97.7119 181.348 86.3694 193.059 85.0461 192.03L85.0506 192.034Z" fill="#5DBDF9"/>
<path d="M109.257 183.96C110.742 185.605 111.463 187.849 112.714 188.635C116.4 190.955 136.07 195.357 136.844 196.364C137.339 197.007 124.187 208.165 136.074 205.814C138.117 205.409 138.698 203.391 140.643 204.87C141.925 205.845 148.726 216.118 149.978 218.272C156.891 230.195 161.1 243.529 154.713 256.792C152.629 261.112 139.315 273.629 135.07 275.994C131.019 278.25 109.932 282.778 107.695 280.467C107.43 280.193 107.772 274.946 107.227 272.842C105.359 265.613 98.9363 253.766 92.2793 250.039C90.686 249.145 75.7246 244.186 74.8064 244.226C74.4464 244.24 69.4503 246.757 69.2702 247.009C68.0639 248.668 73.3346 251.428 64.0761 250.152C59.188 249.477 59.3725 246.987 60.2862 242.234C61.4835 236.035 67.9784 235.446 72.0203 232.407C78.2542 227.713 82.8452 218.802 85.0552 211.456L91.5051 219.544C98.5177 225.452 107.209 230.437 114.204 221.41C121.468 212.032 114.906 201.817 110.423 193.095C108.811 189.962 102.69 184.571 108.253 182.337C108.978 182.045 108.645 183.276 109.262 183.96H109.257ZM128.305 252.323C135.349 256.715 138.811 235.855 134.035 234.169C126.649 231.566 125.951 250.853 128.305 252.323Z" fill="#5DBDF9"/>
<path d="M73.9922 453.237C74.4198 453.547 78.1332 460.317 79.668 462.125C82.4811 465.429 86.1854 467.893 88.2604 471.872C83.9754 472.551 79.2809 469.102 77.0259 465.843C76.0222 464.395 75.5766 460.83 75.302 460.542C74.3883 459.594 73.0335 460.169 73.1235 462.17C73.3936 467.915 89.4937 491.694 88.2604 492.885C84.0295 496.967 73.5016 478.013 72.1513 476.314C71.3457 475.297 69.1312 475.387 68.8431 475.644C68.1454 476.264 73.6727 490.367 74.1183 493.546C74.3388 495.124 75.1895 500.874 73.1686 501.508C69.6083 494.009 67.1687 483.849 62.5687 477.046C62.0376 476.26 60.3182 473.193 59.1299 474.565C58.2342 475.59 64.0945 497.718 62.3527 501.513C60.6828 500.658 59.3055 496.792 58.6033 495.03C57.3115 491.77 55.2726 479.991 52.1219 479.942L48.3456 501.513C47.2428 495.268 46.041 457.782 48.3456 455.143C48.4761 454.99 50.461 456.28 51.8473 456.037C55.6372 455.381 60.0932 452.117 65.1208 451.874C66.6961 451.798 73.074 452.567 73.9922 453.237Z" fill="#5DBDF9"/>
<path d="M205.917 204.438C206.02 204.025 207.807 202.496 208.064 202.82C208.707 203.624 211.169 219.854 212.205 222.956C216.107 234.637 218.276 215.305 218.88 214.684C219.213 214.342 221.027 216.078 221.027 216.303V238.948C221.027 239.371 218.988 246.591 218.65 246.829C217.844 247.396 215.337 247.023 213.789 247.872C210.827 249.495 207.524 252.948 204.053 253.276C198.184 253.834 178.924 247.139 173.541 243.255C179.235 239.897 186.481 242.864 191.464 242.635C196.276 242.414 192.027 239.492 190.978 237.694C188.426 233.319 182.421 223.721 181.107 219.517C180.936 218.964 180.81 217.759 181.625 217.926C183.299 219.139 192.625 231.31 195.114 228.698C196.271 227.484 189.979 210.606 191.892 207.14L199.44 220.61C200.331 222.777 205.912 226.157 205.912 222.768C205.912 218.357 205.053 207.81 205.912 204.434L205.917 204.438ZM208.077 231.944C205.908 230.972 197.9 236.646 199.453 238.404C199.818 238.813 207.978 234.084 208.077 231.944Z" fill="#5DBDF9"/>
<path d="M122.814 284.765C121.761 289.913 125.51 294.058 124.763 299.048C123.462 307.774 110.463 316.681 102.146 317.485C96.4518 318.034 83.6464 316.182 93.139 309.595L92.0453 314.959C101.412 309.757 93.2651 302.46 93.7377 300.514C93.8637 299.992 100.075 295.299 101.668 293.302C103.568 290.924 106.223 284.019 106.656 283.69C107.308 283.2 119.762 286.262 122.814 284.765Z" fill="#5DBDF9"/>
<path d="M105.382 190.052C106.044 190.465 112.012 202.478 112.538 203.912C115.289 211.407 115.433 222.008 105.004 222.075C97.6627 222.125 88.5572 208.035 89.2458 201.174C89.6014 197.623 101.759 187.795 105.382 190.052Z" fill="#5DBDF9"/>
<path d="M124.628 156.801C131.424 162.537 130.452 169.389 128.197 176.933L123.372 168.292C115.842 162.811 113.92 164.839 109.181 171.407C107.425 173.84 101.592 188.536 97.9911 185.556C97.6715 185.29 101.614 180.538 102.06 178.308C102.866 174.289 102.271 159.961 103.878 157.479C106.138 153.991 120.618 153.411 124.628 156.801Z" fill="#5DBDF9"/>
<path d="M48.3404 436.818C48.588 436.575 53.6606 437.034 55.2675 436.728C58.1841 436.175 70.2873 431.778 72.0877 433.576C72.2182 433.707 72.1237 435.51 72.1282 436.274C72.1372 438.239 71.1965 446.286 69.9902 447.131C67.8658 448.624 51.9727 449.388 48.3359 454.073V436.818H48.3404Z" fill="#5DBDF9"/>
<path d="M121.352 170.854C125.493 175.157 125.308 181.662 128.207 186.635L108.812 180.129C106.831 177.378 115.248 169.726 117.422 168.804C118.341 168.418 120.686 170.162 121.352 170.854Z" fill="#5DBDF9"/>
<path d="M217.745 251.379C218.317 251.784 222.233 264.017 222.035 264.696C221.634 266.067 220.549 266.166 219.37 266.404C207.402 268.823 210.067 265.343 203.761 256.751C207.204 257.417 215.652 249.891 217.745 251.379Z" fill="#5DBDF9"/>
<path d="M88.8135 209.289L89.3536 209.829L88.8135 210.368V209.289Z" fill="#5DBDF9"/>
<path d="M172.469 17.3449C173.95 18.6396 177.713 13.4919 180.612 13.1233C195.501 11.226 202.896 15.5151 201.609 31.3583C221.701 23.4592 231.932 35.4585 230.753 55.0827C245.8 48.375 246.808 69.5502 237.999 76.3389C234.907 78.7217 229.092 76.811 228.484 83.7031C228.169 87.2727 231.072 86.6478 232.958 88.9902C245.494 104.559 226.13 118.087 211.907 115.421C208.14 114.715 202.486 108.358 199.133 109.149C193.552 110.467 192.404 124.426 179.5 121.909C173.365 120.713 173.793 111.19 170.669 110.188C166.888 108.979 165.254 113.569 161.496 114.751C148.299 118.91 150.491 105.787 147.007 104.712C144.581 103.961 134.535 113.74 129.3 100.895L143.348 99.8655C154.96 95.4237 165.277 85.6183 166.969 72.7827C167.874 65.9176 165.601 53.9767 167.28 48.294C167.527 47.4488 176.633 36.4026 175.697 35.6833C171.952 32.8194 168.333 41.856 167.091 42.6113C166.343 43.0654 164.764 42.2786 163.818 42.6653C162.05 43.3936 160.771 45.12 158.885 45.3897C151.13 46.5002 141.926 36.9016 139.482 36.6903C135.678 36.3666 135.566 41.883 129.026 38.619C123.962 36.0924 122.472 23.1669 124.453 18.4463C126.451 13.6763 136.394 14.6204 140.373 16.5041C142.632 17.5741 144.406 21.4091 147.066 20.5728C148.556 20.1053 149.015 14.1258 150.865 11.4104C152.971 8.32175 158.368 4.5093 162.212 4.33396C175.039 3.754 170.331 15.4791 172.46 17.3404L172.469 17.3449ZM188.272 59.7764C186.301 57.5779 172.483 50.3486 170.363 51.8907C166.438 54.741 175.111 69.267 179.954 70.7776C189.29 73.6909 195.199 67.4957 188.272 59.7764Z" fill="#5DBDF9"/>
<path d="M161.671 49.6922C162.486 50.5015 161.811 70.0133 161.406 72.6209C158.48 91.3729 134.463 103.458 120.082 88.5496C109.869 77.9664 120.847 55.9279 127.581 45.2908C129.822 45.2773 138.514 42.2382 139.346 42.3596C141.192 42.6293 149.622 48.5413 153.826 49.436C155.798 49.8541 161.397 49.409 161.676 49.6877L161.671 49.6922ZM131.479 84.1302C131.663 84.3909 136.632 86.1803 137.447 86.2927C144.383 87.2323 154.407 83.5412 151.792 75.2015C150.545 71.2272 143.379 77.355 140.377 78.5644C138.577 79.2927 128.643 80.1469 131.474 84.1302H131.479Z" fill="#5DBDF9"/>
<path d="M336.518 99.2991C337.359 100.32 357.119 92.2406 350.547 112.234C357.474 110.894 369.15 115.547 368.983 123.59C368.925 126.355 365.702 128.742 366.652 132.096C366.845 132.784 378.179 135.675 371.472 142.324C367.98 145.786 362.043 144.824 360.445 145.84C358.082 147.341 360.985 152.336 360.805 154.431C360.148 161.998 349.913 168.575 343.841 163.985C341.91 162.524 336.945 155.766 335.955 155.38C333.704 154.499 334.758 158.055 332.656 159.597C322.272 167.213 320.08 153.384 317.1 151.558C314.931 150.232 312.37 151.977 309.831 151.325C306.897 150.574 304.07 147.206 301.981 145.111L310.493 142.85C317.654 138.579 323.298 130.968 325.729 123.032C328.524 125.465 331.337 132.307 336.063 128.513C342.72 123.167 333.925 113.578 333.412 110.422C333.106 108.533 337.967 105.98 336.504 104.699C333.637 102.185 329.113 109.262 327.115 109.855C315.309 113.366 316.317 103.826 313.301 102.541C312.536 102.212 312.298 105.643 311.159 105.751C308.247 106.029 297.611 92.5868 309.048 90.739C319.328 89.0801 317.762 97.159 319.778 97.1231C320.503 97.1096 324.351 88.5136 331.386 89.7634C337.832 90.9099 335.829 98.4673 336.513 99.2991H336.518Z" fill="#5DBDF9"/>
<path d="M315.187 111.973C317.933 114.702 324.824 111.496 324.662 114.935C324.36 121.306 314.791 138.093 308.472 139.77C301.356 141.654 290.698 135.931 291.22 128.009C291.53 123.284 303.093 108.264 307.059 107.063C314.391 104.847 313.018 109.815 315.187 111.973ZM301.86 123.131C297.985 120.65 295.451 129.96 301.563 133.674C311.398 139.644 302.733 123.693 301.86 123.131Z" fill="#5DBDF9"/>
<path d="M303.602 105.791C304.475 106.277 303.962 106.299 303.602 106.848C302.265 108.889 301.171 107.427 303.602 105.791Z" fill="#5DBDF9"/>
<path d="M411.306 177.675C415.497 181.357 414.799 177.059 417.338 176.326C428.815 173.012 422.991 181.599 424.386 183.461C426.218 185.906 432.533 182.152 435.009 188.033C436.863 192.443 433.294 193.994 433.645 195.788C434.131 198.283 445.478 195.896 447.251 206.03C448.147 211.128 445.329 209.379 443.876 211.425C441.359 214.963 445.829 214.675 446.437 216.424C447.746 220.174 446.437 227.052 441.679 227.655C439.627 227.915 435.562 225.982 434.761 226.562C433.6 227.403 434.59 234.637 430.494 235.787C422.527 238.031 422.752 230.392 417.918 229.732C414.822 229.309 413.678 231.471 411.45 231.89C401.013 233.845 403.619 223.231 401.341 221.612C399.77 220.493 395.994 221.77 393.68 220.637C392.672 220.142 390.44 215.723 390.498 215.21C390.728 213.106 394.923 214.459 396.687 213.992C403.448 212.207 410.793 202.806 413.147 196.359L415.461 207.504C420.07 216.473 424.512 212.648 422.59 203.602C422.109 201.332 417.126 194.646 417.446 194.219C417.702 193.882 423.59 192.007 422.842 188.289C421.785 183.007 416.933 191.441 415.884 191.621C409.308 192.745 404.649 186.176 407.723 180.183L401.26 183.411C400.526 179.307 398.924 176.605 403.7 174.523C409.69 171.915 408.804 175.494 411.293 177.679L411.306 177.675Z" fill="#5DBDF9"/>
<path d="M403.42 184.486C403.569 184.625 403.538 187.255 404.258 188.496C405.766 191.086 410.258 193.554 409.492 196.368C407.03 205.405 400.243 204.6 392.641 203.903C391.781 209.028 395.8 207.779 399.109 208.745C396.075 211.874 391.556 211.533 388.869 208.206C379.979 197.195 402.273 183.398 403.42 184.49V184.486Z" fill="#5DBDF9"/>
<path d="M128.306 252.323C125.947 250.853 126.65 231.566 134.036 234.169C138.811 235.855 135.35 256.715 128.306 252.323Z" fill="#0030FF"/>
<path d="M208.077 231.944C207.978 234.084 199.818 238.813 199.453 238.404C197.9 236.646 205.908 230.972 208.077 231.944Z" fill="#0030FF"/>
<path d="M188.273 59.7764C195.2 67.4957 189.29 73.6909 179.955 70.7776C175.116 69.267 166.443 54.741 170.363 51.8907C172.483 50.3531 186.301 57.5779 188.273 59.7764Z" fill="#0030FF"/>
<path d="M131.479 84.1302C128.648 80.1469 138.581 79.2927 140.382 78.5644C143.384 77.3505 150.55 71.2227 151.796 75.2015C154.411 83.5412 144.388 87.2323 137.452 86.2927C136.637 86.1803 131.668 84.3909 131.483 84.1302H131.479Z" fill="#0030FF"/>
<path d="M301.859 123.131C302.733 123.693 311.397 139.644 301.562 133.674C295.45 129.961 297.984 120.65 301.859 123.131Z" fill="#0030FF"/>
</g>
<defs>
<clipPath id="clip0_203_187">
<rect width="451" height="508" fill="white"/>
</clipPath>
</defs>
</svg>
