<svg width="290" height="65" viewBox="0 0 290 65" fill="none" xmlns="http://www.w3.org/2000/svg">
<g clip-path="url(#clip0_134_173)">
<path d="M34.15 42.6199C33.28 42.6199 32.56 41.8999 32.56 40.8099V28.9599C32.56 17.4699 26.85 11.9099 17.04 11.9099C7.85003 11.9099 1.64003 17.2699 1.22003 26.2799H9.66003C9.96003 21.4399 13.06 19.3499 17.04 19.3499C21.02 19.3499 23.47 21.6599 23.47 25.4899V25.8599C23.47 26.7999 23.17 27.4499 22.6 27.7999C21.95 28.1699 20.29 28.3899 17.61 28.3899C6.34003 28.3899 0.280029 32.2899 0.280029 40.0899C0.280029 47.8899 5.12003 51.6399 12.84 51.6399H13.06C17.18 51.6399 20.26 49.8399 23.02 46.9399C23.69 46.2399 24.33 45.2799 24.83 43.9099V46.2199C24.83 48.7499 26.42 50.9099 29.18 50.9099H36.46V42.6199H34.15ZM23.47 34.9499C23.47 41.0999 20.07 44.4099 15.52 44.4099C11.82 44.4099 9.29003 42.8999 9.29003 39.6399C9.29003 35.8899 12.12 34.5999 17.31 34.5999C22.02 34.5999 23.47 34.0799 23.47 33.4299V34.9499Z" fill="#0030FF"/>
<path d="M60.81 11.76C56.49 11.76 53.23 13.15 51 15.88C50.63 16.4 50.33 16.9 49.98 17.47V12.5H40.72V50.91H49.98V29.11C49.98 22.53 52.72 19.85 57.28 19.85C61.84 19.85 64.56 22.53 64.56 29.11V50.91H73.82V28.82C73.82 17.32 70.27 11.76 60.81 11.76Z" fill="#0030FF"/>
<path d="M230.25 21.37C227.35 15.31 222.58 11.76 215.3 11.76C211.18 11.76 207.86 13.42 205.25 16.68C204.9 17.27 204.46 17.84 204.11 18.49V12.5H194.85V64.35H204.11V45.15C205.47 47.24 207.06 48.9 208.87 49.99C210.67 51.06 212.85 51.64 215.3 51.64C225.56 51.64 232.34 43.19 232.34 31.7C232.34 27.87 231.62 24.49 230.25 21.37ZM213.42 43.56C209.87 43.56 206.99 41.68 205.33 38.28C204.53 36.76 204.18 34.75 204.11 32.36V31.27C204.18 28.89 204.61 26.93 205.4 25.42C207.21 22.16 209.74 20.52 213.42 20.52C219.13 20.52 222.95 24.77 222.95 31.99C222.95 39.72 219.13 43.56 213.42 43.56Z" fill="#0030FF"/>
<path d="M93.83 20.72V39.94C93.83 41.97 94.62 42.62 96.29 42.62H104.24V50.84L91.38 50.91C86.98 50.91 84.6 48.53 84.6 44.13V20.72H77.73V12.5H79.84C81.56 12.5 83.28 11.08 84.61 8.97001C86.11 6.62001 87.14 3.41001 87.14 0.51001H97.16C97.09 1.27001 97.03 2.12001 96.88 2.97001C96.53 4.43001 96.05 6.33001 94.92 8.09001C93.53 10.26 91.13 12.07 86.16 12.86V12.99C87.56 12.79 89.45 12.51 90.93 12.51H104.25V20.73H93.85L93.83 20.72Z" fill="#0030FF"/>
<path d="M287.47 42.6199C286.6 42.6199 285.88 41.8999 285.88 40.8099V28.9599C285.88 17.4699 280.17 11.9099 270.36 11.9099C261.18 11.9099 254.97 17.2699 254.54 26.2799H262.99C263.28 21.4399 266.39 19.3499 270.36 19.3499C274.33 19.3499 276.79 21.6599 276.79 25.4899V25.8599C276.79 26.7999 276.5 27.4499 275.92 27.7999C275.28 28.1699 273.61 28.3899 270.93 28.3899C259.66 28.3899 253.6 32.2899 253.6 40.0899C253.6 47.8899 258.44 51.6399 266.17 51.6399H266.39C270.51 51.6399 273.58 49.8399 276.35 46.9399C277.02 46.2399 277.66 45.2799 278.16 43.9099V46.2199C278.16 48.7499 279.75 50.9099 282.5 50.9099H289.78V42.6199H287.47ZM276.79 34.9499C276.79 41.0999 273.39 44.4099 268.85 44.4099C265.15 44.4099 262.62 42.8999 262.62 39.6399C262.62 35.8899 265.45 34.5999 270.64 34.5999C275.35 34.5999 276.79 34.0799 276.79 33.4299V34.9499Z" fill="#0030FF"/>
<path d="M238.23 12.5V51.0999H247.53V12.5H238.23ZM238.23 0.449951V8.27995H247.51V0.449951H238.23Z" fill="#0030FF"/>
<path d="M119.21 50.88H109.94V22.27C109.97 16.81 114.45 12.36 119.91 12.36H130.23V20.71H120.38C119.74 20.71 119.22 21.23 119.21 21.87V50.88Z" fill="#0030FF"/>
<path d="M188.71 24.1099C184.57 8.80994 168.78 -0.190062 153.52 3.94994C138.23 8.11994 129.22 23.8799 133.4 39.1699C137.54 54.4699 153.29 63.4799 168.59 59.2999C183.88 55.1599 192.89 39.3699 188.71 24.1099ZM173.45 39.7899C170.78 43.3199 165.27 50.5799 157.58 50.1799C149.34 49.7799 141.43 40.7099 141.79 30.7499C142.17 20.7399 150.76 12.9699 159.92 12.4099C168.4 11.8899 177.49 17.5999 178.91 25.2699C179.99 31.1799 176.16 36.2299 173.45 39.7899Z" fill="#0030FF"/>
</g>
<defs>
<clipPath id="clip0_134_173">
<rect width="290" height="65" fill="white"/>
</clipPath>
</defs>
</svg>
