<svg width="66" height="291" viewBox="0 0 66 291" fill="none" xmlns="http://www.w3.org/2000/svg">
  <g clip-path="url(#clip0_30_2)">
    <path
      d="M43.12 256.35C43.12 257.22 42.4 257.94 41.31 257.94H29.46C17.97 257.94 12.41 263.65 12.41 273.46C12.41 282.65 17.77 288.86 26.78 289.28V280.84C21.94 280.54 19.85 277.44 19.85 273.46C19.85 269.48 22.16 267.03 25.99 267.03H26.36C27.3 267.03 27.95 267.33 28.3 267.9C28.67 268.55 28.89 270.21 28.89 272.89C28.89 284.16 32.79 290.22 40.59 290.22C48.39 290.22 52.14 285.38 52.14 277.66V277.44C52.14 273.32 50.34 270.24 47.44 267.48C46.74 266.81 45.78 266.17 44.41 265.67H46.72C49.25 265.67 51.41 264.08 51.41 261.32V254.04H43.12V256.35ZM35.45 267.03C41.6 267.03 44.91 270.43 44.91 274.98C44.91 278.68 43.4 281.21 40.14 281.21C36.39 281.21 35.1 278.38 35.1 273.19C35.1 268.48 34.58 267.03 33.93 267.03H35.45Z"
      fill="white"/>
    <path
      d="M12.26 229.69C12.26 234.01 13.65 237.27 16.38 239.5C16.9 239.87 17.4 240.17 17.97 240.52H13V249.78H51.41V240.52H29.61C23.03 240.52 20.35 237.78 20.35 233.22C20.35 228.66 23.03 225.94 29.61 225.94H51.41V216.68H29.32C17.82 216.68 12.26 220.23 12.26 229.69Z"
      fill="white"/>
    <path
      d="M21.87 60.25C15.81 63.15 12.26 67.92 12.26 75.2C12.26 79.32 13.92 82.64 17.18 85.25C17.77 85.6 18.34 86.04 18.99 86.39H13V95.65H64.85V86.39H45.65C47.74 85.03 49.4 83.44 50.49 81.63C51.56 79.83 52.14 77.65 52.14 75.2C52.14 64.94 43.69 58.16 32.2 58.16C28.37 58.16 24.99 58.88 21.87 60.25ZM44.06 77.08C44.06 80.63 42.18 83.51 38.78 85.17C37.26 85.97 35.25 86.32 32.86 86.39H31.77C29.39 86.32 27.43 85.89 25.92 85.1C22.66 83.29 21.02 80.76 21.02 77.08C21.02 71.37 25.27 67.55 32.49 67.55C40.22 67.55 44.06 71.37 44.06 77.08Z"
      fill="white"/>
    <path
      d="M21.22 196.67H40.44C42.47 196.67 43.12 195.88 43.12 194.21V186.26H51.34L51.41 199.12C51.41 203.52 49.03 205.9 44.63 205.9H21.22V212.77H13V210.66C13 208.94 11.58 207.22 9.47001 205.89C7.12001 204.39 3.91001 203.36 1.01001 203.36L1.01001 193.34C1.77001 193.41 2.62001 193.47 3.47001 193.62C4.93001 193.97 6.83001 194.45 8.59001 195.58C10.76 196.97 12.57 199.37 13.36 204.34H13.49C13.29 202.94 13.01 201.05 13.01 199.57L13.01 186.25H21.23V196.65L21.22 196.67Z"
      fill="white"/>
    <path
      d="M43.12 3.03C43.12 3.9 42.4 4.62 41.31 4.62H29.46C17.97 4.62 12.41 10.33 12.41 20.14C12.41 29.32 17.77 35.53 26.78 35.96V27.51C21.94 27.22 19.85 24.11 19.85 20.14C19.85 16.17 22.16 13.71 25.99 13.71H26.36C27.3 13.71 27.95 14 28.3 14.58C28.67 15.22 28.89 16.89 28.89 19.57C28.89 30.84 32.79 36.9 40.59 36.9C48.39 36.9 52.14 32.06 52.14 24.33V24.11C52.14 19.99 50.34 16.92 47.44 14.15C46.74 13.48 45.78 12.84 44.41 12.34H46.72C49.25 12.34 51.41 10.75 51.41 8V0.720001H43.12V3.03ZM35.45 13.71C41.6 13.71 44.91 17.11 44.91 21.65C44.91 25.35 43.4 27.88 40.14 27.88C36.39 27.88 35.1 25.05 35.1 19.86C35.1 15.15 34.58 13.71 33.93 13.71H35.45Z"
      fill="white"/>
    <path d="M13 52.27H51.6V42.97H13V52.27ZM0.950012 52.27H8.78001V42.99H0.950012L0.950012 52.27Z" fill="white"/>
    <path
      d="M51.38 171.29V180.56H22.77C17.31 180.53 12.86 176.05 12.86 170.59L12.86 160.27H21.21V170.12C21.21 170.76 21.73 171.28 22.37 171.29H51.38Z"
      fill="white"/>
    <path
      d="M24.61 101.79C9.31 105.93 0.309999 121.72 4.45 136.98C8.62 152.27 24.38 161.28 39.67 157.1C54.97 152.96 63.98 137.21 59.8 121.91C55.66 106.62 39.87 97.61 24.61 101.79ZM40.29 117.05C43.82 119.72 51.08 125.23 50.68 132.92C50.28 141.16 41.21 149.07 31.25 148.71C21.24 148.33 13.47 139.74 12.91 130.58C12.39 122.1 18.1 113.01 25.77 111.59C31.68 110.51 36.73 114.34 40.29 117.05Z"
      fill="#00DC64"/>
  </g>
  <defs>
    <clipPath id="clip0_30_2">
      <rect width="290" height="65" fill="white" transform="matrix(0 -1 1 0 0.5 290.5)"/>
    </clipPath>
  </defs>
</svg>
