<svg width="290" height="65" viewBox="0 0 290 65" fill="none" xmlns="http://www.w3.org/2000/svg">
<g clip-path="url(#clip0_31_18)">
<path d="M34.15 42.62C33.28 42.62 32.56 41.9 32.56 40.81V28.96C32.56 17.47 26.85 11.91 17.04 11.91C7.85 11.91 1.64 17.27 1.22 26.28H9.66C9.96 21.44 13.06 19.35 17.04 19.35C21.02 19.35 23.47 21.66 23.47 25.49V25.86C23.47 26.8 23.17 27.45 22.6 27.8C21.95 28.17 20.29 28.39 17.61 28.39C6.34 28.39 0.279999 32.29 0.279999 40.09C0.279999 47.89 5.12 51.64 12.84 51.64H13.06C17.18 51.64 20.26 49.84 23.02 46.94C23.69 46.24 24.33 45.28 24.83 43.91V46.22C24.83 48.75 26.42 50.91 29.18 50.91H36.46V42.62H34.15ZM23.47 34.95C23.47 41.1 20.07 44.41 15.52 44.41C11.82 44.41 9.29 42.9 9.29 39.64C9.29 35.89 12.12 34.6 17.31 34.6C22.02 34.6 23.47 34.08 23.47 33.43V34.95Z" fill="white"/>
<path d="M60.81 11.76C56.49 11.76 53.23 13.15 51 15.88C50.63 16.4 50.33 16.9 49.98 17.47V12.5H40.72V50.91H49.98V29.11C49.98 22.53 52.72 19.85 57.28 19.85C61.84 19.85 64.56 22.53 64.56 29.11V50.91H73.82V28.82C73.82 17.32 70.27 11.76 60.81 11.76Z" fill="white"/>
<path d="M230.25 21.37C227.35 15.31 222.58 11.76 215.3 11.76C211.18 11.76 207.86 13.42 205.25 16.68C204.9 17.27 204.46 17.84 204.11 18.49V12.5H194.85V64.35H204.11V45.15C205.47 47.24 207.06 48.9 208.87 49.99C210.67 51.06 212.85 51.64 215.3 51.64C225.56 51.64 232.34 43.19 232.34 31.7C232.34 27.87 231.62 24.49 230.25 21.37ZM213.42 43.56C209.87 43.56 206.99 41.68 205.33 38.28C204.53 36.76 204.18 34.75 204.11 32.36V31.27C204.18 28.89 204.61 26.93 205.4 25.42C207.21 22.16 209.74 20.52 213.42 20.52C219.13 20.52 222.95 24.77 222.95 31.99C222.95 39.72 219.13 43.56 213.42 43.56Z" fill="white"/>
<path d="M93.83 20.72V39.94C93.83 41.97 94.62 42.62 96.29 42.62H104.24V50.84L91.38 50.91C86.98 50.91 84.6 48.53 84.6 44.13V20.72H77.73V12.5H79.84C81.56 12.5 83.28 11.08 84.61 8.97001C86.11 6.62001 87.14 3.41001 87.14 0.51001H97.16C97.09 1.27001 97.03 2.12001 96.88 2.97001C96.53 4.43001 96.05 6.33001 94.92 8.09001C93.53 10.26 91.13 12.07 86.16 12.86V12.99C87.56 12.79 89.45 12.51 90.93 12.51H104.25V20.73H93.85L93.83 20.72Z" fill="white"/>
<path d="M287.47 42.62C286.6 42.62 285.88 41.9 285.88 40.81V28.96C285.88 17.47 280.17 11.91 270.36 11.91C261.18 11.91 254.97 17.27 254.54 26.28H262.99C263.28 21.44 266.39 19.35 270.36 19.35C274.33 19.35 276.79 21.66 276.79 25.49V25.86C276.79 26.8 276.5 27.45 275.92 27.8C275.28 28.17 273.61 28.39 270.93 28.39C259.66 28.39 253.6 32.29 253.6 40.09C253.6 47.89 258.44 51.64 266.17 51.64H266.39C270.51 51.64 273.58 49.84 276.35 46.94C277.02 46.24 277.66 45.28 278.16 43.91V46.22C278.16 48.75 279.75 50.91 282.5 50.91H289.78V42.62H287.47ZM276.79 34.95C276.79 41.1 273.39 44.41 268.85 44.41C265.15 44.41 262.62 42.9 262.62 39.64C262.62 35.89 265.45 34.6 270.64 34.6C275.35 34.6 276.79 34.08 276.79 33.43V34.95Z" fill="white"/>
<path d="M238.23 12.5V51.1H247.53V12.5H238.23ZM238.23 0.450012V8.28001H247.51V0.450012H238.23Z" fill="white"/>
<path d="M119.21 50.88H109.94V22.27C109.97 16.81 114.45 12.36 119.91 12.36H130.23V20.71H120.38C119.74 20.71 119.22 21.23 119.21 21.87V50.88Z" fill="white"/>
<path d="M188.71 24.11C184.57 8.81 168.78 -0.190001 153.52 3.95C138.23 8.12 129.22 23.88 133.4 39.17C137.54 54.47 153.29 63.48 168.59 59.3C183.88 55.16 192.89 39.37 188.71 24.11ZM173.45 39.79C170.78 43.32 165.27 50.58 157.58 50.18C149.34 49.78 141.43 40.71 141.79 30.75C142.17 20.74 150.76 12.97 159.92 12.41C168.4 11.89 177.49 17.6 178.91 25.27C179.99 31.18 176.16 36.23 173.45 39.79Z" fill="#00DC64"/>
</g>
<defs>
<clipPath id="clip0_31_18">
<rect width="290" height="65" fill="white"/>
</clipPath>
</defs>
</svg>
