<svg width="450" height="450" viewBox="0 0 450 450" fill="none" xmlns="http://www.w3.org/2000/svg">
<path d="M169.629 80.4199L167.652 66.5771L286.304 70.5322L300.806 96.0205L315.747 153.809L337.94 162.817L351.123 174.463C351.123 174.463 379.395 220.239 378.809 217.09C378.223 213.94 402.1 248.511 404.077 267.847C406.055 287.183 362.549 294.653 362.549 294.653L368.921 312.451C368.921 312.451 288.941 332.373 261.475 326.733L235.987 270.923L221.045 236.426L198.633 257.739C197.827 247.925 187.647 255.542 179.956 260.376C172.266 265.21 150.733 276.782 132.276 293.115L130.298 305.859L109.424 316.406C94.9221 321.68 59.868 320.586 63.2814 305.859C70.9717 272.681 92.5051 279.492 105.908 274.658C119.312 269.824 122.608 262.354 132.276 256.201C141.944 250.049 145.899 240.82 158.643 229.834C171.387 218.848 209.4 176.001 209.4 176.001L229.614 164.795C229.614 164.795 209.4 175.562 202.808 176.001C196.216 176.44 191.162 172.881 191.162 160.4C191.162 147.92 174.536 97.0459 169.629 80.4199Z" fill="#5DBDF9"/>
<path d="M228.296 279.053L230.054 271.143L241.26 264.771L253.564 270.264L279.6 321.044L365.186 305.42L370.898 316.846L368.921 319.702L372.437 326.294L379.907 354.858L377.051 376.392L382.983 374.194C384.668 373.608 390.146 373.228 398.584 376.392C407.021 379.556 416.748 401.44 420.557 411.987L178.198 433.74L176.88 404.956L232.471 389.136L256.86 325.195L273.711 322.119H230.054L228.296 279.053Z" fill="#5DBDF9"/>
<path d="M172.485 53.8327L168.091 67.0163L176.001 74.0475L225 85.0338L282.129 103.491L296.411 138.867C296.411 138.867 300.586 155.786 310.913 156.006C321.24 156.226 322.822 151.787 332.666 141.943C335.654 120.849 326.587 105.908 321.68 101.074L306.738 83.4957L299.268 62.1822C299.268 62.1822 292.896 45.7027 286.523 39.3307C280.151 32.9587 274.087 25.3123 250.708 22.8513C227.329 20.3904 211.157 26.5133 200.61 30.3219L184.57 39.3307L172.485 53.8327Z" fill="#5DBDF9"/>
<path d="M179.517 159.741C182.681 172.573 192.114 174.756 196.436 174.243L213.574 155.566L189.185 88.3301H172.705L166.992 90.7471L169.849 112.061L175.122 120.41L181.494 124.805L177.759 141.064C177.026 141.943 176.353 146.909 179.517 159.741Z" fill="#5DBDF9"/>
<path d="M63.7207 339.917L15.8203 346.729C68.0273 390.322 1.53809 374.194 63.7207 425.391L201.929 401.221H222.363L254.224 386.279L260.815 357.935V323.877L236.206 274.658L154.028 317.944L63.7207 297.729L41.9678 303.003L45.7031 332.446L63.7207 339.917Z" fill="#5DBDF9"/>
<path d="M332.446 143.042C332.275 140.509 333.665 138.357 334.289 136.034C336.753 126.853 334.391 118.672 329.56 110.98C326.168 105.58 322.096 100.642 317.465 96.2825C309.231 88.5325 304.063 79.1583 300.957 68.3545C297.977 57.9886 293.523 48.2188 286.951 39.5597C279.468 29.6999 269.711 23.4423 257.532 20.8171C251.269 19.4673 245.01 18.5509 238.624 18.9225C230.935 19.37 223.422 20.7519 216.438 24.1862C211.753 26.4903 206.782 28.0318 201.923 29.8689C190.81 34.0705 181.367 40.5077 174.477 50.3276C169.821 56.9633 167.253 64.3155 167.434 72.5098C167.539 77.2918 169.201 81.6469 171.17 85.9116C171.513 86.6547 171.899 87.378 172.265 88.1104" stroke="#0030FF" stroke-width="2.63672" stroke-linecap="round" stroke-linejoin="round"/>
<path d="M97.1191 349.804C95.3251 351.973 92.6037 352.645 90.2859 353.94C86.3029 356.167 86.0082 356.585 87.9082 360.783C89.8801 365.14 91.9361 369.461 94.0607 373.746C95.7583 377.169 97.7235 377.339 100.195 374.413C101.387 373.002 101.899 371.033 103.577 370.141C104.8 370.202 105.243 371.157 105.897 371.789C108.29 374.097 109.712 373.879 111.405 370.9C112.133 369.619 112.385 367.974 114.045 367.284C115.257 367.818 115.83 368.952 116.69 369.783C118.139 371.183 118.97 371.043 120.173 369.129C121.415 367.152 122.585 365.149 124.831 364.063C125.888 364.407 126.452 365.364 127.217 366.069C128.877 367.6 129.777 367.573 131.17 365.839C131.794 365.064 132.385 364.257 132.927 363.423C134.09 361.634 135.018 361.397 136.667 362.552C137.051 362.821 137.397 363.142 137.77 363.426C140.14 365.232 141.928 364.726 143.013 361.879C143.155 361.506 143.246 361.149 143.453 360.775C145.083 357.846 145.176 357.889 147.874 359.476C148.697 359.96 149.495 360.486 150.386 361.044C153.017 360.175 152.759 356.836 154.991 355.465C156.793 356.111 157.982 357.8 159.724 358.702C161.475 357.932 161.923 356.201 162.805 354.85C164.551 352.173 165.192 352.031 167.651 353.979C169.995 355.835 170.2 355.825 172.266 353.76C172.412 353.613 172.563 353.471 172.704 353.319C175.544 350.272 175.543 350.271 179.077 352.221C180.705 353.12 182.001 352.54 183.468 350.241C183.643 349.967 183.755 349.653 183.913 349.366C185.196 347.033 185.83 346.841 188.079 348.278C189.504 349.188 191.051 349.385 192.685 349.671C195.522 350.167 198.286 351.135 201.046 352.014C207.357 354.026 213.735 355.876 219.911 358.247C223.16 359.494 226.011 358.744 228.946 357.902C235.216 356.102 241.491 354.327 247.863 352.932C248.659 352.757 249.196 352.299 249.808 351.963C253.072 350.175 254.964 352.298 255.042 354.64C255.146 357.78 255.214 360.932 254.934 364.091C254.689 366.853 254.939 369.655 254.866 372.436C254.802 374.855 254.556 377.269 254.46 379.688C254.423 380.628 253.941 380.747 253.147 381.061C249.579 382.475 245.802 383.08 242.124 384.026C236.466 385.482 230.695 386.496 225.009 387.856C222.872 388.367 220.891 388.321 218.844 387.607C213.508 385.747 208.159 383.92 202.805 382.111C200.565 381.355 198.497 381.692 196.178 382.423C192.437 383.603 188.46 384.056 184.569 384.731C177.177 386.011 169.777 387.24 162.378 388.474C155.715 389.585 149.031 390.581 142.388 391.799C136.107 392.95 129.795 393.884 123.496 394.907C112.919 396.624 102.324 398.252 91.8342 400.508C86.3331 401.691 80.7048 402.271 75.149 403.213C70.3763 404.021 65.625 404.956 60.8643 405.835" stroke="#0030FF" stroke-width="2.19727" stroke-linecap="round" stroke-linejoin="round"/>
<path d="M211.157 399.243C207.995 399.59 204.839 399.991 201.69 400.425C198.329 400.888 194.98 401.503 191.608 401.928C187.042 402.504 182.517 403.404 177.979 404.192C174.972 404.715 171.979 405.325 168.968 405.826C164.36 406.593 159.731 407.24 155.13 408.049C150.575 408.851 146.048 409.805 141.503 410.666C134.474 411.997 127.403 413.132 120.421 414.671C112.979 416.311 105.48 417.619 97.9916 418.983C88.3501 420.74 78.6594 422.225 68.9963 423.865C66.9305 424.216 64.8827 424.691 62.8452 425.185C61.4535 425.523 60.0614 425.37 58.667 425.391" stroke="#0030FF" stroke-width="2.63672" stroke-linecap="round" stroke-linejoin="round"/>
<path d="M362.109 295.312C362.894 298.685 364.958 301.52 366.073 304.758C367.252 308.18 369.363 311.245 370.003 314.871C370.162 315.77 371.103 316.05 371.418 317.016C362.208 328.573 349.882 335.048 335.746 338.615C329.295 340.243 322.892 342.052 316.187 342.34C309.519 342.628 302.851 342.839 296.192 342.218C287.717 341.427 279.416 339.608 271.153 337.677C265.534 336.364 260.011 334.639 254.441 333.113C253.885 332.961 253.494 332.625 253.125 332.227" stroke="#0030FF" stroke-width="2.63672" stroke-linecap="round" stroke-linejoin="round"/>
<path d="M257.96 88.7696C257.193 91.1866 257.565 93.5801 257.92 96.0262C258.407 99.3766 259.178 102.695 259.073 106.128C258.751 116.59 254.303 120.119 246.526 122.138C240.996 123.573 235.352 124.319 229.616 123.695C227.34 123.448 225.292 122.523 223.226 121.544C218.848 119.469 216.408 115.463 213.36 112.057C212.597 111.205 211.957 110.234 211.144 109.438C209.279 107.611 207.951 107.923 206.753 110.298C205.841 112.106 205.833 114.136 205.23 116.017C203.733 120.696 201.412 123.679 196.664 123.892C192.495 124.079 188.351 124.602 184.129 124.436C180.651 124.299 177.997 122.696 175.592 120.596C171.972 117.434 170.228 113.243 169.241 108.557C168.104 103.169 167.307 97.7563 166.741 92.2885C166.534 90.2865 167.444 89.473 169.189 89.0935C174.334 87.9744 179.548 87.4083 184.79 86.9976C188.531 86.7044 192.26 86.2614 195.997 85.917C203.094 85.263 210.201 85.358 217.31 85.6903C220.825 85.8546 224.34 86.0404 227.857 86.1209C234.033 86.2624 240.173 86.7851 246.322 87.3726C249.526 87.6788 252.782 87.7789 255.971 88.1931C258.203 88.4829 260.361 88.7196 262.574 88.3301" stroke="#0030FF" stroke-width="2.63672" stroke-linecap="round" stroke-linejoin="round"/>
<path d="M383.203 215.991C379.561 210.086 375.051 204.82 370.88 199.306C365.242 191.852 359.468 184.501 353.762 177.098C348.852 170.729 342.917 165.463 335.921 161.573C331.878 159.325 327.313 158.068 322.768 157.157C316.891 155.979 310.956 155.099 304.989 154.396C301.589 153.996 298.251 154.19 294.873 154.205C288.347 154.236 281.158 150.706 279.646 142.835C278.608 137.437 277.706 132.063 277.748 126.563C277.76 124.951 277.143 123.34 277.735 121.729" stroke="#0030FF" stroke-width="2.63672" stroke-linecap="round" stroke-linejoin="round"/>
<path d="M381.665 220.605C384.7 224.706 387.887 228.698 390.459 233.127C396.231 243.069 401.553 253.271 403.986 264.57C406.245 275.064 402.629 282.022 392.637 287.155C385.471 290.836 377.753 292.933 369.794 293.948C363.384 294.766 356.932 295.241 350.467 295.596C344.957 295.898 339.477 295.495 333.985 295.475C331.843 295.467 330.183 296.124 328.717 297.517C327.441 298.729 326.124 299.918 324.993 301.259C320.389 306.719 314.339 309.83 307.866 312.521C301.035 315.361 293.909 315.61 286.743 315.959C285.564 316.017 284.969 314.968 284.109 314.425C281.638 312.864 279.856 310.788 279.272 307.837" stroke="#0030FF" stroke-width="2.63672" stroke-linecap="round" stroke-linejoin="round"/>
<path d="M74.0476 321.02C73.0222 321.767 71.8981 321.535 70.9894 320.99C67.9037 319.141 65.1206 316.995 63.9152 313.338C63.2076 311.191 62.0745 310.003 59.3663 309.41C53.3772 308.099 47.6077 305.785 41.7473 303.883C40.8155 303.581 39.7117 302.938 38.946 303.716C38.2887 304.384 38.2934 305.482 38.6441 306.528C39.2164 308.235 38.9326 310.043 38.8619 311.791C38.6099 318.021 38.4234 324.246 38.9467 330.501C41.6228 331.829 44.4665 332.588 47.2333 333.567C59.0732 337.756 71.1061 341.349 83.0794 345.117C87.1375 346.394 91.3662 347.209 95.3401 348.76C97.4511 349.583 98.9197 349.404 100.91 348.133C106.909 344.304 113.135 340.828 119.322 337.3C121.966 335.792 124.732 334.498 127.441 333.105C128.443 332.59 129.583 332.224 129.858 330.908" stroke="#0030FF" stroke-width="2.19727" stroke-linecap="round" stroke-linejoin="round"/>
<path d="M297.729 353.54C297.053 353.608 296.43 353.537 295.731 353.944C286.834 359.116 279.068 365.66 272.256 373.329C265.483 380.954 259.121 388.917 253.577 397.494C248.379 405.535 244.507 414.269 240.676 423.007C240.397 423.641 240.109 424.524 240.123 425.391C240.136 426.148 239.399 426.063 238.843 426.05" stroke="#0030FF" stroke-width="2.19727" stroke-linecap="round" stroke-linejoin="round"/>
<path d="M291.796 154.468C289.51 160.926 287.134 167.35 283 172.92C277.95 179.725 271.941 185.512 263.866 188.458C256.007 191.325 248.162 190.873 241.068 186.067C235.284 182.149 235.394 174.498 237.114 169.199C237.256 168.76 237.817 168.457 238.183 168.091" stroke="#0030FF" stroke-width="2.63672" stroke-linecap="round" stroke-linejoin="round"/>
<path d="M228.076 279.492C219.056 282.078 211.04 286.832 202.795 291.114C194.937 295.194 187.241 299.563 179.522 303.891C173.856 307.067 168.341 310.528 162.575 313.505C152.425 318.746 142.621 324.586 132.732 330.28C131.822 330.804 130.787 330.968 130.108 330.629C125.903 328.535 121.25 327.856 116.912 326.248C112.098 324.462 106.969 323.903 102.173 322.119" stroke="#0030FF" stroke-width="2.19727" stroke-linecap="round" stroke-linejoin="round"/>
<path d="M267.407 270.483C266.891 269.847 266.128 270.089 265.666 270.301C261.974 271.994 258.141 273.365 254.647 275.511C249.477 278.686 248.353 282.371 250.723 288.275C253.519 295.239 257.262 301.63 262.088 307.435C265.487 311.523 269.61 314.421 274.447 316.384C277.183 317.495 280.098 317.573 283.006 317.267C284.011 317.162 285.009 316.873 285.424 315.747" stroke="#0030FF" stroke-width="2.19727" stroke-linecap="round" stroke-linejoin="round"/>
<path d="M193.14 249.17C185.991 257.191 177.272 263.303 168.53 269.384C158.39 276.438 148.325 283.604 137.768 290.038C136.309 290.927 134.924 292.032 133.347 292.602C132.086 293.057 132.128 293.859 132.306 294.646C133.632 300.498 131.725 305.052 126.801 308.305C123.066 310.774 118.76 311.76 114.665 313.24C112.275 314.103 110.647 315.482 109.441 317.515C107.991 319.958 107.718 319.899 105.43 318.217C103.587 316.862 103.752 315.453 104.352 313.653C105.561 310.025 107.64 307.033 110.512 304.528C112.111 303.134 113.599 301.611 115.137 300.146" stroke="#0030FF" stroke-width="2.19727" stroke-linecap="round" stroke-linejoin="round"/>
<path d="M262.792 146.338C257.492 152.913 251.177 158.186 243.229 161.259C238.69 163.013 234.182 164.946 229.174 165.027C226.002 165.078 223.543 167.093 220.846 168.356C213.57 171.764 207.29 176.652 201.497 182.162C192.914 190.324 185.233 199.316 177.5 208.268C173.916 212.417 169.924 216.214 166.111 220.165C164.134 222.214 164.299 222.745 166.984 223.918C170.517 225.461 173.589 227.768 176.655 230.059C180.911 233.24 184.644 237.001 188.287 240.838C191.735 244.47 194.543 248.605 197.067 252.921C197.507 253.674 197.85 254.612 197.314 255.542" stroke="#0030FF" stroke-width="2.63672" stroke-linecap="round" stroke-linejoin="round"/>
<path d="M312.891 310.693C313.367 311.809 314.081 312.766 314.501 313.964C316.151 318.67 314.49 322.681 309.814 324.534C305.931 326.073 301.808 326.5 297.734 327.197C291.858 328.202 286.034 329.525 280.145 330.425C274.435 331.297 269.014 330.36 263.862 327.445C258.642 324.49 253.564 321.422 249.156 317.3C244.303 312.76 240.817 307.256 237.762 301.456C234.19 294.675 231.076 287.693 228.634 280.405C228.326 279.486 229.332 277.786 227.417 277.515" stroke="#0030FF" stroke-width="2.19727" stroke-linecap="round" stroke-linejoin="round"/>
<path d="M165.454 223.682C164.699 226.003 162.396 226.807 160.793 228.244C154.683 233.72 148.378 238.977 142.165 244.339C130.982 253.99 119.681 263.501 108.084 272.653C107.263 273.301 106.636 274.009 106.128 274.878" stroke="#0030FF" stroke-width="2.63672" stroke-linecap="round" stroke-linejoin="round"/>
<path d="M420.117 411.548C417.957 403.177 415.043 395.083 411.095 387.385C408.824 382.956 406.231 378.762 402.571 375.259C399.909 372.711 396.854 371.555 393.316 372.038C388.632 372.679 383.971 373.55 379.688 375.732" stroke="#0030FF" stroke-width="2.19727" stroke-linecap="round" stroke-linejoin="round"/>
<path d="M211.157 52.0752C216.671 60.3634 223.298 67.6534 231.63 73.1107C240.866 79.1605 250.973 83.2411 261.895 85.352C264.824 85.9181 267.775 86.4262 270.712 86.9649C272.384 87.2717 274.089 86.7856 275.765 86.3887C276.981 86.1009 276.514 85.2663 276.636 84.5947" stroke="#0030FF" stroke-width="2.19727" stroke-linecap="round" stroke-linejoin="round"/>
<path d="M380.127 254.004C376.493 253.486 372.947 254.265 369.353 254.581C364.734 254.986 360.268 256.137 355.763 256.997C352.535 257.613 349.33 258.706 346.062 259.232C337.604 260.594 329.168 262.15 320.582 262.592C316.203 262.817 312.355 261.216 308.492 259.506C302.686 256.935 296.726 254.953 290.259 255.11C289.525 255.128 288.776 255.172 288.065 255.339C286.778 255.642 285.846 255.496 284.721 254.494C279.154 249.535 272.98 249.014 266.061 251.736C257.693 255.028 249.903 259.314 242.372 264.132C239.516 265.959 236.376 267.23 233.52 269.09C230.331 271.167 228.382 273.728 228.076 277.515" stroke="#0030FF" stroke-width="2.63672" stroke-linecap="round" stroke-linejoin="round"/>
<path d="M182.593 124.805C184.746 133.942 188.107 142.441 194.417 149.67C201.612 157.914 210.92 162.057 221.281 164.277C222.797 164.602 224.191 165.007 225.549 165.674" stroke="#0030FF" stroke-width="2.19727" stroke-linecap="round" stroke-linejoin="round"/>
<path d="M369.141 320.581C371.331 322.881 372.086 325.951 373.242 328.742C375.188 333.442 377.026 338.206 378.186 343.204C378.912 346.333 379.373 349.467 379.772 352.65C380.315 356.977 379.831 361.188 379.216 365.401C378.107 373.006 375.501 380.135 371.528 386.701C368.459 391.771 365.188 396.729 361.01 401.001C355.066 407.078 348.926 412.947 342.59 418.62C340.75 420.268 338.723 421.779 337.28 423.853" stroke="#0030FF" stroke-width="2.19727" stroke-linecap="round" stroke-linejoin="round"/>
<path d="M143.262 362.329C152.663 365.106 161.913 368.335 171.17 371.55C179.287 374.369 187.411 377.173 195.577 379.846C196.627 380.19 197.424 380.53 197.974 381.445" stroke="#0030FF" stroke-width="2.19727" stroke-linecap="round" stroke-linejoin="round"/>
<path d="M180.835 124.365C180.404 129.209 179.42 133.953 178.184 138.644C177.264 142.136 176.409 145.63 175.739 149.186C174.589 155.295 175.078 161.177 178.262 166.515C180.645 170.511 184.13 173.588 188.306 175.781" stroke="#0030FF" stroke-width="2.19727" stroke-linecap="round" stroke-linejoin="round"/>
<path d="M62.1826 341.236C60.5713 340.407 58.9104 341.099 57.3572 341.301C50.6721 342.173 44.0205 343.299 37.3529 344.308C31.4231 345.205 25.4865 346.058 19.5571 346.958C18.302 347.149 17.0654 347.461 15.8203 347.717" stroke="#0030FF" stroke-width="2.19727" stroke-linecap="round" stroke-linejoin="round"/>
<path d="M119.531 281.47C119.68 280.562 119.184 280.136 118.446 279.69C114.558 277.342 110.206 276.017 105.877 275.283C102.985 274.792 99.7279 275.039 96.6772 275.746C91.6544 276.91 86.6035 277.946 81.7348 279.702C77.1066 281.372 73.5774 284.028 71.287 288.659C69.794 291.678 68.5502 294.973 66.1377 297.51" stroke="#0030FF" stroke-width="2.63672" stroke-linecap="round" stroke-linejoin="round"/>
<path d="M82.8369 379.907C80.1062 379.596 77.5647 380.65 74.9294 381.024C68.6224 381.919 62.3217 382.864 56.0325 383.876C50.6831 384.737 45.2808 385.278 39.9898 386.497C39.1916 386.681 38.2517 386.092 37.5732 386.938" stroke="#0030FF" stroke-width="2.63672" stroke-linecap="round" stroke-linejoin="round"/>
<path d="M288.501 85.0342C288.574 85.2905 288.635 85.7668 288.723 85.7716C292.707 85.9939 294.094 89.145 294.772 92.0887C297.047 101.963 294.615 112.664 284.992 119.541C282.42 121.379 279.608 121.585 276.636 121.069" stroke="#0030FF" stroke-width="2.63672" stroke-linecap="round" stroke-linejoin="round"/>
<path d="M90.308 292.236C88.477 296.191 86.7965 300.225 84.7784 304.082C81.9832 309.425 82.3846 314.944 83.2441 320.586C83.4971 322.246 83.1907 323.939 84.1198 325.546C85.3418 327.659 86.0812 328.229 88.3229 327.586C90.6338 326.924 91.6502 326.073 91.6898 323.878C91.7978 317.887 92.2392 311.878 94.7381 306.315C96.4735 302.451 98.8239 298.901 101.075 295.312" stroke="#0030FF" stroke-width="2.19727" stroke-linecap="round" stroke-linejoin="round"/>
<path d="M385.62 218.628C383.029 218.677 380.978 220.309 378.863 221.372C369.714 225.967 360.836 231.083 352.671 237.317C348.867 240.221 345.989 244.116 342.35 247.212C341.532 247.908 341.837 248.921 342.114 249.829" stroke="#0030FF" stroke-width="2.63672" stroke-linecap="round" stroke-linejoin="round"/>
<path d="M254.663 92.2854C250.692 92.0929 246.715 92.0446 242.79 91.2227C241.372 90.9258 239.869 90.9953 238.403 90.9748C231.885 90.8837 225.366 90.831 218.848 90.7433C215.039 90.692 211.206 90.8483 207.428 90.4684C202.03 89.9256 196.855 91.2091 191.606 91.8808C189.19 92.1901 186.768 91.9705 184.339 92.4458C179.829 93.3284 175.154 93.2576 170.728 94.7024" stroke="#0030FF" stroke-width="1.75781" stroke-linecap="round" stroke-linejoin="round"/>
<path d="M316.187 210.498C321.551 218.883 326.559 227.506 332.472 235.528C335.504 239.641 338.027 244.165 341.895 247.632" stroke="#0030FF" stroke-width="2.63672" stroke-linecap="round" stroke-linejoin="round"/>
<path d="M216.65 201.05C216.87 207.056 216.829 213.086 217.385 219.06C217.913 224.733 218.581 230.477 220.056 235.957C222.473 244.935 226.255 253.419 231.358 261.264C232.699 263.326 233.862 265.503 235.107 267.627" stroke="#0030FF" stroke-width="2.63672" stroke-linecap="round" stroke-linejoin="round"/>
<path d="M318.823 153.589C322.515 148.947 324.704 143.62 325.108 137.763C325.358 134.126 324.625 130.479 323.259 126.986C322.271 124.46 321.762 121.738 319.702 119.751" stroke="#0030FF" stroke-width="2.63672" stroke-linecap="round" stroke-linejoin="round"/>
<path d="M219.727 236.206C217.91 236.537 217.092 238.142 216.025 239.313C210.858 244.983 205.598 250.56 200.174 255.985C198.464 257.695 196.601 258.044 194.218 257.37C192.016 256.748 189.974 256.039 188.306 254.443" stroke="#0030FF" stroke-width="2.19727" stroke-linecap="round" stroke-linejoin="round"/>
<path d="M222.143 76.9043C216.509 75.082 212.407 71.1653 208.782 66.7626C206.152 63.5688 203.832 60.1074 201.55 56.6492C201.079 55.9362 200.481 55.5028 200.058 54.9224C199.126 54.9855 198.995 55.7508 198.641 56.256C193.459 63.6554 187.463 70.4006 181.714 77.3443C179.698 79.7805 177.411 82.0987 177.977 85.6935C178.058 86.205 178.125 86.7187 178.198 87.2314" stroke="#0030FF" stroke-width="2.63672" stroke-linecap="round" stroke-linejoin="round"/>
<path d="M80.6394 291.138C80.3355 291.262 80.0507 290.998 79.7078 291.544C78.0259 294.225 76.8029 297.129 75.3637 299.926C74.6442 301.324 74.0432 302.811 73.139 304.08C71.2776 306.694 71.378 309.591 71.8981 312.442C72.6132 316.363 73.514 320.247 76.2077 323.469C77.3763 324.866 78.7326 325.592 80.4041 326.123C81.5857 326.499 82.0519 325.907 82.617 325.195" stroke="#0030FF" stroke-width="2.63672" stroke-linecap="round" stroke-linejoin="round"/>
<path d="M370.02 390.015C378.78 396.379 384.229 404.867 386.239 415.511C386.403 416.381 386.734 416.436 387.378 416.382" stroke="#0030FF" stroke-width="2.19727" stroke-linecap="round" stroke-linejoin="round"/>
<path d="M223.682 359.473C223.629 362.042 223.47 364.606 223.332 367.168C223.097 371.545 222.818 375.937 223.168 380.353C223.362 382.81 222.803 385.327 222.583 387.817" stroke="#0030FF" stroke-width="2.19727" stroke-linecap="round" stroke-linejoin="round"/>
<path d="M130.078 306.299C131.006 307.37 132.366 307.494 133.598 307.82C141.206 309.831 148.828 311.792 156.445 313.77C157.198 313.966 157.872 314.306 158.423 314.868" stroke="#0030FF" stroke-width="2.19727" stroke-linecap="round" stroke-linejoin="round"/>
<path d="M234.667 139.746C232.517 142.949 229.006 143.747 225.656 144.79C221.386 146.119 217.033 146.255 212.703 145.204C210.704 144.719 209.021 143.49 207.531 142.053" stroke="#0030FF" stroke-width="2.63672" stroke-linecap="round" stroke-linejoin="round"/>
<path d="M206.543 341.894C207.706 342.24 208.624 343.006 209.633 343.63C211.35 344.692 212.735 344.143 213.824 342.352C214.352 341.483 214.61 340.383 215.965 340.035C216.554 339.884 217.215 339.422 217.732 339.727C221.851 342.157 226.477 343.238 230.941 344.725C236.745 346.658 242.516 348.713 248.506 350.046C249.272 350.217 249.952 350.719 250.488 351.343" stroke="#0030FF" stroke-width="2.63672" stroke-linecap="round" stroke-linejoin="round"/>
<path d="M177.319 404.956C178.403 411.372 177.905 417.843 177.95 424.292C177.971 427.367 177.686 430.444 177.539 433.521" stroke="#0030FF" stroke-width="2.19727" stroke-linecap="round" stroke-linejoin="round"/>
<path d="M61.7432 309.595C62.4739 306.42 63.1871 303.241 64.8166 300.365C65.2881 299.532 66.1924 298.875 65.8245 297.559C63.393 296.762 61.042 298.055 58.6805 298.466C53.3641 299.391 48.1288 300.774 42.8389 301.866C41.8598 302.069 41.2581 302.577 40.6494 303.223" stroke="#0030FF" stroke-width="2.19727" stroke-linecap="round" stroke-linejoin="round"/>
<path d="M288.501 85.6934C286.117 86.0606 284.181 87.3204 282.594 89.0129C280.53 91.2141 278.525 93.4653 276.818 95.9952C274.555 99.348 271 101.033 267.423 102.647C266.584 103.026 265.942 102.494 265.21 102.612" stroke="#0030FF" stroke-width="2.63672" stroke-linecap="round" stroke-linejoin="round"/>
<path d="M178.638 93.8232C179.124 98.8064 179.369 103.81 180.139 108.77C180.498 111.081 180.468 113.452 180.615 115.796C180.656 116.448 180.324 117.242 181.274 117.554" stroke="#0030FF" stroke-width="2.19727" stroke-linecap="round" stroke-linejoin="round"/>
<path d="M247.632 330.908C246.649 331.39 245.965 332.053 245.384 333.077C243.669 336.097 242.503 336.243 239.502 334.204C239.283 334.056 239.047 333.929 238.845 333.762C237.534 332.675 236.601 332.83 235.737 334.408C234.633 336.426 233.282 338.179 230.486 337.765C229.663 337.643 229.139 337.31 228.483 336.892C227.509 336.271 226.398 335.917 225.626 337.484C224.902 338.952 223.901 340.283 223.022 341.675" stroke="#0030FF" stroke-width="2.19727" stroke-linecap="round" stroke-linejoin="round"/>
<path d="M287.402 261.475C280.77 263.597 274.373 266.441 268.631 270.233C265.753 272.133 262.677 274.15 260.212 276.69C258.726 278.221 259.317 280.477 259.769 282.336C260.517 285.409 262.757 286.696 265.869 286.523" stroke="#0030FF" stroke-width="2.63672" stroke-linecap="round" stroke-linejoin="round"/>
<path d="M286.084 278.174C280.664 280.591 275.236 282.991 269.831 285.44C268.76 285.925 267.674 286.099 266.528 286.084" stroke="#0030FF" stroke-width="2.63672" stroke-linecap="round" stroke-linejoin="round"/>
<path d="M291.138 290.698C285.833 294.084 279.981 295.859 273.782 296.651C272.965 296.755 272.362 297.417 271.358 297.345C268.39 297.131 265.845 294.356 265.636 290.919C265.511 288.864 265.763 286.893 266.528 284.985" stroke="#0030FF" stroke-width="2.19727" stroke-linecap="round" stroke-linejoin="round"/>
<path d="M190.283 160.84C190.611 165.103 192.064 169.021 194.517 172.443C196.045 174.575 198.323 176.004 201.05 176.44" stroke="#0030FF" stroke-width="2.19727" stroke-linecap="round" stroke-linejoin="round"/>
<path d="M205.005 124.146C205.298 125.821 204.761 127.509 205.198 129.206C205.752 131.36 206.858 132.11 208.945 132.562C211.62 133.141 214.235 132.591 216.87 132.715" stroke="#0030FF" stroke-width="2.63672" stroke-linecap="round" stroke-linejoin="round"/>
<path d="M297.29 302.124C293.618 303.558 290.065 305.342 286.085 305.865C283.7 306.178 281.389 306.852 279.046 307.363C274.496 308.354 271.014 302.763 271.603 299.271C271.69 298.756 272.202 298.31 271.802 297.729" stroke="#0030FF" stroke-width="2.63672" stroke-linecap="round" stroke-linejoin="round"/>
<path d="M201.489 401.001C202.156 407.361 202.204 413.726 201.987 420.119C201.85 424.135 201.595 428.183 202.148 432.202" stroke="#0030FF" stroke-width="2.63672" stroke-linecap="round" stroke-linejoin="round"/>
<path d="M261.475 326.953C260.56 328.236 259.157 328.78 257.736 328.878C255.946 329.001 254.641 329.906 253.353 330.918C251.455 332.41 249.88 332.379 247.859 330.68C247.766 330.601 247.779 330.395 247.742 330.249" stroke="#0030FF" stroke-width="2.63672" stroke-linecap="round" stroke-linejoin="round"/>
<path d="M346.729 243.896C349.365 247.485 352.023 251.059 354.615 254.68C355.002 255.22 355.078 255.981 355.298 256.641" stroke="#0030FF" stroke-width="2.63672" stroke-linecap="round" stroke-linejoin="round"/>
<path d="M206.433 341.235C205.12 342.682 203.909 344.143 203.183 346.045C202.694 347.324 201.321 347.115 200.173 346.722C199.866 346.617 199.53 346.494 199.301 346.279C198.34 345.377 197.083 343.754 196.09 344.446C194.626 345.468 193.411 347.215 193.579 349.365" stroke="#0030FF" stroke-width="2.63672" stroke-linecap="round" stroke-linejoin="round"/>
<path d="M236.646 164.355C237.053 165.73 237.779 166.876 238.827 167.888C240.774 169.768 241.919 172.157 242.798 174.683" stroke="#0030FF" stroke-width="2.63672" stroke-linecap="round" stroke-linejoin="round"/>
<path d="M287.403 94.2627C286.541 96.2475 284.344 97.1707 283.469 99.1062C282.322 101.643 279.938 103.786 280.811 107.007" stroke="#0030FF" stroke-width="2.19727" stroke-linecap="round" stroke-linejoin="round"/>
<path d="M104.15 317.285C103.125 317.764 102.811 318.688 102.608 319.701C102.165 321.915 100.871 323.693 99.5221 325.404C97.2271 328.315 95.0427 328.346 91.626 325.635" stroke="#0030FF" stroke-width="2.63672" stroke-linecap="round" stroke-linejoin="round"/>
<path d="M343.652 249.39C344.282 252.612 343.759 255.835 343.652 259.058" stroke="#0030FF" stroke-width="2.63672" stroke-linecap="round" stroke-linejoin="round"/>
<path d="M266.968 86.792C266.134 89.6632 266.482 92.6823 265.869 95.5811" stroke="#0030FF" stroke-width="1.75781" stroke-linecap="round" stroke-linejoin="round"/>
<path d="M282.129 102.612C284.565 105.171 284.616 106.742 282.349 109.424" stroke="#0030FF" stroke-width="3.07617" stroke-linecap="round" stroke-linejoin="round"/>
<path d="M265.43 96.2402C265.853 97.2178 264.442 97.3802 264.551 98.2178" stroke="#0030FF" stroke-width="1.31836" stroke-linecap="round" stroke-linejoin="round"/>
<path d="M384.521 216.65C384.986 217.187 384.623 217.828 384.741 218.408" stroke="#0030FF" stroke-width="0.439453" stroke-linecap="round" stroke-linejoin="round"/>
<path d="M246.269 98.5923C240.384 96.3757 234.559 94.9482 228.344 95.9006C226.443 96.1918 224.658 96.6909 222.887 97.4218C221.702 97.9111 220.217 98.4722 219.525 96.7026C218.862 95.0088 219.936 94.031 221.379 93.5655C222.568 93.1816 223.476 92.669 223.955 91.4513C224.206 90.8156 224.796 90.5145 225.519 90.4134C232.739 89.4027 239.612 90.5145 246.147 93.7363C246.948 94.1308 247.645 94.6533 248.126 95.4221C249.408 97.4758 248.958 98.3219 246.269 98.5923Z" fill="#0030FF"/>
<path d="M204.48 97.2344C198.195 97.0354 192.22 97.5641 186.645 100.471C184.94 101.36 183.411 102.409 181.971 103.672C181.008 104.518 179.783 105.528 178.556 104.077C177.383 102.687 178.084 101.415 179.299 100.509C180.301 99.7617 180.995 98.9837 181.056 97.6763C181.087 96.9938 181.549 96.5184 182.2 96.1894C188.708 92.9026 195.572 91.737 202.798 92.6773C203.682 92.7925 204.511 93.0618 205.214 93.6346C207.091 95.1645 206.937 96.1106 204.48 97.2344Z" fill="#0030FF"/>
<path d="M237.823 107.87C237.625 108.619 237.521 109.213 237.258 109.726C236.563 111.081 235.985 112.648 234.061 112.611C232.074 112.574 230.476 111.665 229.613 109.9C228.154 106.913 228.436 103.667 228.72 100.503C228.872 98.8052 230.257 97.891 231.858 97.5188C233.482 97.1412 234.855 97.5991 235.972 98.917C238.177 101.516 237.975 104.597 237.823 107.87Z" fill="#0030FF"/>
<path d="M190.645 112.955C189.331 110.824 188.983 108.577 188.906 106.326C188.848 104.633 189.332 102.952 190.755 101.83C193.593 99.5942 195.962 100.166 197.698 103.319C198.68 105.102 198.945 107.031 199.163 108.985C199.411 111.214 198.738 113.13 196.669 114.131C194.55 115.155 192.421 115.135 190.645 112.955Z" fill="#0030FF"/>
<path d="M416.472 407.213L177.958 425.715C167.585 426.52 166.384 433.895 176.708 435.182C195.786 437.562 226.472 438.165 273 433.516C352.931 425.531 394.386 432.818 422.187 421.758C432.074 417.825 427.08 406.39 416.472 407.213Z" fill="#0030FF"/>
</svg>
