<svg width="570" height="716" viewBox="0 0 570 716" fill="none" xmlns="http://www.w3.org/2000/svg">
<g clip-path="url(#clip0_48_4736)">
<path d="M28.2569 546.621C28.2569 546.621 -4.62616 606.287 18.3035 653.764C41.2331 701.241 88.0809 693.356 98.3274 688.684C108.574 684.012 127.665 649.81 142.244 635.621C156.824 621.431 153.973 601.356 210.51 642.954C267.047 684.552 330.572 626.506 348.956 619.437C367.34 612.368 386.367 613.983 398.556 622.965C410.745 631.948 426.267 694.178 468.225 702.517C510.182 710.856 516.796 688.678 516.796 688.678C516.796 688.678 531.41 655.684 505.079 590.247C478.747 524.81 490.338 513.259 490.338 513.259L409.015 461.506C409.015 461.506 391.631 422.615 317.153 437.144C273.535 423.868 268.219 417.029 265.708 417.667C263.197 418.305 218.86 431.465 218.86 431.465L217.09 446.414C217.09 446.414 161.703 441.201 108.206 473.701C96.9367 491.356 38.6701 511.977 38.6701 511.977L28.2627 546.615L28.2569 546.621Z" fill="#9FE38E"/>
<path d="M197.839 293.241C209.482 288.224 258.731 287.42 267.57 286.684C276.409 285.948 319.642 284.149 330.629 292.971C341.617 301.793 348.962 311.322 348.962 311.322C348.962 311.322 344.353 329.425 344.462 327.218C344.571 325.011 342.583 314.661 329.095 310.489C315.607 306.316 303.137 310.161 293.086 306.713C283.035 303.264 263.944 304.546 262.99 304.644C262.036 304.741 235.595 308.425 225.417 308.793C215.24 309.161 205.413 303.632 200.746 308.793C196.08 313.954 189.569 326.109 187.851 330.534C186.132 334.96 184.219 338.27 184.219 338.27C184.219 338.27 178.42 332.264 179.65 323.839C181.386 311.971 191.023 296.178 197.833 293.247L197.839 293.241Z" fill="#9FE38E"/>
<path d="M570 5.93104V9.27012L545.364 27.5977C538.381 38.7759 530.238 50.6092 521.606 60.569C510.17 73.7586 489.723 83.7126 475.488 94.5345C459.018 107.052 463.363 112.506 458.277 129.879C451.45 153.195 435.106 163.678 419.026 179.057C405.401 192.086 408.297 198.948 404.47 215.397C401.344 228.833 390.735 240.902 382.31 251.638C377.362 257.943 371.363 262.19 369.771 271.23L367.277 270.897C366.466 270.213 366.443 269.368 366.443 268.391C366.443 257.075 390.597 235.448 396.39 222.339C400.355 213.368 399.516 204.414 401.924 195.333C407.481 174.408 434.158 161.977 445.864 141.661C453.662 128.115 451.795 116.764 457.352 103.925C464.604 87.1839 499.567 72.8046 512.9 59.3678C522.141 50.0575 530.066 35.523 537.956 25.1897C541.398 20.6839 560.368 5.75287 565.512 5.13218C567.104 4.93678 568.615 5.03448 569.994 5.92529L570 5.93104Z" fill="#0030FF"/>
<path d="M9.89021 24.4023C18.1368 29.8793 30.7108 40.2126 34.9289 49.3276C44.526 70.0862 30.0557 94.2873 49.9682 111.046C67.5821 125.868 81.8399 126.667 92.4542 151.149C97.4826 162.753 97.4481 176.529 104.235 186.925C114.798 203.109 136.503 207.621 145.302 224.276C150.698 234.488 146.279 248.006 152.611 258.684C156.077 264.523 162.513 269.92 165.818 275.511C166.26 276.264 169.036 279.977 166.708 280.448L148.043 257.414C143.669 247.098 147.485 233.92 140.79 224.621C132.17 212.638 118.809 209.086 108.741 199.943C89.5176 182.477 95.454 157.908 79.909 139.506C68.5763 126.086 45.2904 120.195 37.1759 104.655C28.2627 87.5862 37.7046 66.0632 28.5328 49.8908C23.5675 41.1437 12.5395 35.8908 8.00526 27.3563L9.89021 24.4138V24.4023Z" fill="#0030FF"/>
<path d="M300.58 111.063C291.356 100.879 305.073 89.9885 307.522 80.0345C308.677 75.3333 307.901 70.0862 309.343 65.1724C311.929 56.3563 320.302 48.5574 320.659 38.0574C320.791 34.0747 319.09 30.7586 319.963 26.5574C320.676 23.1322 324.94 17.6551 326.589 14.0057C328.273 10.2873 329.854 -1.40807 335.123 0.137908C335.899 0.643655 336.434 0.942506 336.33 2.02297C336.244 2.94251 331.98 14.477 331.25 16.1609C329.727 19.6666 325.549 24.5057 324.957 27.4023C324.245 30.9138 325.865 34.9253 325.635 38.9195C324.94 51.1781 314.717 60 313.165 69.8276C312.832 71.954 313.383 74.2299 313.01 76.3506C310.728 89.2529 299.913 97.3908 300.58 111.063Z" fill="#0030FF"/>
<path d="M233.02 138.603C223.061 132.385 226.015 119.402 223.297 110.374C221.435 104.195 214.43 97.9138 212.556 91.0805C210.085 82.0747 212.93 71.9138 211.165 64.1035C210.602 61.5977 206.821 57.1552 205.729 53.6839C203.838 47.6667 201.528 36.0058 200.614 29.5977C200.235 26.9483 198.448 18.3276 201.769 17.6264C203.585 17.2471 204.809 21.3218 205.131 22.5747C207.327 31.1379 207.769 42.2874 210.039 51.0402C211.039 54.8793 213.55 57.1782 214.843 60.4195C217.774 67.7701 214.24 81.046 216.533 90.4368C217.941 96.2012 224.366 102.747 226.4 108.937C228.377 114.954 227.693 120.954 229.107 127.086C230.084 131.339 232.641 134.414 233.02 138.598V138.603Z" fill="#0030FF"/>
<path d="M352.973 346.109C352.122 344.167 347.646 332.086 347.456 330.747C347.088 328.138 349.525 319.04 351.082 311.954C351.691 309.167 352.168 306.695 352.289 305.046C353.14 293.121 344.111 254.776 336.049 246.224C330.991 240.851 321.555 239.546 318.124 236.615C317.268 235.885 315.958 231.299 314.63 229.27C313.079 226.902 307.625 219.787 305.539 218.339C300.344 214.741 297.223 216.282 292.218 214.977C289.402 214.241 287.27 211.132 284.523 210.161C282.621 209.489 280.104 209.816 278.885 209.121C276.403 207.701 279.006 200.908 271.989 203.023C271.61 203.138 265.949 206.661 265.271 207.155C262.409 209.247 260.421 212.287 257.536 214.333C237.853 211.356 204.85 218.402 202.034 241.931C190.638 244.948 185.115 254.184 180.598 264.293C172.179 283.138 170.461 304.448 176.116 324.075C177.438 328.672 179.162 333.178 181.305 337.54C174.61 351.805 164.611 365.684 171.731 382.236C175.495 391 181.23 386.408 183.408 388.908C185.27 393.109 183.891 396.684 186.701 400.632C190.672 406.207 196.534 404.747 200.476 407.707C205.166 411.23 208.574 420.839 215.424 422.385L215.504 431.471C191.793 423.816 166.214 435.431 145.457 446.494C146.773 425.213 129.331 425.132 113.752 430.632C121.671 421.695 114.855 403.621 103.344 402.253C82.7881 399.816 66.9327 428.293 56.6805 442.385L48.6982 456.5C48.5028 442.466 50.6464 427.598 55.353 414.356C59.7033 402.109 71.0589 387.994 59.8699 375.649C45.2961 359.581 27.8489 387.678 23.6537 399.764C18.1081 396.132 7.92481 396.103 3.09751 400.885C-7.90182 411.782 13.9187 433.581 13.7176 446.086C13.3728 467.5 16.2519 482.517 23.648 502.833C26.4639 510.581 30.751 514.897 30.3258 523.667C29.5729 539.351 20.0275 552.879 15.091 567.655C4.59742 599.035 2.4194 647.724 26.5731 673.46C33.5727 680.914 48.9166 693.224 59.1114 694.31C62.7548 694.701 79.5871 695.655 79.5871 690.558C78.9033 686.862 75.0472 689.264 72.4956 689.339C54.4277 689.879 47.2155 686.241 34.0727 674.305C11.3901 653.707 7.6662 613.42 14.0336 584.96C16.93 572.006 22.2113 558.333 28.2569 546.621C34.9634 561.523 44.2502 575.931 58.2608 585.023C67.0304 590.713 72.622 592.282 82.3743 594.276C89.3509 595.701 98.0745 599.483 104.568 596.684C105.706 602.529 105.62 608.684 105.448 614.661C105.384 616.994 103.655 621.759 105.367 623.012L107.902 623.379C109.206 617.77 109.832 612.063 109.574 606.287C109.241 598.943 105.959 591.184 107.97 583.954C108.189 583.155 109.649 583.598 109.643 582.144C109.643 579.644 107.947 576.385 107.919 573.73C107.89 571.408 109.436 568.489 108.741 565.805C140.262 565.535 143.56 534.241 136.273 509.908C159.64 518.73 164.071 496.672 153.295 479.943C146.727 469.741 138.67 467.42 127.067 470.247C123.136 471.201 119.585 473.966 116.585 474.787C115.022 475.213 115.344 474.397 115.424 473.207C119.24 471.489 122.47 468.046 125.992 465.828C130.343 463.092 136.509 461.259 140.394 457.707C143.129 455.201 143.871 450.851 145.192 449.776C145.623 449.425 146.48 448.943 147.606 448.391C152.485 445.977 162.502 442.132 165.484 441.086C176.076 437.368 192.19 433.046 203.315 434.081C206.924 434.42 210.602 436.747 213.832 435.644C213.073 439.098 214.177 442.753 213.849 446.063C213.476 449.805 211.441 453.506 211.752 457.333C217.803 450.707 218.332 440.069 218.855 431.471C229.067 440.155 243.623 439.902 255.921 436.437C258.318 435.759 267.122 431.207 268.415 431.512C270.702 432.058 269.104 435.379 269.208 436.753C270.369 452.149 274.822 465.805 273.886 481.943C273.547 487.81 269.897 494.04 275.144 498.218C281.46 489.362 285.488 479.718 288.27 469.638C290.718 460.776 292.206 451.575 293.448 442.27C295.384 439.408 314.257 444.713 315.992 438.098C316.096 437.724 316.148 437.397 316.176 437.109V437.086C316.383 434.425 313.688 435.167 313.085 434.241C312.297 433.04 309.941 424.046 310.602 423.126C316.337 424.506 324.032 427.236 330.877 427.236C331.083 427.236 331.29 427.236 331.491 427.236C331.647 427.23 331.808 427.224 331.963 427.218C335.572 427.058 338.888 426.052 341.485 423.581C347.962 417.414 345.002 412.46 347.255 405.989C348.548 402.287 352.881 399.126 354.697 395.075C356.766 390.448 355.795 387.954 356.858 383.885C357.823 380.19 362.725 376.287 363.622 372.293C365.616 363.414 356.266 353.586 352.973 346.115V346.109ZM5.48243 406.184C6.87315 401.546 17.4702 401.845 21.0734 404.029L14.5049 433.971C12.4073 425.695 2.82742 415.046 5.48243 406.184ZM116.809 465.822C109.844 471.012 106.126 475.782 101.367 482.914C100.419 484.339 100.609 486.299 99.6032 487.822C95.2988 494.322 85.8971 501.885 87.4717 510.736C96.2068 497.264 107.131 484.471 122.067 477.759C132.779 472.948 142.555 472.264 148.922 483.483C153.129 490.902 157.634 507.23 144.204 506.621C135.193 506.213 129.67 490.437 120.544 502.954C121.177 510.069 128.107 500.891 130.837 505.776C133.159 518.437 136.543 529.287 133.17 542.264C130.331 553.161 124.056 558.397 112.959 560.425C102.287 562.379 93.0691 556.58 82.972 555.874L83.0869 559.759C86.8798 561.563 92.3048 564.247 95.3218 567.144C96.8102 568.575 104.339 578.672 104.804 580.259C105.229 581.713 102.258 593.655 100.718 594.109C95.6436 593.494 90.7244 591.868 85.7247 590.925C83.2593 590.46 80.6445 591.046 77.8344 590.471C74.7196 589.833 61.7376 583.195 58.7493 581.195C49.4395 574.966 33.8658 555.718 30.5039 545.138C29.2454 541.161 31.1475 540.305 31.7624 536.776C32.3486 533.374 32.636 529.937 33.2394 526.563C33.3945 525.695 33.3198 523.868 34.4979 524.098C36.0438 527.69 38.6931 531.529 41.2102 534.494C44.3594 538.207 59.5021 554.098 62.9042 555.345C66.4787 556.655 69.6165 555.483 66.1282 552.121C59.0769 545.322 51.359 539.132 44.9283 531.609C15.2405 496.92 12.7004 451.655 25.9467 409.138C28.5845 400.69 35.8312 385.356 42.6583 379.73C49.6809 373.931 57.962 377.897 58.7091 386.839C59.4102 395.218 50.9797 408.529 48.2787 417.293C45.4858 426.362 43.2445 438.259 42.8193 447.707C42.6928 450.489 42.2101 460.276 44.0261 461.598C45.2386 462.489 47.1523 462.063 47.6925 462.5C48.135 462.862 48.4051 465.621 48.6982 466.517C49.3936 467.063 54.6576 455.167 55.5081 453.73C62.1399 442.609 82.6502 413.195 94.3679 409.161C105.459 405.351 114.792 414.753 110.482 425.282C109.953 426.569 102.132 433.707 100.413 435.236C85.8569 448.172 70.5302 454.701 66.5879 476.489C65.7776 480.966 67.5247 485.414 70.7428 480.649C72.7082 477.747 74.2714 469.466 76.3172 465.368C77.4723 463.063 79.9147 459.19 81.6158 457.322C87.3625 451.023 105.695 437.494 113.556 435.035C120.498 432.862 135.589 428.891 139.187 437.316C146.52 454.494 127.165 458.121 116.809 465.822ZM179.65 323.833C174.748 302.816 176.443 280.402 186.719 261.241C193.942 247.759 202.66 244.805 217.148 241.621C246.433 235.184 289.201 231.54 317.475 242.276C333.94 248.529 334.807 252.971 340.025 268.948C344.496 282.626 348.025 296.931 348.956 311.316L342.715 298.799C321.027 276.828 278.225 284.27 250.186 285.46C216.579 286.879 190.707 281.546 181.069 321.517C180.989 321.862 180.932 322.351 180.811 322.793C180.638 323.42 180.34 323.948 179.65 323.833ZM331.451 306.793L326.44 306.31L328.957 295.466L334.664 298.937C335.514 300.408 332.365 305.236 331.451 306.793ZM313.102 306.316H304.763C305.826 300.862 308.907 295.236 307.263 289.632H315.602C314.044 295.035 312.74 300.649 313.102 306.316ZM318.113 290.46L323.952 292.529C326.417 294.586 322.745 302.517 322.728 305.517L315.602 306.31L318.113 290.46ZM291.408 302.971L282.236 300.466C284.793 297.098 284.925 292.822 284.736 288.787L293.08 288.799C291.638 293.241 290.011 298.46 291.408 302.971ZM295.58 288.787H303.924L302.252 305.477L293.08 303.799C295.16 299.103 295.85 293.885 295.58 288.787ZM280.569 288.793L279.73 300.466L272.231 301.305L273.058 288.787H280.569V288.793ZM247.18 302.098L238.865 304.638C240.221 300.42 240.221 294.707 238.865 290.471H247.203C245.405 294.201 246.635 298.276 247.18 302.098ZM238.043 305.052L228.682 305.667L218.849 306.31C220.36 300.937 220.923 296.086 220.51 290.454H227.187V303.391C227.187 303.517 227.889 305.517 228.67 305.517C228.728 305.517 228.785 305.5 228.848 305.477V290.46L237.193 290.471C235.147 295.218 236.727 300.161 237.997 304.868V304.879C238.014 304.937 238.026 304.994 238.043 305.052ZM202.815 300.535C202.884 298.649 203.195 296.535 203.091 294.724L208.832 292.966L208.821 293.178L208.005 305.483C207.143 305.644 206.419 305.684 205.809 305.632C203.103 305.385 202.718 303.19 202.815 300.535ZM210.573 305.816L212.188 293.402L212.286 292.661L216.337 291.293C215.981 296.58 214.998 301.006 216.337 306.31H210.504L210.568 305.816H210.573ZM248.876 290.466L258.048 289.632C257.289 292.638 257.743 296.391 258.795 299.322C259.116 300.224 258.795 300.569 259.53 300.569C259.754 300.569 260.076 300.535 260.542 300.477C260.829 296.661 263.633 293.425 261.386 289.632L270.558 288.799L268.949 301.776L259.507 301.552L248.876 301.305C250.255 297.494 249.646 294.287 248.876 290.466ZM182.972 332.172L181.69 327.977L182.989 323.414L185.472 314.661C186.259 316.287 186.627 317.701 186.719 318.989C187.046 323.638 183.73 326.672 182.972 332.172ZM188.81 319.655C188.173 319.741 187.943 319.397 187.885 318.891C187.805 318.236 188.012 317.322 187.989 316.753C187.828 312.736 187.138 307.621 191.31 305.477C191.488 306.713 191.603 307.833 191.655 308.885C191.827 312.753 191.057 315.667 188.81 319.655ZM194.62 308.787V308.759C194.408 303.356 193.753 298.701 200.494 297.138C200.655 298.368 200.741 299.483 200.741 300.506C200.735 304.891 199.109 307.649 194.666 310.483C194.666 309.914 194.643 309.339 194.62 308.787ZM333.928 331.713C332.698 359.92 338.853 380.345 312.521 398.77C307.562 402.241 288.471 411.615 286.747 415.552C286.506 416.109 285.937 417.253 286.862 417.316C290.287 418.414 293.959 419.04 297.419 420.029C298.626 420.374 299.557 421.667 300.499 421.897C302.148 422.305 304.47 420.155 306.424 420.626C305.798 426.264 307.286 431.213 308.924 436.471L290.678 435.741L284.868 468.73L277.242 486.54C277.719 477.259 278.862 467.052 278.052 457.77C277.546 451.914 275.271 445.494 274.742 439.391C274.426 435.759 275.811 425.856 273.529 423.874C271.323 421.96 268.593 425.891 266.438 426.931C251.111 434.305 235.066 437.126 219.74 428.058C219.343 427.5 220.01 425.201 220.452 424.523C220.849 423.92 232.578 420.793 234.267 420.626C240.02 420.052 246.112 422.287 252.215 420.626C252.445 418.443 252.215 417.454 250.514 416.069C231.618 400.627 202.264 393.816 198.091 365.879C195.5 348.535 198.287 330.954 198.999 313.586C200.534 310.414 202.867 309.736 205.505 309.908C208.275 310.075 211.384 311.178 214.269 311.316C222.079 311.69 231.296 311.73 238.894 310.103C247.382 308.282 249.37 306.08 259.335 306.287C259.507 306.293 259.68 306.293 259.852 306.293C260.214 306.305 260.582 306.305 260.95 306.305C263.576 306.305 266.357 306.19 269.116 306.075H269.133C273.662 305.879 278.144 305.672 281.839 305.931C288.178 306.368 297.04 310.558 304.441 311.224C308.022 311.546 328.457 310.701 329.618 312.391C330.055 313.023 329.618 314.454 329.79 314.667C329.928 314.839 331.704 313.994 332.876 314.437C334.71 315.126 336.52 318 338.117 319.259C333.566 319.552 334.1 327.736 333.928 331.718V331.713ZM338.939 312.155L334.934 309.132L337.296 301.31C342.295 304.862 341.41 307.385 338.939 312.155ZM345.64 323C345.565 318.293 338.25 314.753 342.715 311.322C342.893 313.925 345.738 313.276 346.473 313.833C346.657 313.977 345.416 316.621 345.537 318.443C345.583 319.126 350.168 322.937 345.64 323Z" fill="#0030FF"/>
<path d="M21.0734 404.029L14.5049 433.971C12.4073 425.695 2.82742 415.046 5.48243 406.184C6.87315 401.546 17.4702 401.845 21.0734 404.029Z" fill="#9FE38E"/>
<path d="M144.204 506.621C135.193 506.213 129.67 490.437 120.544 502.954C121.177 510.069 128.107 500.891 130.837 505.776C133.159 518.437 136.543 529.287 133.17 542.264C130.331 553.161 124.056 558.397 112.959 560.425C102.287 562.379 93.0691 556.581 82.972 555.874L83.0869 559.759C86.8798 561.563 92.3048 564.247 95.3218 567.144C96.8102 568.575 104.339 578.672 104.804 580.259C105.229 581.713 102.258 593.655 100.718 594.109C95.6436 593.494 90.7244 591.868 85.7247 590.925C83.2593 590.46 80.6446 591.046 77.8344 590.471C74.7196 589.833 61.7376 583.195 58.7493 581.195C49.4395 574.966 33.8658 555.718 30.5039 545.138C29.2454 541.161 31.1475 540.305 31.7624 536.776C32.3486 533.374 32.636 529.937 33.2394 526.563C33.3945 525.695 33.3198 523.868 34.4979 524.098C36.0438 527.69 38.6931 531.529 41.2102 534.494C44.3594 538.207 59.5022 554.098 62.9042 555.345C66.4787 556.655 69.6165 555.483 66.1282 552.121C59.0769 545.322 51.359 539.132 44.9283 531.609C15.2405 496.92 12.7004 451.655 25.9467 409.138C28.5845 400.69 35.8312 385.356 42.6583 379.73C49.6809 373.931 57.962 377.897 58.7091 386.839C59.4102 395.218 50.9797 408.529 48.2787 417.293C45.4858 426.362 43.2445 438.259 42.8193 447.707C42.6928 450.489 42.2101 460.276 44.0261 461.598C45.2386 462.489 47.1523 462.063 47.6925 462.5C48.135 462.862 48.4051 465.621 48.6982 466.517C49.3936 467.063 54.6576 455.167 55.5081 453.73C62.1399 442.609 82.6502 413.195 94.3679 409.161C105.459 405.351 114.792 414.753 110.482 425.282C109.953 426.569 102.132 433.707 100.413 435.236C85.8569 448.172 70.5302 454.701 66.5879 476.489C65.7776 480.966 67.5247 485.414 70.7428 480.649C72.7082 477.747 74.2714 469.466 76.3172 465.368C77.4723 463.063 79.9147 459.19 81.6158 457.322C87.3625 451.023 105.695 437.494 113.556 435.035C120.498 432.862 135.589 428.891 139.187 437.316C146.52 454.494 127.165 458.121 116.809 465.822C109.844 471.012 106.126 475.782 101.367 482.914C100.419 484.339 100.609 486.299 99.6032 487.822C95.2988 494.322 85.8971 501.885 87.4717 510.736C96.2068 497.264 107.131 484.471 122.067 477.759C132.779 472.948 142.555 472.264 148.922 483.483C153.129 490.902 157.634 507.23 144.204 506.621Z" fill="#9FE38E"/>
<path d="M332.876 314.431C331.704 313.989 329.928 314.833 329.79 314.661C329.612 314.448 330.055 313.017 329.618 312.385C328.457 310.695 308.022 311.54 304.441 311.218C297.04 310.552 288.178 306.362 281.839 305.925C278.144 305.667 273.662 305.874 269.133 306.069C265.794 306.207 262.432 306.345 259.335 306.282C249.37 306.075 247.382 308.276 238.894 310.098C231.296 311.724 222.079 311.684 214.269 311.31C211.384 311.172 208.275 310.069 205.505 309.902C202.867 309.73 200.534 310.408 198.999 313.58C198.287 330.948 195.5 348.529 198.091 365.874C202.264 393.81 231.618 400.621 250.514 416.063C252.209 417.448 252.445 418.437 252.215 420.621C246.112 422.287 240.02 420.052 234.267 420.621C232.578 420.787 220.849 423.914 220.452 424.517C220.01 425.195 219.343 427.494 219.74 428.052C235.066 437.121 251.111 434.299 266.438 426.925C268.593 425.885 271.323 421.954 273.529 423.868C275.811 425.851 274.426 435.753 274.742 439.385C275.271 445.489 277.546 451.908 278.052 457.764C278.862 467.046 277.719 477.253 277.242 486.535L284.868 468.724L290.678 435.736L308.924 436.466C307.286 431.207 305.798 426.259 306.424 420.621C304.47 420.149 302.148 422.299 300.499 421.891C299.557 421.661 298.626 420.368 297.419 420.023C293.959 419.035 290.287 418.408 286.862 417.31C285.937 417.247 286.506 416.103 286.747 415.546C288.471 411.609 307.562 402.236 312.521 398.764C338.853 380.339 332.698 359.914 333.928 331.707C334.1 327.724 333.566 319.54 338.117 319.247C336.52 317.989 334.71 315.115 332.876 314.425V314.431ZM273.897 323C270.754 324.477 269.162 321.385 265.978 321.299C262.582 321.207 259.754 327.27 257.209 321.793C257.117 315.052 274.765 313.925 273.897 323ZM271.225 365.805C250.261 372.96 240.681 346.224 265.179 343.557C266.737 343.391 270.581 342.839 271.644 343.144C273.449 343.661 273.679 346.172 274.742 346.77C276.92 348 279.443 346.029 280.38 350.305C282 357.684 278.115 363.454 271.225 365.805Z" fill="#9FE38E"/>
<path d="M340.025 268.948C334.807 252.971 333.94 248.529 317.475 242.276C289.201 231.54 246.433 235.184 217.148 241.621C202.66 244.805 193.942 247.759 186.719 261.241C176.443 280.402 174.748 302.816 179.65 323.833C180.34 323.948 180.639 323.42 180.811 322.793C180.932 322.351 180.989 321.862 181.07 321.517C190.707 281.546 216.579 286.879 250.186 285.46C278.225 284.27 321.027 276.828 342.715 298.799L348.956 311.316C348.025 296.931 344.496 282.626 340.025 268.948ZM206.355 278.339C205.775 275.299 206.074 265.989 206.442 262.615C206.809 259.178 208.045 252.667 212.171 252.086C210.401 261.012 208.39 270.259 210.344 279.408C210.286 282.443 206.936 281.374 206.355 278.339ZM216.355 272.529C216.188 273.983 216.711 275.236 215.09 276.259C210.734 274.948 211.458 261.92 214.269 261.259C218.234 260.328 216.59 270.489 216.355 272.529ZM224.67 276.276C219.682 275.115 218.297 263.374 223.843 262.092C224.291 266.851 226.561 271.592 224.67 276.276Z" fill="#9FE38E"/>
<path d="M210.344 279.408C210.286 282.443 206.936 281.374 206.355 278.339C205.775 275.299 206.074 265.989 206.442 262.615C206.809 259.178 208.045 252.667 212.171 252.086C210.401 261.012 208.39 270.259 210.344 279.408Z" fill="#0030FF"/>
<path d="M216.355 272.529C216.188 273.983 216.711 275.236 215.09 276.259C210.734 274.948 211.458 261.92 214.269 261.259C218.234 260.328 216.59 270.488 216.355 272.529Z" fill="#0030FF"/>
<path d="M224.67 276.276C219.682 275.115 218.297 263.374 223.843 262.092C224.291 266.851 226.561 271.592 224.67 276.276Z" fill="#0030FF"/>
<path d="M271.225 365.805C250.261 372.96 240.681 346.224 265.179 343.557C266.737 343.391 270.581 342.839 271.644 343.144C273.449 343.661 273.679 346.172 274.742 346.77C276.92 348 279.443 346.029 280.38 350.305C282 357.684 278.115 363.454 271.225 365.805Z" fill="#0030FF"/>
<path d="M273.897 323C270.754 324.477 269.162 321.385 265.978 321.299C262.582 321.207 259.754 327.27 257.209 321.793C257.117 315.052 274.765 313.925 273.897 323Z" fill="#0030FF"/>
<path d="M298.718 520.557C297.43 521.724 276.46 527.822 272.242 529.523C260.197 534.397 248.772 540.891 237.601 547.431L217.188 561.626C216.28 560.695 222.073 555.379 223.01 554.529C228.785 549.27 236.888 544.149 243.617 540.098C260.691 529.828 278.374 523.27 297.2 516.931L299.373 518.23C299.649 518.862 299.166 520.144 298.718 520.552V520.557Z" fill="#0030FF"/>
<path d="M254.6 554.023L222.188 570.81C219.355 567.816 234.25 559.052 236.342 557.862C239.152 556.27 251.56 549.494 253.898 551.167L254.6 554.023Z" fill="#0030FF"/>
<path d="M260.295 465.603C263.707 465.603 266.472 462.837 266.472 459.425C266.472 456.013 263.707 453.247 260.295 453.247C256.883 453.247 254.117 456.013 254.117 459.425C254.117 462.837 256.883 465.603 260.295 465.603Z" fill="#0030FF"/>
<path d="M495.154 555.988C494.074 550.908 490.752 534.247 490.752 528.316C490.752 527.851 490.769 527.454 490.815 527.132C491.551 521.695 503.234 509.052 506.751 502.954C515.17 488.391 520.175 470.5 519.107 453.592C518.808 448.862 516.107 439.552 516.762 435.443C517.319 431.931 522.043 422.741 523.963 419.213C529.14 409.667 538.025 402.5 532.376 390.259C526.997 378.609 510.889 384.454 503.774 391.391C498.257 386.575 495.74 377.23 488.436 374.971C481.632 372.874 469.541 373.034 466.368 380.787C462.328 390.661 478.161 410.805 481.35 421.276C485.045 433.414 485.89 448.057 485.746 460.672L475.058 438.42C464.598 423.161 459.788 406.103 438.525 404.04C426.256 402.845 415.348 406.012 417.354 420.626C408.659 416.557 394.597 420.592 394.913 431.81C395.022 435.672 399.878 446.914 401.912 450.678L409.01 461.512C401.573 454.914 393.183 448.891 384.557 443.845C373.862 437.586 358.645 429.822 346.06 430.655C343.623 430.816 337.554 431.678 331.664 432.776C325.773 433.868 320.055 435.19 318.331 436.264C317.67 436.678 317.17 436.443 317.147 437.149C317.142 437.374 317.182 437.69 317.274 438.144C329.049 439.517 341.129 434.46 352.709 435.655C365.397 436.966 392.597 453.966 402.734 462.374C406.292 465.322 408.676 469.672 413.188 471.943C407.659 471.569 402.757 469.96 396.999 470.759C382.264 472.816 367.075 497.006 377.115 509.695C381.965 515.833 388.626 514.626 394.832 511.58C391.068 528.672 394.511 556.333 413.055 563.437C413.831 568.805 411.556 576.115 415.67 580.431C417.785 582.649 421.314 582.471 422.193 586.437C423.101 590.54 420.773 600.603 420.664 605.408C420.532 611.109 420.94 618.115 421.538 623.793C421.877 627.017 423.716 642.73 426.963 643.402L428.945 642.029C425.313 624.931 424.94 607.489 425.704 590.011C430.83 592.161 442.335 594.385 447.634 593.167C452.484 592.052 453.116 586.328 455.766 584.621C456.967 583.851 468.202 580.115 470.552 579.385C472.506 578.776 480.287 579.23 479.074 575.414C477.373 573.414 473.719 573.983 471.357 574.356C468.604 574.793 453.185 580.466 451.553 582.075C449.157 584.448 449.26 588.006 444.91 588.851C442.163 589.385 440.893 587.845 438.565 587.569C434.979 587.138 432.474 588.333 429.078 586.213C426.934 584.879 425.882 582.132 424.612 581.086C423.48 580.161 421.681 579.937 420.417 579.023C415.923 575.776 417.032 570.161 416.532 564.977C425.486 568.787 439.364 565.391 448.588 562.42C466.087 556.782 476.011 540.764 488.252 528.264V528.316C488.212 538.747 489.712 549.902 491.838 560.138C497.895 589.224 516.084 614.149 518.273 644.672C518.974 654.466 519.181 672.408 516.854 681.609C512.009 700.77 490.453 712.661 471.23 710.086C467.569 709.598 461.053 705.713 457.38 708.098C456.783 708.483 456.806 710.034 455.995 710.218C452.26 711.063 443.416 704.236 440.324 701.793C415.814 682.425 412.601 661.626 401.085 634.241C400.838 633.667 398.591 629.603 397.758 627.356C397.396 626.379 397.304 625.747 397.758 625.891C400.016 627.512 402.108 628.925 404.792 627.483L404.481 624.178C389.712 607.259 378.42 586.057 374.931 563.615C373.242 552.73 373.748 541.27 372.115 530.557C371.437 526.103 367.8 509.937 363.553 508.247C361.622 507.805 362.162 510.011 362.369 511.098C363.823 518.724 367.11 525.897 368.047 534.626C371.19 564 370.185 577.695 384.402 605.046C385.166 606.517 391.166 615.345 390.666 615.874C377.443 607.477 354.576 613.92 341.428 620.425C298.442 641.69 281.288 666.109 227.59 645.098C208.235 637.523 179.345 613.241 160.042 615.035C151.232 615.851 147.675 621.81 142.124 627.557C143.876 621.626 144.146 615.086 145.853 609.184C146.876 605.655 148.934 602.759 150.043 599.19C159.335 569.259 164.502 520.782 183.46 496.615C184.667 495.08 185.926 493.632 187.914 493.109L186.627 490.644C184.081 490.155 180.38 494.385 178.96 496.282C158.967 522.948 155.807 566.54 145.704 598.184C140.601 614.155 132.193 635.885 125.314 651.218C121.28 660.201 107.103 680.695 99.0227 685.828C95.0345 688.362 85.3971 688.649 86.6557 693.477C92.3967 694.408 102.816 692.27 106.723 687.69C108.275 685.868 108.557 683.109 110.057 681.006C111.907 678.408 115.2 675.621 117.068 673.006C123.866 663.511 130.32 654.241 132.952 642.58C134.521 642.408 133.624 644.328 133.538 645.253C133.475 645.914 131.733 656.322 134.595 653.42C135.802 650.856 135.94 645.19 137.078 643.109C137.578 642.201 138.98 642.799 139.394 642.414C139.664 642.161 140.963 637.534 142.25 635.621C143.273 634.109 152.554 623.805 153.761 622.931C157.479 620.247 162.99 620.523 167.45 620.983C179.46 622.218 194.603 634.494 205.608 640.385C246.916 662.512 271.863 664.759 313.665 642.718C336.911 630.46 367.909 603.592 394.051 623.977C394.585 625.362 395.12 626.753 395.637 628.149C401.16 642.862 405.987 658.144 411.969 672.586C418.36 687.994 424.744 696.425 437.824 706.799C442.542 710.54 447.519 714.006 453.231 716H483.258L494.918 713.063C525.158 699.011 526.273 671.891 523.284 642.172C520.129 610.874 501.648 586.368 495.16 555.988H495.154ZM528.117 393.684C531.043 406.718 516.509 416.282 514.94 428.966L511.251 411.397L505.073 396.132C508.963 390.345 525.968 384.098 528.117 393.684ZM485.35 524.103C474.667 536.925 462.978 551.971 446.576 557.069C435.054 560.649 422.4 563.075 411.205 557.368C399.091 551.184 392.172 522.276 399.355 511.052C402.01 506.902 411.676 505.678 412.274 504.822C413.883 502.511 410.038 499.448 407.924 498.833C401.131 496.862 390.689 513.552 382.276 507.874C373.46 501.931 382.804 484.724 389.068 479.517C400.459 470.04 419.578 477.741 428.181 487.822C431.526 491.747 433.75 497.046 437.043 500.644C437.887 501.569 438.267 502.747 439.876 502.391C440.347 495.787 435.387 489.517 431.514 484.483C430.261 482.851 427.244 480.828 426.491 479.494C425.428 477.609 425.779 475.661 424.767 473.707C419.837 464.138 408.786 454.966 403.866 443.724C400.39 435.776 395.93 425.017 408.607 423.954C418.411 423.132 424.681 431.316 431.054 437.385L464.897 482.368C463.759 471.132 455.122 461.316 448.565 452.402C442.445 444.075 434.083 432.776 426.543 426.04C424.911 424.58 422.773 423.109 420.785 422.167C421.452 409.822 427.112 407.764 438.542 409.029C448.984 410.19 453.57 415.121 459.76 422.851L484.93 468.184C486.298 467.011 488.901 466.563 489.861 465.201C492.005 462.172 491.091 446.316 490.654 442.011C489.815 433.782 487.85 422.948 484.804 415.322C481.54 407.149 470.673 393.046 470.673 385.161C470.667 375.494 486.511 376.971 491.574 382.678C503.711 396.351 509.981 421.695 513.067 439.615C519.503 476.948 508.199 496.701 485.35 524.103Z" fill="#0030FF"/>
<path d="M514.94 428.965L511.251 411.396L505.073 396.132C508.963 390.345 525.968 384.098 528.117 393.684C531.043 406.718 516.509 416.282 514.94 428.965Z" fill="#9FE38E"/>
<path d="M485.35 524.103C474.667 536.925 462.978 551.971 446.576 557.069C435.054 560.649 422.4 563.075 411.205 557.368C399.091 551.184 392.172 522.276 399.355 511.052C402.01 506.902 411.676 505.678 412.274 504.822C413.883 502.511 410.038 499.448 407.924 498.833C401.131 496.862 390.689 513.552 382.276 507.874C373.46 501.931 382.804 484.724 389.068 479.517C400.459 470.04 419.578 477.741 428.181 487.822C431.526 491.747 433.75 497.046 437.042 500.644C437.887 501.569 438.267 502.747 439.876 502.391C440.347 495.787 435.387 489.517 431.514 484.483C430.261 482.851 427.244 480.828 426.491 479.494C425.428 477.609 425.779 475.661 424.767 473.707C419.837 464.138 408.786 454.965 403.866 443.724C400.39 435.776 395.93 425.017 408.607 423.954C418.411 423.132 424.681 431.316 431.054 437.385L464.897 482.368C463.759 471.132 455.122 461.316 448.565 452.402C442.444 444.075 434.083 432.776 426.543 426.04C424.911 424.58 422.773 423.109 420.785 422.167C421.451 409.822 427.112 407.764 438.542 409.029C448.984 410.19 453.57 415.121 459.76 422.851L484.93 468.184C486.298 467.011 488.901 466.563 489.861 465.201C492.005 462.172 491.091 446.316 490.654 442.011C489.815 433.782 487.85 422.948 484.804 415.322C481.54 407.149 470.673 393.046 470.673 385.161C470.667 375.494 486.511 376.971 491.574 382.678C503.711 396.351 509.981 421.695 513.067 439.615C519.503 476.948 508.199 496.701 485.35 524.103Z" fill="#9FE38E"/>
<path d="M482.839 688.466C478.276 687.925 470.638 684.701 467.88 680.902C466.541 679.052 464.805 674.379 468.276 676.339C469.115 676.81 469.5 678.442 470.196 679C472.592 680.937 479.971 684.293 482.839 684.293H497.016C497.269 684.293 498.556 685.983 499.085 686.379C498.562 686.776 497.275 688.466 497.016 688.466C492.648 688.466 486.971 688.954 482.839 688.466Z" fill="#0030FF"/>
<path d="M499.935 676.793C496.43 682.213 489.206 681.299 484.172 678.787C482.844 678.126 480.488 676.977 480.758 675.121C487.218 676.109 493.298 677.454 499.941 676.793H499.935Z" fill="#0030FF"/>
<path d="M93.73 649.253L90.4486 653.868C83.6041 658.454 75.415 662.701 67.4787 665.115C60.732 667.167 52.0198 670.006 46.2041 664.672C45.8938 662.747 46.8362 663.517 48.0718 663.638C66.0765 665.385 78.0355 655.534 93.7357 649.253H93.73Z" fill="#0030FF"/>
<path d="M87.897 660.937C85.4948 666.339 78.6562 669.856 72.8864 670.103C72.714 667.994 75.346 667.029 76.7999 666.098C78.3918 665.086 86.7993 660.08 87.897 660.937Z" fill="#0030FF"/>
</g>
<defs>
<clipPath id="clip0_48_4736">
<rect width="570" height="716" fill="white"/>
</clipPath>
</defs>
</svg>
